<svg width="84" height="167" xmlns="http://www.w3.org/2000/svg">
 <style type="text/css">.st0{fill-rule:evenodd;clip-rule:evenodd;fill:#0066FF;stroke:#000000;stroke-width:0.6031;}
	.st1{fill-rule:evenodd;clip-rule:evenodd;fill:#002255;stroke:#000000;stroke-width:0.6031;}
	.st2{fill-rule:evenodd;clip-rule:evenodd;fill:#333333;stroke:#000000;stroke-width:0.6031;}
	.st3{fill-rule:evenodd;clip-rule:evenodd;fill:#F5E900;stroke:#000000;stroke-width:0.6031;}
	.st4{fill-rule:evenodd;clip-rule:evenodd;fill:#999999;stroke:#000000;stroke-width:0.6031;}</style>

 <g>
  <title>background</title>
  <rect fill="none" id="canvas_background" height="169" width="86" y="-1" x="-1"/>
 </g>
 <g>
  <title>Layer 1</title>
  <g id="layer1">
   <g id="blue-car-blinker-right">
    <path d="m18.509731,6.077139c2.1,-1.6 4.5,-2.8 7,-3.7c3.2,-1.2 6.5,-1.8 9.9,-2.1c4.8,-0.4 9.8,-0.4 14.6,0.4c3.8,0.6 7.6,1.7 11.1,3.3c2.9,1.3 5.6,3.2 8,5.3c1.7,1.4 3.2,3.1 4.5,5c1.2,1.8 2.1,3.9 2.8,6c0.9,2.7 1.1,5.6 1.5,8.4c0.6,3.6 0.3,12.4 -0.3,16.1c-0.2,1.3 -0.5,6.4 -0.6,11.1l-0.2,8.7l1.2,0.4c1.4,0.6 2.7,1.7 3.7,2.8c1.7,1.8 2.2,3.7 1.1,4.1c-0.8,0.3 -5.5,-2.2 -5.9,-3.1c-0.2,-0.6 -0.9,18.2 -0.7,22.4c0.1,3.9 0.5,6.3 0.8,9.5c0.3,4.1 0.8,8 1,11.9c0.2,1.6 0.4,4 0.5,4.7c1,8.8 1.1,11.7 1,19.1c-0.1,6.7 -0.6,9.2 -1.1,10.8c-0.7,2.1 -2.5,6.9 -4.9,10c-1.4,1.8 -3.2,3.3 -5.2,4.5c-1.2,0.8 -2.6,1.3 -3.9,1.8c-4,1.4 -9.3,2.7 -12.4,3.1c-3.8,0.5 -9.2,0.6 -9.8,0.5l-2.8,0c-0.6,0 -2.9,-0.3 -4.5,-0.4c-1,0 -2.6,-0.2 -3.5,-0.4c-0.9,-0.2 -2.8,-0.6 -4.2,-0.8c-1.3,-0.1 -11.9,-3.6 -13.9,-5.5c-1.3,-0.8 -3,-2.2 -3.5,-3.7c-3.1,-4.1 -4.9,-9.1 -5.6,-14.1c-0.6,-4.1 0.4,-18.6 1.2,-27.8c0.4,-4.3 1.5,-8.5 1.7,-12.9c0.4,-8.2 0.3,-13.2 0.2,-19.8c0,-2.5 -0.1,-4.8 -0.2,-7.4c-0.1,-2.6 -0.2,-4.8 -0.3,-4.8s-1.3,0.5 -2.7,1.2c-3.5,1.7 -4.2,1.7 -3.9,0c0.4,-2.1 3.9,-5.3 5.8,-5.2c0.8,0 0.5,-3 0.6,-4.6c0.1,-1.4 0,-4.3 0,-4.3c-0.2,-5.2 -0.7,-10 -1.3,-13.6c-0.8,-5.1 -0.2,-15.4 1.3,-19.8c0.6,-1.9 1.9,-4.5 3.2,-6.6c2.5,-4.6 5.5,-8.2 8.7,-10.5l0,0z" id="path2995-4-8-2_2_"/>
    <path d="m73.209731,63.577139c-0.7,-0.4 -1.8,-2.2 -3.3,-5.5c-0.8,-1.8 -1.7,-3.6 -2.1,-4c-0.5,-0.7 -1.1,-2.9 -4.3,-17.2c-2,-9 -3.7,-16.5 -3.6,-16.5c0.3,-0.3 9.5,2.5 12.3,3.8l1.4,0.6l0.3,2.1c0.6,4.3 0.8,11.6 0.7,23.8c-0.1,6.7 -0.2,12.4 -0.3,12.7c-0.2,0.5 -0.5,0.5 -1.1,0.2l0,0z" class="st0" id="path3029-98_2_"/>
    <path d="m9.409731,63.377139c-0.2,-1.1 -0.7,-18.7 -0.7,-25.8c0,-7.3 0.2,-9.5 1,-11.3c0.2,-0.5 0.6,-1 0.9,-1.2s2.3,-0.9 4.6,-1.6s4.9,-1.8 5.9,-2.3c1.7,-0.8 1.8,-0.9 1.7,-0.4c-0.1,0.3 -1.5,7.2 -3.1,15.3c-2.7,13.2 -3.1,14.9 -3.7,15.7c-1,1.5 -2.1,3.8 -3.2,6.7c-1.3,3.4 -1.6,4.1 -2.6,4.9l-0.8,0.6l0,-0.6l0,0l0,0z" class="st0" id="path3031-5_2_"/>
    <path d="m65.709731,8.577139c-2.8,-1.6 -5.5,-2.4 -7.6,-2.1c-1.2,0.2 -1.8,0.7 -1.8,1.6l0,0.7l-2.2,-0.5c-3.5,-0.8 -6.8,-1.1 -12.7,-1.1c-5.8,0 -8,0.2 -12.3,1.1c-1.4,0.3 -2.5,0.6 -2.6,0.6s-0.1,-0.2 -0.1,-0.4c0,-0.8 -0.5,-1.9 -1,-2.1c-0.8,-0.3 -4.4,0.2 -5.9,0.8c-0.8,0.3 -1.4,0.5 -1.4,0.5c-0.2,-0.2 3.7,-2.8 5.3,-3.6c6.1,-2.9 17.1,-4.1 24.7,-2.8c6.8,1.2 16.3,5 18.7,7.4c0.8,0.8 0.5,0.8 -1.1,-0.1l0,0l0,0z" class="st0" id="path3033-0_2_"/>
    <path d="m23.709731,20.377139c0.2,-0.8 0.4,-1.6 0.5,-1.8s0.5,-1.7 0.8,-3.4c0.3,-1.7 0.7,-3.4 0.9,-3.7c0.4,-0.9 1.2,-1.2 4.3,-1.8c4,-0.8 10.2,-1.2 16.2,-0.8c5,0.3 6.7,0.5 8.9,1.1l1.3,0.4l0.4,1.7c1.5,7.2 2,9.4 1.9,9.5c0,0 -0.6,-0.1 -1.3,-0.3c-8.4,-2.9 -22.7,-2.8 -32.3,0.2c-0.8,0.3 -1.5,0.5 -1.6,0.5c-0.2,-0.1 -0.2,-0.8 0,-1.6l0,0z" class="st0" id="path3035-9_2_"/>
    <path d="m63.509731,50.077139c-3.2,-3.2 -8,-7 -13.8,-10.6c-3.8,-2.4 -4.3,-2.6 -6.6,-2.8c-2.3,-0.2 -3.9,0.3 -7.7,2.1c-4.5,2.2 -9.3,5.1 -14.9,9c-1.2,0.9 -2.3,1.6 -2.3,1.5c-0.1,-0.1 3.4,-17.4 3.6,-17.7c0.2,-0.3 3.2,-1.3 5.8,-1.9c8.1,-1.8 20,-1.3 32.4,1.4l1.1,0.2l0.3,1.5c1.5,6.5 3.8,18.2 3.7,18.5c0.1,0.3 -0.7,-0.3 -1.6,-1.2l0,0l0,0z" class="st0" id="path3037-2_2_"/>
    <path d="m59.209731,29.277139c-2,-0.6 -6.3,-1.4 -9.2,-1.8c-2.3,-0.3 -4.3,-0.4 -10.3,-0.4c-7.8,0 -10.3,0.2 -15.5,1.5c-1.1,0.3 -2,0.4 -2,0.4c0,0 0,-0.3 0.1,-0.6c0.2,-0.9 5.4,-2.2 11.4,-2.9c4.3,-0.5 14.1,-0.3 18.4,0.3c4.4,0.7 7.8,1.6 8.2,2.3c0.2,0.4 0.4,1.7 0.2,1.6c-0.1,-0.1 -0.7,-0.2 -1.3,-0.4l0,0l0,0z" class="st0" id="path3039-8_2_"/>
    <path d="m22.909731,24.977139c0.1,-0.4 0.2,-0.8 0.2,-0.8c0,-0.1 2.5,-0.8 4.8,-1.4c8.4,-2.1 16.8,-2.5 24.1,-1c2.8,0.6 7,1.8 7.3,2.1c0.1,0.1 0.3,0.6 0.4,1l0.2,0.7l-2.1,-0.6c-8.7,-2.6 -22,-2.5 -32.7,0.2c-2.5,0.7 -2.5,0.7 -2.2,-0.2l0,0z" class="st0" id="path3041-3_2_"/>
    <path d="m58.409731,163.477139c0,-0.7 1.4,-11.1 1.5,-11.3c0.4,-0.7 3.3,-22.8 4,-30.6c0.2,-2.1 0.4,-3.2 1.2,-5.7c1.1,-3.4 1.9,-7.6 2.1,-11.7c0.1,-2.1 0.2,-2.6 0.7,-3.3c0.3,-0.4 1.1,-2.4 1.9,-4.4l1.4,-3.6l0,-8.2c0,-4.5 -0.1,-10.6 -0.2,-13.5c-0.1,-3.4 -0.1,-5.5 0.1,-5.8c0.3,-0.6 3.4,-0.6 3.6,0c0.2,0.4 0,8.2 -0.3,14.1c-0.5,8.9 -0.2,16.3 0.9,29.3c1.3,14.5 1.4,22.3 0.4,30.9c-0.8,7.2 -1.8,11.2 -4,15.4c-1.1,2.1 -4.5,5.2 -7.5,6.7c-0.9,0.4 -5.1,1.9 -5.6,1.9c-0.1,0.1 -0.2,0 -0.2,-0.2l0,0zm4,-11.5c0.8,-1.8 3.2,-10.1 5.2,-18c2.6,-10.3 4.3,-15.7 4.8,-15.8c0.9,-0.2 1,0.5 1,6c0,3.3 0.1,5.8 0.3,6.5l0.3,1.2l0.2,-1.2c0.1,-0.7 0.3,-4.6 0.4,-8.7c0.3,-8.3 0.1,-16 -0.6,-19.1c-0.6,-2.8 -0.9,-2.2 -1.7,2.7c-1,6.3 -8,36.8 -8.6,37.3c-0.2,0.1 -0.1,-0.5 0.5,-4.6c0.5,-3.7 1.5,-12.3 1.6,-14.4c0.1,-1.7 0.1,-1.8 -0.2,-1.1c-0.7,1.4 -4.4,26.8 -4.5,29.9c0.1,1.1 0.7,0.7 1.3,-0.7l0,0l0,0z" class="st0" id="path3043-0_2_"/>
    <path d="m23.209731,162.877139c-4,-1.2 -6.4,-2.4 -9.3,-4.6c-1.6,-1.2 -1.8,-1.5 -2.6,-3.2c-3.2,-7 -3.7,-9.6 -3.9,-21.1c-0.2,-7.4 0.1,-13.2 0.9,-23.7c0.3,-3.7 0.6,-7.2 0.6,-7.7c0,-0.6 0.1,3.4 0.1,8.9c0,8.8 0.1,10.3 0.5,13.5c0.3,2 0.5,3.6 0.6,3.7c0.1,0.1 0.2,-1.9 0.3,-4.4c0.2,-4.4 0.4,-6.5 0.7,-6.8c0.1,-0.1 0.3,0 0.5,0.2c0.3,0.3 0.8,2.5 1.6,7c1.9,10.3 2.7,13.5 5.1,21c1.5,4.7 3.2,8.1 4,8.1c0.4,0 0.4,-0.2 -0.2,-2.8c-0.3,-1.2 -0.8,-5.2 -1.3,-8.9c-0.9,-7.8 -1.7,-12.2 -2.7,-16.2c-1.4,-5.6 -1.4,-2.7 -0.1,7.3c0.4,3.3 1,7.3 1.3,8.9c0.3,1.7 0.4,3.2 0.4,3.4s-0.8,-2.3 -1.7,-5.5c-1.4,-5.1 -1.8,-7 -2.9,-13.4c-1.7,-10.5 -4.4,-27.2 -4.4,-27.3c0,-0.1 -0.2,-0.1 -0.4,-0.1c-0.5,0 -0.7,0.2 -0.9,1.2c-0.1,0.4 -0.1,-0.6 0,-2.3c0.2,-4 0.1,-16.8 -0.2,-23.7c-0.1,-3.1 -0.2,-6.3 -0.1,-7.1l0.1,-1.4l1.4,-0.4c0.7,-0.2 1.4,-0.4 1.5,-0.3c0.1,0.1 0.1,3.6 0,7.7c-0.1,9.6 -0.1,14.8 0.2,17.1c0.3,2.3 1.4,6.9 2,8.3c0.4,0.9 1.3,4.8 2.4,10.7c0.2,1 0.9,3.5 1.5,5.5c1,3 1.2,4 1.4,6.5c0.1,1.6 0.3,3 0.3,3.1c0.1,0.1 0.3,2 0.4,4.2c0.5,5.7 0.5,5.7 1.7,13.8c1.7,11.1 2.7,16.9 3.2,19.1c0.2,1.1 0.5,2.1 0.5,2.2c0.1,0.3 -0.4,0.2 -2.5,-0.5l0,0l0,0z" class="st0" id="path3045-9_2_"/>
    <path d="m60.009731,116.177139c-2.4,-0.3 -31.6,-0.8 -34.8,-0.6c-1.6,0.1 -3.3,0.2 -3.8,0.2l-0.9,0l-0.5,-2.1c-0.9,-3.5 -1.6,-7.2 -2,-10.3c-0.3,-2.4 -0.4,-5.2 -0.3,-15.9c0,-12.1 0.1,-13.8 0.6,-13.3c0.1,0.1 0.2,3 0.3,6.6c0.3,9.2 0.7,17.1 1.4,23c0.5,4.5 1.5,8.6 1.2,4.9c-0.1,-0.9 -0.3,-4.4 -0.6,-7.7c-0.4,-5.1 -0.5,-8.1 -0.5,-17l0,-10.8l1.3,-0.2c2,-0.3 26.4,-0.4 34.6,-0.2l7.6,0.2l0.3,0.7c0.4,0.8 0.4,1.6 0,10.6c-0.4,9.2 -0.6,13.4 -1.2,20.4c-0.3,3.3 -0.4,6.2 -0.4,6.5c0.1,0.9 0.6,-1.4 1.2,-5.9c0.9,-6.9 1.4,-12.7 1.7,-22.5c0.1,-4 0.3,-7.4 0.5,-7.6c0.1,-0.2 0.2,1.7 0.1,5c-0.1,2.9 -0.2,8.9 -0.2,13.2c-0.2,11.9 -0.9,18.4 -2.5,22.1c-0.4,1 -0.3,1 -3.1,0.7l0,0l0,0z" class="st0" id="path3047-3_2_"/>
    <path d="m37.309731,165.577139c-3.2,-0.2 -7.7,-0.9 -9.7,-1.4c-1,-0.3 -1,-0.3 -1.4,-1.9c-0.6,-2.6 -0.9,-4.4 -0.8,-5c0.1,-0.6 0.2,-0.6 1.2,-0.4c3.4,0.5 4.8,0.6 10,0.8c6.2,0.2 14.4,0 16.7,-0.4c0.8,-0.1 2.2,-0.5 3,-0.8l1.6,-0.5l0,1.5c0,1.4 -0.3,4.3 -0.6,6.1c-0.1,0.7 -0.2,0.7 -2.1,1.1c-5.5,0.9 -11.8,1.3 -17.9,0.9l0,0l0,0z" class="st0" id="path3049-39_2_"/>
    <path d="m8.109731,150.977139c-0.7,-0.8 -1.9,-3.8 -2.3,-5.5c-0.7,-3 -1,-7.6 -0.8,-13.7c0.2,-9 1.1,-19.9 1.8,-22.7c0.9,-3.7 1.3,-13.2 1.2,-28.4c-0.1,-7.3 -0.1,-12.5 0.1,-12.3c0.1,0.2 0.2,7.4 0.3,16.1l0.1,15.7l-0.7,8.1c-1.2,13.3 -1.3,15.6 -1.1,24c0.2,9 0.6,13.6 1.5,16.8c0.5,2 0.5,2.6 -0.1,1.9l0,0l0,0z" class="st1" id="path3051-2_2_"/>
    <path d="m74.809731,151.277139c0,-0.1 0.3,-1.6 0.7,-3.2c0.9,-4.2 1.3,-6.7 1.7,-12.8c0.5,-7.1 0.2,-14.1 -1.4,-30l-0.8,-8.1l0.2,-12.2c0.1,-6.7 0.2,-13.3 0.3,-14.6c0.1,-1.3 0.1,4 0.1,11.7c0,9.9 0.1,15 0.3,17c0.2,1.6 0.5,5.5 0.9,8.7c0.3,3.2 0.7,7.3 0.9,9.1s0.5,4.2 0.6,5.2c0.3,2.8 0.3,15 0,18.9c-0.3,3.6 -0.7,5.1 -2.2,8.5c-1,1.9 -1.3,2.4 -1.3,1.8l0,0z" class="st1" id="path3053-8_2_"/>
    <path d="m80.609731,70.177139c-0.5,-0.2 -1.5,-1 -2.2,-1.7c-1,-1 -1.3,-1.4 -1.3,-1.8c0.2,-1.2 2.3,-0.4 4,1.5c0.9,1.1 1,1.3 0.8,2c-0.1,0.5 -0.2,0.5 -1.3,0z" class="st1" id="path3055-5_2_"/>
    <path d="m75.509731,59.477139c0,-2.2 0.1,-8.4 0.2,-13.9c0.2,-10.2 0.1,-13.8 -0.6,-18.2c-0.5,-3.2 -0.9,-4.6 -2.1,-7.3c-1.2,-2.6 -2.4,-6.1 -2.2,-6.3c0.2,-0.2 2.4,3.1 3.2,4.8c0.8,1.7 1.9,5.5 2.5,8.5c0.6,3 0.7,8.7 0.3,14c-0.2,2.5 -0.5,8.5 -0.6,13.2c-0.1,4.8 -0.3,8.8 -0.5,8.9c-0.1,0.2 -0.2,-1.2 -0.2,-3.7l0,0l0,0z" class="st1" id="path3057-3_2_"/>
    <path d="m7.809731,60.677139c-0.1,-1.5 -0.3,-4.5 -0.4,-6.6c-0.1,-2.1 -0.4,-5.6 -0.7,-7.6s-0.5,-6 -0.6,-8.8c-0.2,-6.4 0.2,-9.9 1.6,-13.9c0.9,-2.7 3.5,-8.5 3.8,-8.2c0.1,0.1 -0.7,2.5 -1.6,5.4c-2.4,7.2 -2.5,7.9 -2.3,17.7c0.1,4.3 0.2,9.5 0.4,11.7c0.1,2.2 0.2,6 0.2,8.5l-0.1,4.6l-0.3,-2.8z" class="st1" id="path3059-3_2_"/>
    <path d="m1.509731,69.977139c-0.4,-0.8 0.9,-2.3 2.9,-3.3c1.7,-0.9 2.8,0.2 1.5,1.4c-0.7,0.6 -2.6,1.8 -3.6,2.1c-0.5,0.2 -0.6,0.1 -0.8,-0.2l0,0z" class="st1" id="path3061-3_2_"/>
    <path d="m37.909731,154.077139c-5.2,-0.5 -9.4,-1.3 -10,-2c-0.1,-0.2 -0.5,-1.1 -0.8,-2.1c-1.2,-3.7 -2,-7.8 -2.5,-13.3c-0.5,-4.9 -1.4,-18.7 -1.2,-18.9c0.2,-0.2 35.1,-0.2 35.9,0l0.6,0.2l-0.3,5.9c-0.5,11.2 -2.2,24.7 -3.4,28c-0.4,1.1 -1.1,1.5 -3.3,1.9c-1.4,0.2 -12.9,0.5 -15,0.3l0,0l0,0z" class="st1" id="path3063-40_2_"/>
    <path d="m19.009731,69.677139c-1.8,-0.3 -3.1,-2.4 -3.8,-6.3c-0.4,-2 -0.3,-3.4 0.4,-5.4c1.1,-3.1 3.4,-6 6.9,-8.5c2,-1.4 15.6,-9.5 17,-10.1c0.7,-0.3 1.5,-0.4 2.8,-0.4c1.6,0 1.9,0.1 3.5,0.9c4,2.1 12.1,8.5 18.3,14.6c2.4,2.4 2.8,2.9 3.1,3.9c0.4,1.6 0.9,5.8 0.8,7.1c-0.2,1.7 -1,3.2 -2.1,3.8c-0.9,0.4 -1.4,0.5 -23.3,0.5c-12.5,0.1 -23,0 -23.6,-0.1l0,0l0,0z" class="st2" id="path3065-6_2_"/>
    <path d="m14.609731,93.377139l-0.9,-2.6l0.1,-10.7c0,-5.9 0.1,-11.1 0.2,-11.5l0.1,-0.7l0.9,1.3l0.9,1.3l0,7.8c0,4.3 -0.1,10 -0.2,12.8l-0.2,5l-0.9,-2.7z" class="st2" id="path3067-06_2_"/>
    <path d="m67.509731,84.777139c0,-11.5 0,-13.1 0.3,-13.5c0.2,-0.2 0.6,-1.1 1,-1.9l0.6,-1.5l0.2,11.7l0.2,11.7l-1,2.9c-0.5,1.6 -1,3.1 -1.2,3.3c0,0.2 -0.1,-5.3 -0.1,-12.7z" class="st2" id="path3069-5_2_"/>
    <path d="m70.909731,22.577139c-0.7,-0.4 -2.8,-1.1 -6.2,-2c-3.7,-1 -4.6,-1.4 -5,-2c-0.5,-1 -2,-9.7 -1.7,-10.5c0.2,-0.6 1,-0.5 3,0.2c4,1.6 6.6,3.6 8.1,6.4c0.8,1.4 2.2,5.2 2.5,6.7c0.3,0.8 -0.1,1.5 -0.7,1.2l0,0l0,0z" class="st3" id="path3071-3_2_"/>
    <path d="m11.409731,22.877139c-0.5,-1.3 0.3,-4.9 1.7,-7.8c1.7,-3.6 5.4,-6.6 9,-7.3c1.1,-0.2 1.4,-0.2 1.8,0.1c0.7,0.5 0.8,1 0.4,3.8c-0.6,5.2 -1.3,6.8 -3.1,7.8c-0.9,0.5 -9.1,3.8 -9.5,3.8c-0.1,0 -0.2,-0.2 -0.3,-0.4l0,0z" class="st4" id="path3073-2_2_"/>
   </g>
   <g id="blue-car-blinker-left">
    <path d="m18.66206,6.077139c2.1,-1.6 4.5,-2.8 7,-3.7c3.2,-1.2 6.5,-1.8 9.9,-2.1c4.8,-0.4 9.8,-0.4 14.6,0.4c3.8,0.6 7.6,1.7 11.1,3.3c2.9,1.3 5.6,3.2 8,5.3c1.7,1.4 3.2,3.1 4.5,5c1.2,1.8 2.1,3.9 2.8,6c0.9,2.7 1.1,5.6 1.5,8.4c0.6,3.6 0.3,12.4 -0.3,16.1c-0.2,1.3 -0.5,6.4 -0.6,11.1l-0.2,8.7l1.2,0.4c1.4,0.6 2.7,1.7 3.7,2.8c1.7,1.8 2.2,3.7 1.1,4.1c-0.8,0.3 -5.5,-2.2 -5.9,-3.1c-0.2,-0.6 -0.9,18.2 -0.7,22.4c0.1,3.9 0.5,6.3 0.8,9.5c0.3,4.1 0.8,8 1,11.9c0.2,1.6 0.4,4 0.5,4.7c1,8.8 1.1,11.7 1,19.1c-0.1,6.7 -0.6,9.2 -1.1,10.8c-0.7,2.1 -2.5,6.9 -4.9,10c-1.4,1.8 -3.2,3.3 -5.2,4.5c-1.2,0.8 -2.6,1.3 -3.9,1.8c-4,1.4 -9.3,2.7 -12.4,3.1c-3.8,0.5 -9.2,0.6 -9.8,0.5l-2.8,0c-0.6,0 -2.9,-0.3 -4.5,-0.4c-1,0 -2.6,-0.2 -3.5,-0.4c-0.9,-0.2 -2.8,-0.6 -4.2,-0.8c-1.3,-0.1 -11.9,-3.6 -13.9,-5.5c-1.3,-0.8 -3,-2.2 -3.5,-3.7c-3.1,-4.1 -4.9,-9.1 -5.6,-14.1c-0.6,-4.1 0.4,-18.6 1.2,-27.8c0.4,-4.3 1.5,-8.5 1.7,-12.9c0.4,-8.2 0.3,-13.2 0.2,-19.8c0,-2.5 -0.1,-4.8 -0.2,-7.4c-0.1,-2.6 -0.2,-4.8 -0.3,-4.8s-1.3,0.5 -2.7,1.2c-3.5,1.7 -4.2,1.7 -3.9,0c0.4,-2.1 3.9,-5.3 5.8,-5.2c0.8,0 0.5,-3 0.6,-4.6c0.1,-1.4 0,-4.3 0,-4.3c-0.2,-5.2 -0.7,-10 -1.3,-13.6c-0.8,-5.1 -0.2,-15.4 1.3,-19.8c0.6,-1.9 1.9,-4.5 3.2,-6.6c2.5,-4.6 5.5,-8.2 8.7,-10.5l0,0z" id="path2995-4-8-2_1_"/>
    <path d="m73.36206,63.577139c-0.7,-0.4 -1.8,-2.2 -3.3,-5.5c-0.8,-1.8 -1.7,-3.6 -2.1,-4c-0.5,-0.7 -1.1,-2.9 -4.3,-17.2c-2,-9 -3.7,-16.5 -3.6,-16.5c0.3,-0.3 9.5,2.5 12.3,3.8l1.4,0.6l0.3,2.1c0.6,4.3 0.8,11.6 0.7,23.8c-0.1,6.7 -0.2,12.4 -0.3,12.7c-0.2,0.5 -0.5,0.5 -1.1,0.2l0,0z" class="st0" id="path3029-98_1_"/>
    <path d="m9.56206,63.377139c-0.2,-1.1 -0.7,-18.7 -0.7,-25.8c0,-7.3 0.2,-9.5 1,-11.3c0.2,-0.5 0.6,-1 0.9,-1.2s2.3,-0.9 4.6,-1.6s4.9,-1.8 5.9,-2.3c1.7,-0.8 1.8,-0.9 1.7,-0.4c-0.1,0.3 -1.5,7.2 -3.1,15.3c-2.7,13.2 -3.1,14.9 -3.7,15.7c-1,1.5 -2.1,3.8 -3.2,6.7c-1.3,3.4 -1.6,4.1 -2.6,4.9l-0.8,0.6l0,-0.6l0,0l0,0z" class="st0" id="path3031-5_1_"/>
    <path d="m65.86206,8.577139c-2.8,-1.6 -5.5,-2.4 -7.6,-2.1c-1.2,0.2 -1.8,0.7 -1.8,1.6l0,0.7l-2.2,-0.5c-3.5,-0.8 -6.8,-1.1 -12.7,-1.1c-5.8,0 -8,0.2 -12.3,1.1c-1.4,0.3 -2.5,0.6 -2.6,0.6s-0.1,-0.2 -0.1,-0.4c0,-0.8 -0.5,-1.9 -1,-2.1c-0.8,-0.3 -4.4,0.2 -5.9,0.8c-0.8,0.3 -1.4,0.5 -1.4,0.5c-0.2,-0.2 3.7,-2.8 5.3,-3.6c6.1,-2.9 17.1,-4.1 24.7,-2.8c6.8,1.2 16.3,5 18.7,7.4c0.8,0.8 0.5,0.8 -1.1,-0.1l0,0l0,0z" class="st0" id="path3033-0_1_"/>
    <path d="m23.86206,20.377139c0.2,-0.8 0.4,-1.6 0.5,-1.8s0.5,-1.7 0.8,-3.4c0.3,-1.7 0.7,-3.4 0.9,-3.7c0.4,-0.9 1.2,-1.2 4.3,-1.8c4,-0.8 10.2,-1.2 16.2,-0.8c5,0.3 6.7,0.5 8.9,1.1l1.3,0.4l0.4,1.7c1.5,7.2 2,9.4 1.9,9.5c0,0 -0.6,-0.1 -1.3,-0.3c-8.4,-2.9 -22.7,-2.8 -32.3,0.2c-0.8,0.3 -1.5,0.5 -1.6,0.5c-0.2,-0.1 -0.2,-0.8 0,-1.6l0,0z" class="st0" id="path3035-9_1_"/>
    <path d="m63.66206,50.077139c-3.2,-3.2 -8,-7 -13.8,-10.6c-3.8,-2.4 -4.3,-2.6 -6.6,-2.8c-2.3,-0.2 -3.9,0.3 -7.7,2.1c-4.5,2.2 -9.3,5.1 -14.9,9c-1.2,0.9 -2.3,1.6 -2.3,1.5c-0.1,-0.1 3.4,-17.4 3.6,-17.7c0.2,-0.3 3.2,-1.3 5.8,-1.9c8.1,-1.8 20,-1.3 32.4,1.4l1.1,0.2l0.3,1.5c1.5,6.5 3.8,18.2 3.7,18.5c0.1,0.3 -0.7,-0.3 -1.6,-1.2l0,0l0,0z" class="st0" id="path3037-2_1_"/>
    <path d="m59.36206,29.277139c-2,-0.6 -6.3,-1.4 -9.2,-1.8c-2.3,-0.3 -4.3,-0.4 -10.3,-0.4c-7.8,0 -10.3,0.2 -15.5,1.5c-1.1,0.3 -2,0.4 -2,0.4c0,0 0,-0.3 0.1,-0.6c0.2,-0.9 5.4,-2.2 11.4,-2.9c4.3,-0.5 14.1,-0.3 18.4,0.3c4.4,0.7 7.8,1.6 8.2,2.3c0.2,0.4 0.4,1.7 0.2,1.6c-0.1,-0.1 -0.7,-0.2 -1.3,-0.4l0,0l0,0z" class="st0" id="path3039-8_1_"/>
    <path d="m23.06206,24.977139c0.1,-0.4 0.2,-0.8 0.2,-0.8c0,-0.1 2.5,-0.8 4.8,-1.4c8.4,-2.1 16.8,-2.5 24.1,-1c2.8,0.6 7,1.8 7.3,2.1c0.1,0.1 0.3,0.6 0.4,1l0.2,0.7l-2.1,-0.6c-8.7,-2.6 -22,-2.5 -32.7,0.2c-2.5,0.7 -2.5,0.7 -2.2,-0.2l0,0z" class="st0" id="path3041-3_1_"/>
    <path d="m58.56206,163.477139c0,-0.7 1.4,-11.1 1.5,-11.3c0.4,-0.7 3.3,-22.8 4,-30.6c0.2,-2.1 0.4,-3.2 1.2,-5.7c1.1,-3.4 1.9,-7.6 2.1,-11.7c0.1,-2.1 0.2,-2.6 0.7,-3.3c0.3,-0.4 1.1,-2.4 1.9,-4.4l1.4,-3.6l0,-8.2c0,-4.5 -0.1,-10.6 -0.2,-13.5c-0.1,-3.4 -0.1,-5.5 0.1,-5.8c0.3,-0.6 3.4,-0.6 3.6,0c0.2,0.4 0,8.2 -0.3,14.1c-0.5,8.9 -0.2,16.3 0.9,29.3c1.3,14.5 1.4,22.3 0.4,30.9c-0.8,7.2 -1.8,11.2 -4,15.4c-1.1,2.1 -4.5,5.2 -7.5,6.7c-0.9,0.4 -5.1,1.9 -5.6,1.9c-0.1,0.1 -0.2,0 -0.2,-0.2l0,0zm4,-11.5c0.8,-1.8 3.2,-10.1 5.2,-18c2.6,-10.3 4.3,-15.7 4.8,-15.8c0.9,-0.2 1,0.5 1,6c0,3.3 0.1,5.8 0.3,6.5l0.3,1.2l0.2,-1.2c0.1,-0.7 0.3,-4.6 0.4,-8.7c0.3,-8.3 0.1,-16 -0.6,-19.1c-0.6,-2.8 -0.9,-2.2 -1.7,2.7c-1,6.3 -8,36.8 -8.6,37.3c-0.2,0.1 -0.1,-0.5 0.5,-4.6c0.5,-3.7 1.5,-12.3 1.6,-14.4c0.1,-1.7 0.1,-1.8 -0.2,-1.1c-0.7,1.4 -4.4,26.8 -4.5,29.9c0.1,1.1 0.7,0.7 1.3,-0.7l0,0l0,0z" class="st0" id="path3043-0_1_"/>
    <path d="m23.36206,162.877139c-4,-1.2 -6.4,-2.4 -9.3,-4.6c-1.6,-1.2 -1.8,-1.5 -2.6,-3.2c-3.2,-7 -3.7,-9.6 -3.9,-21.1c-0.2,-7.4 0.1,-13.2 0.9,-23.7c0.3,-3.7 0.6,-7.2 0.6,-7.7c0,-0.6 0.1,3.4 0.1,8.9c0,8.8 0.1,10.3 0.5,13.5c0.3,2 0.5,3.6 0.6,3.7c0.1,0.1 0.2,-1.9 0.3,-4.4c0.2,-4.4 0.4,-6.5 0.7,-6.8c0.1,-0.1 0.3,0 0.5,0.2c0.3,0.3 0.8,2.5 1.6,7c1.9,10.3 2.7,13.5 5.1,21c1.5,4.7 3.2,8.1 4,8.1c0.4,0 0.4,-0.2 -0.2,-2.8c-0.3,-1.2 -0.8,-5.2 -1.3,-8.9c-0.9,-7.8 -1.7,-12.2 -2.7,-16.2c-1.4,-5.6 -1.4,-2.7 -0.1,7.3c0.4,3.3 1,7.3 1.3,8.9c0.3,1.7 0.4,3.2 0.4,3.4s-0.8,-2.3 -1.7,-5.5c-1.4,-5.1 -1.8,-7 -2.9,-13.4c-1.7,-10.5 -4.4,-27.2 -4.4,-27.3c0,-0.1 -0.2,-0.1 -0.4,-0.1c-0.5,0 -0.7,0.2 -0.9,1.2c-0.1,0.4 -0.1,-0.6 0,-2.3c0.2,-4 0.1,-16.8 -0.2,-23.7c-0.1,-3.1 -0.2,-6.3 -0.1,-7.1l0.1,-1.4l1.4,-0.4c0.7,-0.2 1.4,-0.4 1.5,-0.3c0.1,0.1 0.1,3.6 0,7.7c-0.1,9.6 -0.1,14.8 0.2,17.1c0.3,2.3 1.4,6.9 2,8.3c0.4,0.9 1.3,4.8 2.4,10.7c0.2,1 0.9,3.5 1.5,5.5c1,3 1.2,4 1.4,6.5c0.1,1.6 0.3,3 0.3,3.1c0.1,0.1 0.3,2 0.4,4.2c0.5,5.7 0.5,5.7 1.7,13.8c1.7,11.1 2.7,16.9 3.2,19.1c0.2,1.1 0.5,2.1 0.5,2.2c0.1,0.3 -0.4,0.2 -2.5,-0.5l0,0l0,0z" class="st0" id="path3045-9_1_"/>
    <path d="m60.16206,116.177139c-2.4,-0.3 -31.6,-0.8 -34.8,-0.6c-1.6,0.1 -3.3,0.2 -3.8,0.2l-0.9,0l-0.5,-2.1c-0.9,-3.5 -1.6,-7.2 -2,-10.3c-0.3,-2.4 -0.4,-5.2 -0.3,-15.9c0,-12.1 0.1,-13.8 0.6,-13.3c0.1,0.1 0.2,3 0.3,6.6c0.3,9.2 0.7,17.1 1.4,23c0.5,4.5 1.5,8.6 1.2,4.9c-0.1,-0.9 -0.3,-4.4 -0.6,-7.7c-0.4,-5.1 -0.5,-8.1 -0.5,-17l0,-10.8l1.3,-0.2c2,-0.3 26.4,-0.4 34.6,-0.2l7.6,0.2l0.3,0.7c0.4,0.8 0.4,1.6 0,10.6c-0.4,9.2 -0.6,13.4 -1.2,20.4c-0.3,3.3 -0.4,6.2 -0.4,6.5c0.1,0.9 0.6,-1.4 1.2,-5.9c0.9,-6.9 1.4,-12.7 1.7,-22.5c0.1,-4 0.3,-7.4 0.5,-7.6c0.1,-0.2 0.2,1.7 0.1,5c-0.1,2.9 -0.2,8.9 -0.2,13.2c-0.2,11.9 -0.9,18.4 -2.5,22.1c-0.4,1 -0.3,1 -3.1,0.7l0,0l0,0z" class="st0" id="path3047-3_1_"/>
    <path d="m37.46206,165.577139c-3.2,-0.2 -7.7,-0.9 -9.7,-1.4c-1,-0.3 -1,-0.3 -1.4,-1.9c-0.6,-2.6 -0.9,-4.4 -0.8,-5c0.1,-0.6 0.2,-0.6 1.2,-0.4c3.4,0.5 4.8,0.6 10,0.8c6.2,0.2 14.4,0 16.7,-0.4c0.8,-0.1 2.2,-0.5 3,-0.8l1.6,-0.5l0,1.5c0,1.4 -0.3,4.3 -0.6,6.1c-0.1,0.7 -0.2,0.7 -2.1,1.1c-5.5,0.9 -11.8,1.3 -17.9,0.9l0,0l0,0z" class="st0" id="path3049-39_1_"/>
    <path d="m8.26206,150.977139c-0.7,-0.8 -1.9,-3.8 -2.3,-5.5c-0.7,-3 -1,-7.6 -0.8,-13.7c0.2,-9 1.1,-19.9 1.8,-22.7c0.9,-3.7 1.3,-13.2 1.2,-28.4c-0.1,-7.3 -0.1,-12.5 0.1,-12.3c0.1,0.2 0.2,7.4 0.3,16.1l0.1,15.7l-0.7,8.1c-1.2,13.3 -1.3,15.6 -1.1,24c0.2,9 0.6,13.6 1.5,16.8c0.5,2 0.5,2.6 -0.1,1.9l0,0l0,0z" class="st1" id="path3051-2_1_"/>
    <path d="m74.96206,151.277139c0,-0.1 0.3,-1.6 0.7,-3.2c0.9,-4.2 1.3,-6.7 1.7,-12.8c0.5,-7.1 0.2,-14.1 -1.4,-30l-0.8,-8.1l0.2,-12.2c0.1,-6.7 0.2,-13.3 0.3,-14.6c0.1,-1.3 0.1,4 0.1,11.7c0,9.9 0.1,15 0.3,17c0.2,1.6 0.5,5.5 0.9,8.7c0.3,3.2 0.7,7.3 0.9,9.1s0.5,4.2 0.6,5.2c0.3,2.8 0.3,15 0,18.9c-0.3,3.6 -0.7,5.1 -2.2,8.5c-1,1.9 -1.3,2.4 -1.3,1.8l0,0z" class="st1" id="path3053-8_1_"/>
    <path d="m80.76206,70.177139c-0.5,-0.2 -1.5,-1 -2.2,-1.7c-1,-1 -1.3,-1.4 -1.3,-1.8c0.2,-1.2 2.3,-0.4 4,1.5c0.9,1.1 1,1.3 0.8,2c-0.1,0.5 -0.2,0.5 -1.3,0z" class="st1" id="path3055-5_1_"/>
    <path d="m75.66206,59.477139c0,-2.2 0.1,-8.4 0.2,-13.9c0.2,-10.2 0.1,-13.8 -0.6,-18.2c-0.5,-3.2 -0.9,-4.6 -2.1,-7.3c-1.2,-2.6 -2.4,-6.1 -2.2,-6.3c0.2,-0.2 2.4,3.1 3.2,4.8c0.8,1.7 1.9,5.5 2.5,8.5c0.6,3 0.7,8.7 0.3,14c-0.2,2.5 -0.5,8.5 -0.6,13.2c-0.1,4.8 -0.3,8.8 -0.5,8.9c-0.1,0.2 -0.2,-1.2 -0.2,-3.7l0,0l0,0z" class="st1" id="path3057-3_1_"/>
    <path d="m7.96206,60.677139c-0.1,-1.5 -0.3,-4.5 -0.4,-6.6c-0.1,-2.1 -0.4,-5.6 -0.7,-7.6s-0.5,-6 -0.6,-8.8c-0.2,-6.4 0.2,-9.9 1.6,-13.9c0.9,-2.7 3.5,-8.5 3.8,-8.2c0.1,0.1 -0.7,2.5 -1.6,5.4c-2.4,7.2 -2.5,7.9 -2.3,17.7c0.1,4.3 0.2,9.5 0.4,11.7c0.1,2.2 0.2,6 0.2,8.5l-0.1,4.6l-0.3,-2.8z" class="st1" id="path3059-3_1_"/>
    <path d="m1.66206,69.977139c-0.4,-0.8 0.9,-2.3 2.9,-3.3c1.7,-0.9 2.8,0.2 1.5,1.4c-0.7,0.6 -2.6,1.8 -3.6,2.1c-0.5,0.2 -0.6,0.1 -0.8,-0.2l0,0z" class="st1" id="path3061-3_1_"/>
    <path d="m38.06206,154.077139c-5.2,-0.5 -9.4,-1.3 -10,-2c-0.1,-0.2 -0.5,-1.1 -0.8,-2.1c-1.2,-3.7 -2,-7.8 -2.5,-13.3c-0.5,-4.9 -1.4,-18.7 -1.2,-18.9c0.2,-0.2 35.1,-0.2 35.9,0l0.6,0.2l-0.3,5.9c-0.5,11.2 -2.2,24.7 -3.4,28c-0.4,1.1 -1.1,1.5 -3.3,1.9c-1.4,0.2 -12.9,0.5 -15,0.3l0,0l0,0z" class="st1" id="path3063-40_1_"/>
    <path d="m19.16206,69.677139c-1.8,-0.3 -3.1,-2.4 -3.8,-6.3c-0.4,-2 -0.3,-3.4 0.4,-5.4c1.1,-3.1 3.4,-6 6.9,-8.5c2,-1.4 15.6,-9.5 17,-10.1c0.7,-0.3 1.5,-0.4 2.8,-0.4c1.6,0 1.9,0.1 3.5,0.9c4,2.1 12.1,8.5 18.3,14.6c2.4,2.4 2.8,2.9 3.1,3.9c0.4,1.6 0.9,5.8 0.8,7.1c-0.2,1.7 -1,3.2 -2.1,3.8c-0.9,0.4 -1.4,0.5 -23.3,0.5c-12.5,0.1 -23,0 -23.6,-0.1l0,0l0,0z" class="st2" id="path3065-6_1_"/>
    <path d="m14.76206,93.377139l-0.9,-2.6l0.1,-10.7c0,-5.9 0.1,-11.1 0.2,-11.5l0.1,-0.7l0.9,1.3l0.9,1.3l0,7.8c0,4.3 -0.1,10 -0.2,12.8l-0.2,5l-0.9,-2.7z" class="st2" id="path3067-06_1_"/>
    <path d="m67.66206,84.777139c0,-11.5 0,-13.1 0.3,-13.5c0.2,-0.2 0.6,-1.1 1,-1.9l0.6,-1.5l0.2,11.7l0.2,11.7l-1,2.9c-0.5,1.6 -1,3.1 -1.2,3.3c0,0.2 -0.1,-5.3 -0.1,-12.7z" class="st2" id="path3069-5_1_"/>
    <path d="m71.06206,22.577139c-0.7,-0.4 -2.8,-1.1 -6.2,-2c-3.7,-1 -4.6,-1.4 -5,-2c-0.5,-1 -2,-9.7 -1.7,-10.5c0.2,-0.6 1,-0.5 3,0.2c4,1.6 6.6,3.6 8.1,6.4c0.8,1.4 2.2,5.2 2.5,6.7c0.3,0.8 -0.1,1.5 -0.7,1.2l0,0l0,0z" class="st4" id="path3071-3_1_"/>
    <path d="m11.56206,22.877139c-0.5,-1.3 0.3,-4.9 1.7,-7.8c1.7,-3.6 5.4,-6.6 9,-7.3c1.1,-0.2 1.4,-0.2 1.8,0.1c0.7,0.5 0.8,1 0.4,3.8c-0.6,5.2 -1.3,6.8 -3.1,7.8c-0.9,0.5 -9.1,3.8 -9.5,3.8c-0.1,0 -0.2,-0.2 -0.3,-0.4l0,0z" class="st3" id="path3073-2_1_"/>
   </g>
   <g id="blue-car-blinker-off">
    <path d="m18.481243,6.077139c2.1,-1.6 4.5,-2.8 7,-3.7c3.2,-1.2 6.5,-1.8 9.9,-2.1c4.8,-0.4 9.8,-0.4 14.6,0.4c3.8,0.6 7.6,1.7 11.1,3.3c2.9,1.3 5.6,3.2 8,5.3c1.7,1.4 3.2,3.1 4.5,5c1.2,1.8 2.1,3.9 2.8,6c0.9,2.7 1.1,5.6 1.5,8.4c0.6,3.6 0.3,12.4 -0.3,16.1c-0.2,1.3 -0.5,6.4 -0.6,11.1l-0.2,8.7l1.2,0.4c1.4,0.6 2.7,1.7 3.7,2.8c1.7,1.8 2.2,3.7 1.1,4.1c-0.8,0.3 -5.5,-2.2 -5.9,-3.1c-0.2,-0.6 -0.9,18.2 -0.7,22.4c0.1,3.9 0.5,6.3 0.8,9.5c0.3,4.1 0.8,8 1,11.9c0.2,1.6 0.4,4 0.5,4.7c1,8.8 1.1,11.7 1,19.1c-0.1,6.7 -0.6,9.2 -1.1,10.8c-0.7,2.1 -2.5,6.9 -4.9,10c-1.4,1.8 -3.2,3.3 -5.2,4.5c-1.2,0.8 -2.6,1.3 -3.9,1.8c-4,1.4 -9.3,2.7 -12.4,3.1c-3.8,0.5 -9.2,0.6 -9.8,0.5l-2.8,0c-0.6,0 -2.9,-0.3 -4.5,-0.4c-1,0 -2.6,-0.2 -3.5,-0.4c-0.9,-0.2 -2.8,-0.6 -4.2,-0.8c-1.3,-0.1 -11.9,-3.6 -13.9,-5.5c-1.3,-0.8 -3,-2.2 -3.5,-3.7c-3.1,-4.1 -4.9,-9.1 -5.6,-14.1c-0.6,-4.1 0.4,-18.6 1.2,-27.8c0.4,-4.3 1.5,-8.5 1.7,-12.9c0.4,-8.2 0.3,-13.2 0.2,-19.8c0,-2.5 -0.1,-4.8 -0.2,-7.4c-0.1,-2.6 -0.2,-4.8 -0.3,-4.8s-1.3,0.5 -2.7,1.2c-3.5,1.7 -4.2,1.7 -3.9,0c0.4,-2.1 3.9,-5.3 5.8,-5.2c0.8,0 0.5,-3 0.6,-4.6c0.1,-1.4 0,-4.3 0,-4.3c-0.2,-5.2 -0.7,-10 -1.3,-13.6c-0.8,-5.1 -0.2,-15.4 1.3,-19.8c0.6,-1.9 1.9,-4.5 3.2,-6.6c2.5,-4.6 5.5,-8.2 8.7,-10.5l0,0z" id="path2995-4-8-2"/>
    <path d="m73.181243,63.577139c-0.7,-0.4 -1.8,-2.2 -3.3,-5.5c-0.8,-1.8 -1.7,-3.6 -2.1,-4c-0.5,-0.7 -1.1,-2.9 -4.3,-17.2c-2,-9 -3.7,-16.5 -3.6,-16.5c0.3,-0.3 9.5,2.5 12.3,3.8l1.4,0.6l0.3,2.1c0.6,4.3 0.8,11.6 0.7,23.8c-0.1,6.7 -0.2,12.4 -0.3,12.7c-0.2,0.5 -0.5,0.5 -1.1,0.2l0,0z" class="st0" id="path3029-98"/>
    <path d="m9.381243,63.377139c-0.2,-1.1 -0.7,-18.7 -0.7,-25.8c0,-7.3 0.2,-9.5 1,-11.3c0.2,-0.5 0.6,-1 0.9,-1.2s2.3,-0.9 4.6,-1.6s4.9,-1.8 5.9,-2.3c1.7,-0.8 1.8,-0.9 1.7,-0.4c-0.1,0.3 -1.5,7.2 -3.1,15.3c-2.7,13.2 -3.1,14.9 -3.7,15.7c-1,1.5 -2.1,3.8 -3.2,6.7c-1.3,3.4 -1.6,4.1 -2.6,4.9l-0.8,0.6l0,-0.6l0,0l0,0z" class="st0" id="path3031-5"/>
    <path d="m65.681243,8.577139c-2.8,-1.6 -5.5,-2.4 -7.6,-2.1c-1.2,0.2 -1.8,0.7 -1.8,1.6l0,0.7l-2.2,-0.5c-3.5,-0.8 -6.8,-1.1 -12.7,-1.1c-5.8,0 -8,0.2 -12.3,1.1c-1.4,0.3 -2.5,0.6 -2.6,0.6s-0.1,-0.2 -0.1,-0.4c0,-0.8 -0.5,-1.9 -1,-2.1c-0.8,-0.3 -4.4,0.2 -5.9,0.8c-0.8,0.3 -1.4,0.5 -1.4,0.5c-0.2,-0.2 3.7,-2.8 5.3,-3.6c6.1,-2.9 17.1,-4.1 24.7,-2.8c6.8,1.2 16.3,5 18.7,7.4c0.8,0.8 0.5,0.8 -1.1,-0.1l0,0l0,0z" class="st0" id="path3033-0"/>
    <path d="m23.681243,20.377139c0.2,-0.8 0.4,-1.6 0.5,-1.8s0.5,-1.7 0.8,-3.4c0.3,-1.7 0.7,-3.4 0.9,-3.7c0.4,-0.9 1.2,-1.2 4.3,-1.8c4,-0.8 10.2,-1.2 16.2,-0.8c5,0.3 6.7,0.5 8.9,1.1l1.3,0.4l0.4,1.7c1.5,7.2 2,9.4 1.9,9.5c0,0 -0.6,-0.1 -1.3,-0.3c-8.4,-2.9 -22.7,-2.8 -32.3,0.2c-0.8,0.3 -1.5,0.5 -1.6,0.5c-0.2,-0.1 -0.2,-0.8 0,-1.6l0,0z" class="st0" id="path3035-9"/>
    <path d="m63.481243,50.077139c-3.2,-3.2 -8,-7 -13.8,-10.6c-3.8,-2.4 -4.3,-2.6 -6.6,-2.8c-2.3,-0.2 -3.9,0.3 -7.7,2.1c-4.5,2.2 -9.3,5.1 -14.9,9c-1.2,0.9 -2.3,1.6 -2.3,1.5c-0.1,-0.1 3.4,-17.4 3.6,-17.7c0.2,-0.3 3.2,-1.3 5.8,-1.9c8.1,-1.8 20,-1.3 32.4,1.4l1.1,0.2l0.3,1.5c1.5,6.5 3.8,18.2 3.7,18.5c0.1,0.3 -0.7,-0.3 -1.6,-1.2l0,0l0,0z" class="st0" id="path3037-2"/>
    <path d="m59.181243,29.277139c-2,-0.6 -6.3,-1.4 -9.2,-1.8c-2.3,-0.3 -4.3,-0.4 -10.3,-0.4c-7.8,0 -10.3,0.2 -15.5,1.5c-1.1,0.3 -2,0.4 -2,0.4c0,0 0,-0.3 0.1,-0.6c0.2,-0.9 5.4,-2.2 11.4,-2.9c4.3,-0.5 14.1,-0.3 18.4,0.3c4.4,0.7 7.8,1.6 8.2,2.3c0.2,0.4 0.4,1.7 0.2,1.6c-0.1,-0.1 -0.7,-0.2 -1.3,-0.4l0,0l0,0z" class="st0" id="path3039-8"/>
    <path d="m22.881243,24.977139c0.1,-0.4 0.2,-0.8 0.2,-0.8c0,-0.1 2.5,-0.8 4.8,-1.4c8.4,-2.1 16.8,-2.5 24.1,-1c2.8,0.6 7,1.8 7.3,2.1c0.1,0.1 0.3,0.6 0.4,1l0.2,0.7l-2.1,-0.6c-8.7,-2.6 -22,-2.5 -32.7,0.2c-2.5,0.7 -2.5,0.7 -2.2,-0.2l0,0z" class="st0" id="path3041-3"/>
    <path d="m58.381243,163.477139c0,-0.7 1.4,-11.1 1.5,-11.3c0.4,-0.7 3.3,-22.8 4,-30.6c0.2,-2.1 0.4,-3.2 1.2,-5.7c1.1,-3.4 1.9,-7.6 2.1,-11.7c0.1,-2.1 0.2,-2.6 0.7,-3.3c0.3,-0.4 1.1,-2.4 1.9,-4.4l1.4,-3.6l0,-8.2c0,-4.5 -0.1,-10.6 -0.2,-13.5c-0.1,-3.4 -0.1,-5.5 0.1,-5.8c0.3,-0.6 3.4,-0.6 3.6,0c0.2,0.4 0,8.2 -0.3,14.1c-0.5,8.9 -0.2,16.3 0.9,29.3c1.3,14.5 1.4,22.3 0.4,30.9c-0.8,7.2 -1.8,11.2 -4,15.4c-1.1,2.1 -4.5,5.2 -7.5,6.7c-0.9,0.4 -5.1,1.9 -5.6,1.9c-0.1,0.1 -0.2,0 -0.2,-0.2l0,0zm4,-11.5c0.8,-1.8 3.2,-10.1 5.2,-18c2.6,-10.3 4.3,-15.7 4.8,-15.8c0.9,-0.2 1,0.5 1,6c0,3.3 0.1,5.8 0.3,6.5l0.3,1.2l0.2,-1.2c0.1,-0.7 0.3,-4.6 0.4,-8.7c0.3,-8.3 0.1,-16 -0.6,-19.1c-0.6,-2.8 -0.9,-2.2 -1.7,2.7c-1,6.3 -8,36.8 -8.6,37.3c-0.2,0.1 -0.1,-0.5 0.5,-4.6c0.5,-3.7 1.5,-12.3 1.6,-14.4c0.1,-1.7 0.1,-1.8 -0.2,-1.1c-0.7,1.4 -4.4,26.8 -4.5,29.9c0.1,1.1 0.7,0.7 1.3,-0.7l0,0l0,0z" class="st0" id="path3043-0"/>
    <path d="m23.181243,162.877139c-4,-1.2 -6.4,-2.4 -9.3,-4.6c-1.6,-1.2 -1.8,-1.5 -2.6,-3.2c-3.2,-7 -3.7,-9.6 -3.9,-21.1c-0.2,-7.4 0.1,-13.2 0.9,-23.7c0.3,-3.7 0.6,-7.2 0.6,-7.7c0,-0.6 0.1,3.4 0.1,8.9c0,8.8 0.1,10.3 0.5,13.5c0.3,2 0.5,3.6 0.6,3.7c0.1,0.1 0.2,-1.9 0.3,-4.4c0.2,-4.4 0.4,-6.5 0.7,-6.8c0.1,-0.1 0.3,0 0.5,0.2c0.3,0.3 0.8,2.5 1.6,7c1.9,10.3 2.7,13.5 5.1,21c1.5,4.7 3.2,8.1 4,8.1c0.4,0 0.4,-0.2 -0.2,-2.8c-0.3,-1.2 -0.8,-5.2 -1.3,-8.9c-0.9,-7.8 -1.7,-12.2 -2.7,-16.2c-1.4,-5.6 -1.4,-2.7 -0.1,7.3c0.4,3.3 1,7.3 1.3,8.9c0.3,1.7 0.4,3.2 0.4,3.4s-0.8,-2.3 -1.7,-5.5c-1.4,-5.1 -1.8,-7 -2.9,-13.4c-1.7,-10.5 -4.4,-27.2 -4.4,-27.3c0,-0.1 -0.2,-0.1 -0.4,-0.1c-0.5,0 -0.7,0.2 -0.9,1.2c-0.1,0.4 -0.1,-0.6 0,-2.3c0.2,-4 0.1,-16.8 -0.2,-23.7c-0.1,-3.1 -0.2,-6.3 -0.1,-7.1l0.1,-1.4l1.4,-0.4c0.7,-0.2 1.4,-0.4 1.5,-0.3c0.1,0.1 0.1,3.6 0,7.7c-0.1,9.6 -0.1,14.8 0.2,17.1c0.3,2.3 1.4,6.9 2,8.3c0.4,0.9 1.3,4.8 2.4,10.7c0.2,1 0.9,3.5 1.5,5.5c1,3 1.2,4 1.4,6.5c0.1,1.6 0.3,3 0.3,3.1c0.1,0.1 0.3,2 0.4,4.2c0.5,5.7 0.5,5.7 1.7,13.8c1.7,11.1 2.7,16.9 3.2,19.1c0.2,1.1 0.5,2.1 0.5,2.2c0.1,0.3 -0.4,0.2 -2.5,-0.5l0,0l0,0z" class="st0" id="path3045-9"/>
    <path d="m59.981243,116.177139c-2.4,-0.3 -31.6,-0.8 -34.8,-0.6c-1.6,0.1 -3.3,0.2 -3.8,0.2l-0.9,0l-0.5,-2.1c-0.9,-3.5 -1.6,-7.2 -2,-10.3c-0.3,-2.4 -0.4,-5.2 -0.3,-15.9c0,-12.1 0.1,-13.8 0.6,-13.3c0.1,0.1 0.2,3 0.3,6.6c0.3,9.2 0.7,17.1 1.4,23c0.5,4.5 1.5,8.6 1.2,4.9c-0.1,-0.9 -0.3,-4.4 -0.6,-7.7c-0.4,-5.1 -0.5,-8.1 -0.5,-17l0,-10.8l1.3,-0.2c2,-0.3 26.4,-0.4 34.6,-0.2l7.6,0.2l0.3,0.7c0.4,0.8 0.4,1.6 0,10.6c-0.4,9.2 -0.6,13.4 -1.2,20.4c-0.3,3.3 -0.4,6.2 -0.4,6.5c0.1,0.9 0.6,-1.4 1.2,-5.9c0.9,-6.9 1.4,-12.7 1.7,-22.5c0.1,-4 0.3,-7.4 0.5,-7.6c0.1,-0.2 0.2,1.7 0.1,5c-0.1,2.9 -0.2,8.9 -0.2,13.2c-0.2,11.9 -0.9,18.4 -2.5,22.1c-0.4,1 -0.3,1 -3.1,0.7l0,0l0,0z" class="st0" id="path3047-3"/>
    <path d="m37.281243,165.577139c-3.2,-0.2 -7.7,-0.9 -9.7,-1.4c-1,-0.3 -1,-0.3 -1.4,-1.9c-0.6,-2.6 -0.9,-4.4 -0.8,-5c0.1,-0.6 0.2,-0.6 1.2,-0.4c3.4,0.5 4.8,0.6 10,0.8c6.2,0.2 14.4,0 16.7,-0.4c0.8,-0.1 2.2,-0.5 3,-0.8l1.6,-0.5l0,1.5c0,1.4 -0.3,4.3 -0.6,6.1c-0.1,0.7 -0.2,0.7 -2.1,1.1c-5.5,0.9 -11.8,1.3 -17.9,0.9l0,0l0,0z" class="st0" id="path3049-39"/>
    <path d="m8.081243,150.977139c-0.7,-0.8 -1.9,-3.8 -2.3,-5.5c-0.7,-3 -1,-7.6 -0.8,-13.7c0.2,-9 1.1,-19.9 1.8,-22.7c0.9,-3.7 1.3,-13.2 1.2,-28.4c-0.1,-7.3 -0.1,-12.5 0.1,-12.3c0.1,0.2 0.2,7.4 0.3,16.1l0.1,15.7l-0.7,8.1c-1.2,13.3 -1.3,15.6 -1.1,24c0.2,9 0.6,13.6 1.5,16.8c0.5,2 0.5,2.6 -0.1,1.9l0,0l0,0z" class="st1" id="path3051-2"/>
    <path d="m74.781243,151.277139c0,-0.1 0.3,-1.6 0.7,-3.2c0.9,-4.2 1.3,-6.7 1.7,-12.8c0.5,-7.1 0.2,-14.1 -1.4,-30l-0.8,-8.1l0.2,-12.2c0.1,-6.7 0.2,-13.3 0.3,-14.6c0.1,-1.3 0.1,4 0.1,11.7c0,9.9 0.1,15 0.3,17c0.2,1.6 0.5,5.5 0.9,8.7c0.3,3.2 0.7,7.3 0.9,9.1s0.5,4.2 0.6,5.2c0.3,2.8 0.3,15 0,18.9c-0.3,3.6 -0.7,5.1 -2.2,8.5c-1,1.9 -1.3,2.4 -1.3,1.8l0,0z" class="st1" id="path3053-8"/>
    <path d="m80.581243,70.177139c-0.5,-0.2 -1.5,-1 -2.2,-1.7c-1,-1 -1.3,-1.4 -1.3,-1.8c0.2,-1.2 2.3,-0.4 4,1.5c0.9,1.1 1,1.3 0.8,2c-0.1,0.5 -0.2,0.5 -1.3,0z" class="st1" id="path3055-5"/>
    <path d="m75.481243,59.477139c0,-2.2 0.1,-8.4 0.2,-13.9c0.2,-10.2 0.1,-13.8 -0.6,-18.2c-0.5,-3.2 -0.9,-4.6 -2.1,-7.3c-1.2,-2.6 -2.4,-6.1 -2.2,-6.3c0.2,-0.2 2.4,3.1 3.2,4.8c0.8,1.7 1.9,5.5 2.5,8.5c0.6,3 0.7,8.7 0.3,14c-0.2,2.5 -0.5,8.5 -0.6,13.2c-0.1,4.8 -0.3,8.8 -0.5,8.9c-0.1,0.2 -0.2,-1.2 -0.2,-3.7l0,0l0,0z" class="st1" id="path3057-3"/>
    <path d="m7.781243,60.677139c-0.1,-1.5 -0.3,-4.5 -0.4,-6.6c-0.1,-2.1 -0.4,-5.6 -0.7,-7.6s-0.5,-6 -0.6,-8.8c-0.2,-6.4 0.2,-9.9 1.6,-13.9c0.9,-2.7 3.5,-8.5 3.8,-8.2c0.1,0.1 -0.7,2.5 -1.6,5.4c-2.4,7.2 -2.5,7.9 -2.3,17.7c0.1,4.3 0.2,9.5 0.4,11.7c0.1,2.2 0.2,6 0.2,8.5l-0.1,4.6l-0.3,-2.8z" class="st1" id="path3059-3"/>
    <path d="m1.481243,69.977139c-0.4,-0.8 0.9,-2.3 2.9,-3.3c1.7,-0.9 2.8,0.2 1.5,1.4c-0.7,0.6 -2.6,1.8 -3.6,2.1c-0.5,0.2 -0.6,0.1 -0.8,-0.2l0,0z" class="st1" id="path3061-3"/>
    <path d="m37.881243,154.077139c-5.2,-0.5 -9.4,-1.3 -10,-2c-0.1,-0.2 -0.5,-1.1 -0.8,-2.1c-1.2,-3.7 -2,-7.8 -2.5,-13.3c-0.5,-4.9 -1.4,-18.7 -1.2,-18.9c0.2,-0.2 35.1,-0.2 35.9,0l0.6,0.2l-0.3,5.9c-0.5,11.2 -2.2,24.7 -3.4,28c-0.4,1.1 -1.1,1.5 -3.3,1.9c-1.4,0.2 -12.9,0.5 -15,0.3l0,0l0,0z" class="st1" id="path3063-40"/>
    <path d="m18.981243,69.677139c-1.8,-0.3 -3.1,-2.4 -3.8,-6.3c-0.4,-2 -0.3,-3.4 0.4,-5.4c1.1,-3.1 3.4,-6 6.9,-8.5c2,-1.4 15.6,-9.5 17,-10.1c0.7,-0.3 1.5,-0.4 2.8,-0.4c1.6,0 1.9,0.1 3.5,0.9c4,2.1 12.1,8.5 18.3,14.6c2.4,2.4 2.8,2.9 3.1,3.9c0.4,1.6 0.9,5.8 0.8,7.1c-0.2,1.7 -1,3.2 -2.1,3.8c-0.9,0.4 -1.4,0.5 -23.3,0.5c-12.5,0.1 -23,0 -23.6,-0.1l0,0l0,0z" class="st2" id="path3065-6"/>
    <path d="m14.581243,93.377139l-0.9,-2.6l0.1,-10.7c0,-5.9 0.1,-11.1 0.2,-11.5l0.1,-0.7l0.9,1.3l0.9,1.3l0,7.8c0,4.3 -0.1,10 -0.2,12.8l-0.2,5l-0.9,-2.7z" class="st2" id="path3067-06"/>
    <path d="m67.481243,84.777139c0,-11.5 0,-13.1 0.3,-13.5c0.2,-0.2 0.6,-1.1 1,-1.9l0.6,-1.5l0.2,11.7l0.2,11.7l-1,2.9c-0.5,1.6 -1,3.1 -1.2,3.3c0,0.2 -0.1,-5.3 -0.1,-12.7z" class="st2" id="path3069-5"/>
    <path d="m70.881243,22.577139c-0.7,-0.4 -2.8,-1.1 -6.2,-2c-3.7,-1 -4.6,-1.4 -5,-2c-0.5,-1 -2,-9.7 -1.7,-10.5c0.2,-0.6 1,-0.5 3,0.2c4,1.6 6.6,3.6 8.1,6.4c0.8,1.4 2.2,5.2 2.5,6.7c0.3,0.8 -0.1,1.5 -0.7,1.2l0,0l0,0z" class="st4" id="path3071-3"/>
    <path d="m11.381243,22.877139c-0.5,-1.3 0.3,-4.9 1.7,-7.8c1.7,-3.6 5.4,-6.6 9,-7.3c1.1,-0.2 1.4,-0.2 1.8,0.1c0.7,0.5 0.8,1 0.4,3.8c-0.6,5.2 -1.3,6.8 -3.1,7.8c-0.9,0.5 -9.1,3.8 -9.5,3.8c-0.1,0 -0.2,-0.2 -0.3,-0.4l0,0z" class="st4" id="path3073-2"/>
   </g>
  </g>
 </g>
</svg>