<?xml version="1.0" encoding="utf-8"?>
<!-- Generator: Adobe Illustrator 23.0.1, SVG Export Plug-In . SVG Version: 6.00 Build 0)  -->
<svg version="1.1" id="Layer_1" xmlns="http://www.w3.org/2000/svg" xmlns:xlink="http://www.w3.org/1999/xlink" x="0px" y="0px"
	 viewBox="0 0 257 167" style="enable-background:new 0 0 257 167;" xml:space="preserve">
<style type="text/css">
	.st0{fill-rule:evenodd;clip-rule:evenodd;fill:#00FF00;stroke:#000000;stroke-width:0.6031;}
	.st1{fill-rule:evenodd;clip-rule:evenodd;fill:#2AFF2A;stroke:#000000;stroke-width:0.6031;}
	.st2{fill-rule:evenodd;clip-rule:evenodd;fill:#008000;stroke:#000000;stroke-width:0.6031;}
	.st3{fill-rule:evenodd;clip-rule:evenodd;fill:#333333;stroke:#000000;stroke-width:0.6031;}
	.st4{fill-rule:evenodd;clip-rule:evenodd;fill:#F5E900;stroke:#000000;stroke-width:0.6031;}
	.st5{fill-rule:evenodd;clip-rule:evenodd;fill:#999999;stroke:#000000;stroke-width:0.6031;}
</style>
<g id="layer1" transform="translate(445.68745,-242.71932)">
	<g id="car-blinker-right" transform="translate(1340.8503,-234.34036)">
		<path id="path2995-4-8-8_2_" d="M-1594.7,483.2c2.1-1.6,4.5-2.8,7-3.7c3.2-1.2,6.5-1.8,9.9-2.1c4.8-0.4,9.8-0.4,14.6,0.4
			c3.8,0.6,7.6,1.7,11.1,3.3c2.9,1.3,5.6,3.2,8,5.3c1.7,1.4,3.2,3.1,4.5,5c1.2,1.8,2.1,3.9,2.8,6c0.9,2.7,1.1,5.6,1.5,8.4
			c0.6,3.6,0.3,12.4-0.3,16.1c-0.2,1.3-0.5,6.4-0.6,11.1l-0.2,8.7l1.2,0.4c1.4,0.6,2.7,1.7,3.7,2.8c1.7,1.8,2.2,3.7,1.1,4.1
			c-0.8,0.3-5.5-2.2-5.9-3.1c-0.2-0.6-0.9,18.2-0.7,22.4c0.1,3.9,0.5,6.3,0.8,9.5c0.3,4.1,0.8,8,1,11.9c0.2,1.6,0.4,4,0.5,4.7
			c1,8.8,1.1,11.7,1,19.1c-0.1,6.7-0.6,9.2-1.1,10.8c-0.7,2.1-2.5,6.9-4.9,10c-1.4,1.8-3.2,3.3-5.2,4.5c-1.2,0.8-2.6,1.3-3.9,1.8
			c-4,1.4-9.3,2.7-12.4,3.1c-3.8,0.5-9.2,0.6-9.8,0.5h-2.8c-0.6,0-2.9-0.3-4.5-0.4c-1,0-2.6-0.2-3.5-0.4s-2.8-0.6-4.2-0.8
			c-1.3-0.1-11.9-3.6-13.9-5.5c-1.3-0.8-3-2.2-3.5-3.7c-3.1-4.1-4.9-9.1-5.6-14.1c-0.6-4.1,0.4-18.6,1.2-27.8
			c0.4-4.3,1.5-8.5,1.7-12.9c0.4-8.2,0.3-13.2,0.2-19.8c0-2.5-0.1-4.8-0.2-7.4c-0.1-2.6-0.2-4.8-0.3-4.8s-1.3,0.5-2.7,1.2
			c-3.5,1.7-4.2,1.7-3.9,0c0.4-2.1,3.9-5.3,5.8-5.2c0.8,0,0.5-3,0.6-4.6c0.1-1.4,0-4.3,0-4.3c-0.2-5.2-0.7-10-1.3-13.6
			c-0.8-5.1-0.2-15.4,1.3-19.8c0.6-1.9,1.9-4.5,3.2-6.6C-1601,489.1-1598,485.4-1594.7,483.2L-1594.7,483.2z"/>
		<path id="path3029-9_2_" class="st0" d="M-1540.1,540.6c-0.7-0.4-1.8-2.2-3.3-5.5c-0.8-1.8-1.7-3.6-2.1-4
			c-0.5-0.7-1.1-2.9-4.3-17.2c-2-9-3.7-16.5-3.6-16.5c0.3-0.3,9.5,2.5,12.3,3.8l1.4,0.6l0.3,2.1c0.6,4.3,0.8,11.6,0.7,23.8
			c-0.1,6.7-0.2,12.4-0.3,12.7C-1539.2,540.9-1539.5,541-1540.1,540.6L-1540.1,540.6z"/>
		<path id="path3031-6_2_" class="st1" d="M-1603.9,540.4c-0.2-1.1-0.7-18.7-0.7-25.8c0-7.3,0.2-9.5,1-11.3c0.2-0.5,0.6-1,0.9-1.2
			s2.3-0.9,4.6-1.6c2.3-0.7,4.9-1.8,5.9-2.3c1.7-0.8,1.8-0.9,1.7-0.4c-0.1,0.3-1.5,7.2-3.1,15.3c-2.7,13.2-3.1,14.9-3.7,15.7
			c-1,1.5-2.1,3.8-3.2,6.7c-1.3,3.4-1.6,4.1-2.6,4.9l-0.8,0.6L-1603.9,540.4L-1603.9,540.4z"/>
		<path id="path3033-4_2_" class="st1" d="M-1547.5,485.6c-2.8-1.6-5.5-2.4-7.6-2.1c-1.2,0.2-1.8,0.7-1.8,1.6v0.7l-2.2-0.5
			c-3.5-0.8-6.8-1.1-12.7-1.1c-5.8,0-8,0.2-12.3,1.1c-1.4,0.3-2.5,0.6-2.6,0.6c0,0-0.1-0.2-0.1-0.4c0-0.8-0.5-1.9-1-2.1
			c-0.8-0.3-4.4,0.2-5.9,0.8c-0.8,0.3-1.4,0.5-1.4,0.5c-0.2-0.2,3.7-2.8,5.3-3.6c6.1-2.9,17.1-4.1,24.7-2.8c6.8,1.2,16.3,5,18.7,7.4
			C-1545.7,486.6-1546,486.6-1547.5,485.6L-1547.5,485.6z"/>
		<path id="path3035-0_2_" class="st1" d="M-1589.6,497.5c0.2-0.8,0.4-1.6,0.5-1.8s0.5-1.7,0.8-3.4c0.3-1.7,0.7-3.4,0.9-3.7
			c0.4-0.9,1.2-1.2,4.3-1.8c4-0.8,10.2-1.2,16.2-0.8c5,0.3,6.7,0.5,8.9,1.1l1.3,0.4l0.4,1.7c1.5,7.2,2,9.4,1.9,9.5
			c0,0-0.6-0.1-1.3-0.3c-8.4-2.9-22.7-2.8-32.3,0.2c-0.8,0.3-1.5,0.5-1.6,0.5C-1589.8,498.9-1589.7,498.3-1589.6,497.5
			L-1589.6,497.5z"/>
		<path id="path3037-8_2_" class="st1" d="M-1549.7,527.2c-3.2-3.2-8-7-13.8-10.6c-3.8-2.4-4.3-2.6-6.6-2.8
			c-2.3-0.2-3.9,0.3-7.7,2.1c-4.5,2.2-9.3,5.1-14.9,9c-1.2,0.9-2.3,1.6-2.3,1.5c-0.1-0.1,3.4-17.4,3.6-17.7c0.2-0.3,3.2-1.3,5.8-1.9
			c8.1-1.8,20-1.3,32.4,1.4l1.1,0.2l0.3,1.5c1.5,6.5,3.8,18.2,3.7,18.5C-1548.1,528.7-1548.8,528.1-1549.7,527.2L-1549.7,527.2
			L-1549.7,527.2z"/>
		<path id="path3039-5_2_" class="st1" d="M-1554,506.3c-2-0.6-6.3-1.4-9.2-1.8c-2.3-0.3-4.3-0.4-10.3-0.4c-7.8,0-10.3,0.2-15.5,1.5
			c-1.1,0.3-2,0.4-2,0.4s0-0.3,0.1-0.6c0.2-0.9,5.4-2.2,11.4-2.9c4.3-0.5,14.1-0.3,18.4,0.3c4.4,0.7,7.8,1.6,8.2,2.3
			c0.2,0.4,0.4,1.7,0.2,1.6C-1552.8,506.6-1553.4,506.5-1554,506.3L-1554,506.3L-1554,506.3z"/>
		<path id="path3041-7_2_" class="st1" d="M-1590.3,502.1c0.1-0.4,0.2-0.8,0.2-0.8c0-0.1,2.5-0.8,4.8-1.4c8.4-2.1,16.8-2.5,24.1-1
			c2.8,0.6,7,1.8,7.3,2.1c0.1,0.1,0.3,0.6,0.4,1l0.2,0.7l-2.1-0.6c-8.7-2.6-22-2.5-32.7,0.2C-1590.6,502.9-1590.6,503-1590.3,502.1
			L-1590.3,502.1z"/>
		<path id="path3043-8_2_" class="st0" d="M-1554.8,640.5c0-0.7,1.4-11.1,1.5-11.3c0.4-0.7,3.3-22.8,4-30.6c0.2-2.1,0.4-3.2,1.2-5.7
			c1.1-3.4,1.9-7.6,2.1-11.7c0.1-2.1,0.2-2.6,0.7-3.3c0.3-0.4,1.1-2.4,1.9-4.4l1.4-3.6v-8.2c0-4.5-0.1-10.6-0.2-13.5
			c-0.1-3.4-0.1-5.5,0.1-5.8c0.3-0.6,3.4-0.6,3.6,0c0.2,0.4,0,8.2-0.3,14.1c-0.5,8.9-0.2,16.3,0.9,29.3c1.3,14.5,1.4,22.3,0.4,30.9
			c-0.8,7.2-1.8,11.2-4,15.4c-1.1,2.1-4.5,5.2-7.5,6.7c-0.9,0.4-5.1,1.9-5.6,1.9C-1554.7,640.8-1554.8,640.7-1554.8,640.5
			L-1554.8,640.5z M-1550.8,629.1c0.8-1.8,3.2-10.1,5.2-18c2.6-10.3,4.3-15.7,4.8-15.8c0.9-0.2,1,0.5,1,6c0,3.3,0.1,5.8,0.3,6.5
			l0.3,1.2l0.2-1.2c0.1-0.7,0.3-4.6,0.4-8.7c0.3-8.3,0.1-16-0.6-19.1c-0.6-2.8-0.9-2.2-1.7,2.7c-1,6.3-8,36.8-8.6,37.3
			c-0.2,0.1-0.1-0.5,0.5-4.6c0.5-3.7,1.5-12.3,1.6-14.4c0.1-1.7,0.1-1.8-0.2-1.1c-0.7,1.4-4.4,26.8-4.5,29.9
			C-1552.1,630.8-1551.4,630.4-1550.8,629.1L-1550.8,629.1L-1550.8,629.1z"/>
		<path id="path3045-07_2_" class="st1" d="M-1590,640c-4-1.2-6.4-2.4-9.3-4.6c-1.6-1.2-1.8-1.5-2.6-3.2c-3.2-7-3.7-9.6-3.9-21.1
			c-0.2-7.4,0.1-13.2,0.9-23.7c0.3-3.7,0.6-7.2,0.6-7.7c0-0.6,0.1,3.4,0.1,8.9c0,8.8,0.1,10.3,0.5,13.5c0.3,2,0.5,3.6,0.6,3.7
			c0.1,0.1,0.2-1.9,0.3-4.4c0.2-4.4,0.4-6.5,0.7-6.8c0.1-0.1,0.3,0,0.5,0.2c0.3,0.3,0.8,2.5,1.6,7c1.9,10.3,2.7,13.5,5.1,21
			c1.5,4.7,3.2,8.1,4,8.1c0.4,0,0.4-0.2-0.2-2.8c-0.3-1.2-0.8-5.2-1.3-8.9c-0.9-7.8-1.7-12.2-2.7-16.2c-1.4-5.6-1.4-2.7-0.1,7.3
			c0.4,3.3,1,7.3,1.3,8.9c0.3,1.7,0.4,3.2,0.4,3.4s-0.8-2.3-1.7-5.5c-1.4-5.1-1.8-7-2.9-13.4c-1.7-10.5-4.4-27.2-4.4-27.3
			s-0.2-0.1-0.4-0.1c-0.5,0-0.7,0.2-0.9,1.2c-0.1,0.4-0.1-0.6,0-2.3c0.2-4,0.1-16.8-0.2-23.7c-0.1-3.1-0.2-6.3-0.1-7.1l0.1-1.4
			l1.4-0.4c0.7-0.2,1.4-0.4,1.5-0.3c0.1,0.1,0.1,3.6,0,7.7c-0.1,9.6-0.1,14.8,0.2,17.1c0.3,2.3,1.4,6.9,2,8.3
			c0.4,0.9,1.3,4.8,2.4,10.7c0.2,1,0.9,3.5,1.5,5.5c1,3,1.2,4,1.4,6.5c0.1,1.6,0.3,3,0.3,3.1c0.1,0.1,0.3,2,0.4,4.2
			c0.5,5.7,0.5,5.7,1.7,13.8c1.7,11.1,2.7,16.9,3.2,19.1c0.2,1.1,0.5,2.1,0.5,2.2C-1587.4,640.7-1587.9,640.6-1590,640L-1590,640
			L-1590,640z"/>
		<path id="path3047-7_2_" class="st0" d="M-1553.2,593.2c-2.4-0.3-31.6-0.8-34.8-0.6c-1.6,0.1-3.3,0.2-3.8,0.2h-0.9l-0.5-2.1
			c-0.9-3.5-1.6-7.2-2-10.3c-0.3-2.4-0.4-5.2-0.3-15.9c0-12.1,0.1-13.8,0.6-13.3c0.1,0.1,0.2,3,0.3,6.6c0.3,9.2,0.7,17.1,1.4,23
			c0.5,4.5,1.5,8.6,1.2,4.9c-0.1-0.9-0.3-4.4-0.6-7.7c-0.4-5.1-0.5-8.1-0.5-17v-10.8l1.3-0.2c2-0.3,26.4-0.4,34.6-0.2l7.6,0.2
			l0.3,0.7c0.4,0.8,0.4,1.6,0,10.6c-0.4,9.2-0.6,13.4-1.2,20.4c-0.3,3.3-0.4,6.2-0.4,6.5c0.1,0.9,0.6-1.4,1.2-5.9
			c0.9-6.9,1.4-12.7,1.7-22.5c0.1-4,0.3-7.4,0.5-7.6c0.1-0.2,0.2,1.7,0.1,5c-0.1,2.9-0.2,8.9-0.2,13.2c-0.2,11.9-0.9,18.4-2.5,22.1
			C-1550.5,593.6-1550.5,593.6-1553.2,593.2L-1553.2,593.2L-1553.2,593.2z"/>
		<path id="path3049-2_2_" class="st0" d="M-1575.9,642.7c-3.2-0.2-7.7-0.9-9.7-1.4c-1-0.3-1-0.3-1.4-1.9c-0.6-2.6-0.9-4.4-0.8-5
			s0.2-0.6,1.2-0.4c3.4,0.5,4.8,0.6,10,0.8c6.2,0.2,14.4,0,16.7-0.4c0.8-0.1,2.2-0.5,3-0.8l1.6-0.5v1.5c0,1.4-0.3,4.3-0.6,6.1
			c-0.1,0.7-0.2,0.7-2.1,1.1C-1563.6,642.7-1569.8,643-1575.9,642.7L-1575.9,642.7L-1575.9,642.7z"/>
		<path id="path3051-6_2_" class="st2" d="M-1605.1,628c-0.7-0.8-1.9-3.8-2.3-5.5c-0.7-3-1-7.6-0.8-13.7c0.2-9,1.1-19.9,1.8-22.7
			c0.9-3.7,1.3-13.2,1.2-28.4c-0.1-7.3-0.1-12.5,0.1-12.3c0.1,0.2,0.2,7.4,0.3,16.1l0.1,15.7l-0.7,8.1c-1.2,13.3-1.3,15.6-1.1,24
			c0.2,9,0.6,13.6,1.5,16.8C-1604.6,628.2-1604.6,628.7-1605.1,628L-1605.1,628z"/>
		<path id="path3053-9_2_" class="st2" d="M-1538.4,628.3c0-0.1,0.3-1.6,0.7-3.2c0.9-4.2,1.3-6.7,1.7-12.8c0.5-7.1,0.2-14.1-1.4-30
			l-0.8-8.1l0.2-12.2c0.1-6.7,0.2-13.3,0.3-14.6s0.1,4,0.1,11.7c0,9.9,0.1,15,0.3,17c0.2,1.6,0.5,5.5,0.9,8.7
			c0.3,3.2,0.7,7.3,0.9,9.1s0.5,4.2,0.6,5.2c0.3,2.8,0.3,15,0,18.9c-0.3,3.6-0.7,5.1-2.2,8.5
			C-1538.1,628.4-1538.4,628.9-1538.4,628.3L-1538.4,628.3z"/>
		<path id="path3055-77_2_" class="st2" d="M-1532.6,547.3c-0.5-0.2-1.5-1-2.2-1.7c-1-1-1.3-1.4-1.3-1.8c0.2-1.2,2.3-0.4,4,1.5
			c0.9,1.1,1,1.3,0.8,2C-1531.4,547.8-1531.5,547.8-1532.6,547.3L-1532.6,547.3z"/>
		<path id="path3057-77_2_" class="st2" d="M-1537.7,536.5c0-2.2,0.1-8.4,0.2-13.9c0.2-10.2,0.1-13.8-0.6-18.2
			c-0.5-3.2-0.9-4.6-2.1-7.3c-1.2-2.6-2.4-6.1-2.2-6.3c0.2-0.2,2.4,3.1,3.2,4.8c0.8,1.7,1.9,5.5,2.5,8.5s0.7,8.7,0.3,14
			c-0.2,2.5-0.5,8.5-0.6,13.2c-0.1,4.8-0.3,8.8-0.5,8.9C-1537.7,540.4-1537.7,539-1537.7,536.5L-1537.7,536.5L-1537.7,536.5z"/>
		<path id="path3059-9_2_" class="st2" d="M-1605.5,537.8c-0.1-1.5-0.3-4.5-0.4-6.6s-0.4-5.6-0.7-7.6s-0.5-6-0.6-8.8
			c-0.2-6.4,0.2-9.9,1.6-13.9c0.9-2.7,3.5-8.5,3.8-8.2c0.1,0.1-0.7,2.5-1.6,5.4c-2.4,7.2-2.5,7.9-2.3,17.7c0.1,4.3,0.2,9.5,0.4,11.7
			c0.1,2.2,0.2,6,0.2,8.5l-0.1,4.6L-1605.5,537.8L-1605.5,537.8z"/>
		<path id="path3061-0_2_" class="st2" d="M-1611.8,547c-0.4-0.8,0.9-2.3,2.9-3.3c1.7-0.9,2.8,0.2,1.5,1.4c-0.7,0.6-2.6,1.8-3.6,2.1
			C-1611.4,547.4-1611.6,547.4-1611.8,547L-1611.8,547z"/>
		<path id="path3063-0_2_" class="st2" d="M-1575.3,631.1c-5.2-0.5-9.4-1.3-10-2c-0.1-0.2-0.5-1.1-0.8-2.1c-1.2-3.7-2-7.8-2.5-13.3
			c-0.5-4.9-1.4-18.7-1.2-18.9c0.2-0.2,35.1-0.2,35.9,0l0.6,0.2l-0.3,5.9c-0.5,11.2-2.2,24.7-3.4,28c-0.4,1.1-1.1,1.5-3.3,1.9
			C-1561.7,631.1-1573.2,631.3-1575.3,631.1L-1575.3,631.1L-1575.3,631.1z"/>
		<path id="path3065-0_2_" class="st3" d="M-1594.2,546.8c-1.8-0.3-3.1-2.4-3.8-6.3c-0.4-2-0.3-3.4,0.4-5.4c1.1-3.1,3.4-6,6.9-8.5
			c2-1.4,15.6-9.5,17-10.1c0.7-0.3,1.5-0.4,2.8-0.4c1.6,0,1.9,0.1,3.5,0.9c4,2.1,12.1,8.5,18.3,14.6c2.4,2.4,2.8,2.9,3.1,3.9
			c0.4,1.6,0.9,5.8,0.8,7.1c-0.2,1.7-1,3.2-2.1,3.8c-0.9,0.4-1.4,0.5-23.3,0.5C-1583.1,546.9-1593.7,546.9-1594.2,546.8
			L-1594.2,546.8L-1594.2,546.8z"/>
		<path id="path3067-5_2_" class="st3" d="M-1598.7,570.5l-0.9-2.6l0.1-10.7c0-5.9,0.1-11.1,0.2-11.5l0.1-0.7l0.9,1.3l0.9,1.3v7.8
			c0,4.3-0.1,10-0.2,12.8l-0.2,5L-1598.7,570.5L-1598.7,570.5z"/>
		<path id="path3069-75_2_" class="st3" d="M-1545.7,561.8c0-11.5,0-13.1,0.3-13.5c0.2-0.2,0.6-1.1,1-1.9l0.6-1.5l0.2,11.7l0.2,11.7
			l-1,2.9c-0.5,1.6-1,3.1-1.2,3.3C-1545.6,574.8-1545.7,569.3-1545.7,561.8L-1545.7,561.8z"/>
		<path id="path3071-6_2_" class="st4" d="M-1542.3,499.6c-0.7-0.4-2.8-1.1-6.2-2c-3.7-1-4.6-1.4-5-2c-0.5-1-2-9.7-1.7-10.5
			c0.2-0.6,1-0.5,3,0.2c4,1.6,6.6,3.6,8.1,6.4c0.8,1.4,2.2,5.2,2.5,6.7C-1541.4,499.3-1541.8,499.9-1542.3,499.6L-1542.3,499.6
			L-1542.3,499.6z"/>
		<path id="path3073-8_2_" class="st5" d="M-1601.8,499.9c-0.5-1.3,0.3-4.9,1.7-7.8c1.7-3.6,5.4-6.6,9-7.3c1.1-0.2,1.4-0.2,1.8,0.1
			c0.7,0.5,0.8,1,0.4,3.8c-0.6,5.2-1.3,6.8-3.1,7.8c-0.9,0.5-9.1,3.8-9.5,3.8C-1601.6,500.3-1601.8,500.1-1601.8,499.9
			L-1601.8,499.9z"/>
	</g>
	<g id="car-blinker-left" transform="translate(1340.8503,-234.34036)">
		<path id="path2995-4-8-8" d="M-1681.7,483.2c2.1-1.6,4.5-2.8,7-3.7c3.2-1.2,6.5-1.8,9.9-2.1c4.8-0.4,9.8-0.4,14.6,0.4
			c3.8,0.6,7.6,1.7,11.1,3.3c2.9,1.3,5.6,3.2,8,5.3c1.7,1.4,3.2,3.1,4.5,5c1.2,1.8,2.1,3.9,2.8,6c0.9,2.7,1.1,5.6,1.5,8.4
			c0.6,3.6,0.3,12.4-0.3,16.1c-0.2,1.3-0.5,6.4-0.6,11.1l-0.2,8.7l1.2,0.4c1.4,0.6,2.7,1.7,3.7,2.8c1.7,1.8,2.2,3.7,1.1,4.1
			c-0.8,0.3-5.5-2.2-5.9-3.1c-0.2-0.6-0.9,18.2-0.7,22.4c0.1,3.9,0.5,6.3,0.8,9.5c0.3,4.1,0.8,8,1,11.9c0.2,1.6,0.4,4,0.5,4.7
			c1,8.8,1.1,11.7,1,19.1c-0.1,6.7-0.6,9.2-1.1,10.8c-0.7,2.1-2.5,6.9-4.9,10c-1.4,1.8-3.2,3.3-5.2,4.5c-1.2,0.8-2.6,1.3-3.9,1.8
			c-4,1.4-9.3,2.7-12.4,3.1c-3.8,0.5-9.2,0.6-9.8,0.5h-2.8c-0.6,0-2.9-0.3-4.5-0.4c-1,0-2.6-0.2-3.5-0.4s-2.8-0.6-4.2-0.8
			c-1.3-0.1-11.9-3.6-13.9-5.5c-1.3-0.8-3-2.2-3.5-3.7c-3.1-4.1-4.9-9.1-5.6-14.1c-0.6-4.1,0.4-18.6,1.2-27.8
			c0.4-4.3,1.5-8.5,1.7-12.9c0.4-8.2,0.3-13.2,0.2-19.8c0-2.5-0.1-4.8-0.2-7.4c-0.1-2.6-0.2-4.8-0.3-4.8s-1.3,0.5-2.7,1.2
			c-3.5,1.7-4.2,1.7-3.9,0c0.4-2.1,3.9-5.3,5.8-5.2c0.8,0,0.5-3,0.6-4.6c0.1-1.4,0-4.3,0-4.3c-0.2-5.2-0.7-10-1.3-13.6
			c-0.8-5.1-0.2-15.4,1.3-19.8c0.6-1.9,1.9-4.5,3.2-6.6C-1688,489.1-1685,485.4-1681.7,483.2L-1681.7,483.2z"/>
		<path id="path3029-9" class="st0" d="M-1627.1,540.6c-0.7-0.4-1.8-2.2-3.3-5.5c-0.8-1.8-1.7-3.6-2.1-4c-0.5-0.7-1.1-2.9-4.3-17.2
			c-2-9-3.7-16.5-3.6-16.5c0.3-0.3,9.5,2.5,12.3,3.8l1.4,0.6l0.3,2.1c0.6,4.3,0.8,11.6,0.7,23.8c-0.1,6.7-0.2,12.4-0.3,12.7
			C-1626.2,540.9-1626.5,541-1627.1,540.6L-1627.1,540.6z"/>
		<path id="path3031-6" class="st1" d="M-1690.9,540.4c-0.2-1.1-0.7-18.7-0.7-25.8c0-7.3,0.2-9.5,1-11.3c0.2-0.5,0.6-1,0.9-1.2
			s2.3-0.9,4.6-1.6c2.3-0.7,4.9-1.8,5.9-2.3c1.7-0.8,1.8-0.9,1.7-0.4c-0.1,0.3-1.5,7.2-3.1,15.3c-2.7,13.2-3.1,14.9-3.7,15.7
			c-1,1.5-2.1,3.8-3.2,6.7c-1.3,3.4-1.6,4.1-2.6,4.9l-0.8,0.6L-1690.9,540.4L-1690.9,540.4z"/>
		<path id="path3033-4" class="st1" d="M-1634.5,485.6c-2.8-1.6-5.5-2.4-7.6-2.1c-1.2,0.2-1.8,0.7-1.8,1.6v0.7l-2.2-0.5
			c-3.5-0.8-6.8-1.1-12.7-1.1c-5.8,0-8,0.2-12.3,1.1c-1.4,0.3-2.5,0.6-2.6,0.6c0,0-0.1-0.2-0.1-0.4c0-0.8-0.5-1.9-1-2.1
			c-0.8-0.3-4.4,0.2-5.9,0.8c-0.8,0.3-1.4,0.5-1.4,0.5c-0.2-0.2,3.7-2.8,5.3-3.6c6.1-2.9,17.1-4.1,24.7-2.8c6.8,1.2,16.3,5,18.7,7.4
			C-1632.7,486.6-1633,486.6-1634.5,485.6L-1634.5,485.6z"/>
		<path id="path3035-0" class="st1" d="M-1676.6,497.5c0.2-0.8,0.4-1.6,0.5-1.8s0.5-1.7,0.8-3.4c0.3-1.7,0.7-3.4,0.9-3.7
			c0.4-0.9,1.2-1.2,4.3-1.8c4-0.8,10.2-1.2,16.2-0.8c5,0.3,6.7,0.5,8.9,1.1l1.3,0.4l0.4,1.7c1.5,7.2,2,9.4,1.9,9.5
			c0,0-0.6-0.1-1.3-0.3c-8.4-2.9-22.7-2.8-32.3,0.2c-0.8,0.3-1.5,0.5-1.6,0.5C-1676.8,498.9-1676.7,498.3-1676.6,497.5
			L-1676.6,497.5z"/>
		<path id="path3037-8" class="st1" d="M-1636.7,527.2c-3.2-3.2-8-7-13.8-10.6c-3.8-2.4-4.3-2.6-6.6-2.8c-2.3-0.2-3.9,0.3-7.7,2.1
			c-4.5,2.2-9.3,5.1-14.9,9c-1.2,0.9-2.3,1.6-2.3,1.5c-0.1-0.1,3.4-17.4,3.6-17.7c0.2-0.3,3.2-1.3,5.8-1.9c8.1-1.8,20-1.3,32.4,1.4
			l1.1,0.2l0.3,1.5c1.5,6.5,3.8,18.2,3.7,18.5C-1635.1,528.7-1635.8,528.1-1636.7,527.2L-1636.7,527.2L-1636.7,527.2z"/>
		<path id="path3039-5" class="st1" d="M-1641,506.3c-2-0.6-6.3-1.4-9.2-1.8c-2.3-0.3-4.3-0.4-10.3-0.4c-7.8,0-10.3,0.2-15.5,1.5
			c-1.1,0.3-2,0.4-2,0.4s0-0.3,0.1-0.6c0.2-0.9,5.4-2.2,11.4-2.9c4.3-0.5,14.1-0.3,18.4,0.3c4.4,0.7,7.8,1.6,8.2,2.3
			c0.2,0.4,0.4,1.7,0.2,1.6C-1639.8,506.6-1640.4,506.5-1641,506.3L-1641,506.3L-1641,506.3z"/>
		<path id="path3041-7" class="st1" d="M-1677.3,502.1c0.1-0.4,0.2-0.8,0.2-0.8c0-0.1,2.5-0.8,4.8-1.4c8.4-2.1,16.8-2.5,24.1-1
			c2.8,0.6,7,1.8,7.3,2.1c0.1,0.1,0.3,0.6,0.4,1l0.2,0.7l-2.1-0.6c-8.7-2.6-22-2.5-32.7,0.2C-1677.6,502.9-1677.6,503-1677.3,502.1
			L-1677.3,502.1z"/>
		<path id="path3043-8" class="st0" d="M-1641.8,640.5c0-0.7,1.4-11.1,1.5-11.3c0.4-0.7,3.3-22.8,4-30.6c0.2-2.1,0.4-3.2,1.2-5.7
			c1.1-3.4,1.9-7.6,2.1-11.7c0.1-2.1,0.2-2.6,0.7-3.3c0.3-0.4,1.1-2.4,1.9-4.4l1.4-3.6v-8.2c0-4.5-0.1-10.6-0.2-13.5
			c-0.1-3.4-0.1-5.5,0.1-5.8c0.3-0.6,3.4-0.6,3.6,0c0.2,0.4,0,8.2-0.3,14.1c-0.5,8.9-0.2,16.3,0.9,29.3c1.3,14.5,1.4,22.3,0.4,30.9
			c-0.8,7.2-1.8,11.2-4,15.4c-1.1,2.1-4.5,5.2-7.5,6.7c-0.9,0.4-5.1,1.9-5.6,1.9C-1641.7,640.8-1641.8,640.7-1641.8,640.5
			L-1641.8,640.5z M-1637.8,629.1c0.8-1.8,3.2-10.1,5.2-18c2.6-10.3,4.3-15.7,4.8-15.8c0.9-0.2,1,0.5,1,6c0,3.3,0.1,5.8,0.3,6.5
			l0.3,1.2l0.2-1.2c0.1-0.7,0.3-4.6,0.4-8.7c0.3-8.3,0.1-16-0.6-19.1c-0.6-2.8-0.9-2.2-1.7,2.7c-1,6.3-8,36.8-8.6,37.3
			c-0.2,0.1-0.1-0.5,0.5-4.6c0.5-3.7,1.5-12.3,1.6-14.4c0.1-1.7,0.1-1.8-0.2-1.1c-0.7,1.4-4.4,26.8-4.5,29.9
			C-1639.1,630.8-1638.4,630.4-1637.8,629.1L-1637.8,629.1L-1637.8,629.1z"/>
		<path id="path3045-07" class="st1" d="M-1677,640c-4-1.2-6.4-2.4-9.3-4.6c-1.6-1.2-1.8-1.5-2.6-3.2c-3.2-7-3.7-9.6-3.9-21.1
			c-0.2-7.4,0.1-13.2,0.9-23.7c0.3-3.7,0.6-7.2,0.6-7.7c0-0.6,0.1,3.4,0.1,8.9c0,8.8,0.1,10.3,0.5,13.5c0.3,2,0.5,3.6,0.6,3.7
			c0.1,0.1,0.2-1.9,0.3-4.4c0.2-4.4,0.4-6.5,0.7-6.8c0.1-0.1,0.3,0,0.5,0.2c0.3,0.3,0.8,2.5,1.6,7c1.9,10.3,2.7,13.5,5.1,21
			c1.5,4.7,3.2,8.1,4,8.1c0.4,0,0.4-0.2-0.2-2.8c-0.3-1.2-0.8-5.2-1.3-8.9c-0.9-7.8-1.7-12.2-2.7-16.2c-1.4-5.6-1.4-2.7-0.1,7.3
			c0.4,3.3,1,7.3,1.3,8.9c0.3,1.7,0.4,3.2,0.4,3.4s-0.8-2.3-1.7-5.5c-1.4-5.1-1.8-7-2.9-13.4c-1.7-10.5-4.4-27.2-4.4-27.3
			s-0.2-0.1-0.4-0.1c-0.5,0-0.7,0.2-0.9,1.2c-0.1,0.4-0.1-0.6,0-2.3c0.2-4,0.1-16.8-0.2-23.7c-0.1-3.1-0.2-6.3-0.1-7.1l0.1-1.4
			l1.4-0.4c0.7-0.2,1.4-0.4,1.5-0.3c0.1,0.1,0.1,3.6,0,7.7c-0.1,9.6-0.1,14.8,0.2,17.1c0.3,2.3,1.4,6.9,2,8.3
			c0.4,0.9,1.3,4.8,2.4,10.7c0.2,1,0.9,3.5,1.5,5.5c1,3,1.2,4,1.4,6.5c0.1,1.6,0.3,3,0.3,3.1c0.1,0.1,0.3,2,0.4,4.2
			c0.5,5.7,0.5,5.7,1.7,13.8c1.7,11.1,2.7,16.9,3.2,19.1c0.2,1.1,0.5,2.1,0.5,2.2C-1674.4,640.7-1674.9,640.6-1677,640L-1677,640
			L-1677,640z"/>
		<path id="path3047-7" class="st0" d="M-1640.2,593.2c-2.4-0.3-31.6-0.8-34.8-0.6c-1.6,0.1-3.3,0.2-3.8,0.2h-0.9l-0.5-2.1
			c-0.9-3.5-1.6-7.2-2-10.3c-0.3-2.4-0.4-5.2-0.3-15.9c0-12.1,0.1-13.8,0.6-13.3c0.1,0.1,0.2,3,0.3,6.6c0.3,9.2,0.7,17.1,1.4,23
			c0.5,4.5,1.5,8.6,1.2,4.9c-0.1-0.9-0.3-4.4-0.6-7.7c-0.4-5.1-0.5-8.1-0.5-17v-10.8l1.3-0.2c2-0.3,26.4-0.4,34.6-0.2l7.6,0.2
			l0.3,0.7c0.4,0.8,0.4,1.6,0,10.6c-0.4,9.2-0.6,13.4-1.2,20.4c-0.3,3.3-0.4,6.2-0.4,6.5c0.1,0.9,0.6-1.4,1.2-5.9
			c0.9-6.9,1.4-12.7,1.7-22.5c0.1-4,0.3-7.4,0.5-7.6c0.1-0.2,0.2,1.7,0.1,5c-0.1,2.9-0.2,8.9-0.2,13.2c-0.2,11.9-0.9,18.4-2.5,22.1
			C-1637.5,593.6-1637.5,593.6-1640.2,593.2L-1640.2,593.2L-1640.2,593.2z"/>
		<path id="path3049-2" class="st0" d="M-1662.9,642.7c-3.2-0.2-7.7-0.9-9.7-1.4c-1-0.3-1-0.3-1.4-1.9c-0.6-2.6-0.9-4.4-0.8-5
			s0.2-0.6,1.2-0.4c3.4,0.5,4.8,0.6,10,0.8c6.2,0.2,14.4,0,16.7-0.4c0.8-0.1,2.2-0.5,3-0.8l1.6-0.5v1.5c0,1.4-0.3,4.3-0.6,6.1
			c-0.1,0.7-0.2,0.7-2.1,1.1C-1650.6,642.7-1656.8,643-1662.9,642.7L-1662.9,642.7L-1662.9,642.7z"/>
		<path id="path3051-6" class="st2" d="M-1692.1,628c-0.7-0.8-1.9-3.8-2.3-5.5c-0.7-3-1-7.6-0.8-13.7c0.2-9,1.1-19.9,1.8-22.7
			c0.9-3.7,1.3-13.2,1.2-28.4c-0.1-7.3-0.1-12.5,0.1-12.3c0.1,0.2,0.2,7.4,0.3,16.1l0.1,15.7l-0.7,8.1c-1.2,13.3-1.3,15.6-1.1,24
			c0.2,9,0.6,13.6,1.5,16.8C-1691.6,628.2-1691.6,628.7-1692.1,628L-1692.1,628z"/>
		<path id="path3053-9" class="st2" d="M-1625.4,628.3c0-0.1,0.3-1.6,0.7-3.2c0.9-4.2,1.3-6.7,1.7-12.8c0.5-7.1,0.2-14.1-1.4-30
			l-0.8-8.1l0.2-12.2c0.1-6.7,0.2-13.3,0.3-14.6s0.1,4,0.1,11.7c0,9.9,0.1,15,0.3,17c0.2,1.6,0.5,5.5,0.9,8.7
			c0.3,3.2,0.7,7.3,0.9,9.1s0.5,4.2,0.6,5.2c0.3,2.8,0.3,15,0,18.9c-0.3,3.6-0.7,5.1-2.2,8.5
			C-1625.1,628.4-1625.4,628.9-1625.4,628.3L-1625.4,628.3z"/>
		<path id="path3055-77" class="st2" d="M-1619.6,547.3c-0.5-0.2-1.5-1-2.2-1.7c-1-1-1.3-1.4-1.3-1.8c0.2-1.2,2.3-0.4,4,1.5
			c0.9,1.1,1,1.3,0.8,2C-1618.4,547.8-1618.5,547.8-1619.6,547.3L-1619.6,547.3z"/>
		<path id="path3057-77" class="st2" d="M-1624.7,536.5c0-2.2,0.1-8.4,0.2-13.9c0.2-10.2,0.1-13.8-0.6-18.2
			c-0.5-3.2-0.9-4.6-2.1-7.3c-1.2-2.6-2.4-6.1-2.2-6.3c0.2-0.2,2.4,3.1,3.2,4.8c0.8,1.7,1.9,5.5,2.5,8.5s0.7,8.7,0.3,14
			c-0.2,2.5-0.5,8.5-0.6,13.2c-0.1,4.8-0.3,8.8-0.5,8.9C-1624.7,540.4-1624.7,539-1624.7,536.5L-1624.7,536.5L-1624.7,536.5z"/>
		<path id="path3059-9" class="st2" d="M-1692.5,537.8c-0.1-1.5-0.3-4.5-0.4-6.6s-0.4-5.6-0.7-7.6s-0.5-6-0.6-8.8
			c-0.2-6.4,0.2-9.9,1.6-13.9c0.9-2.7,3.5-8.5,3.8-8.2c0.1,0.1-0.7,2.5-1.6,5.4c-2.4,7.2-2.5,7.9-2.3,17.7c0.1,4.3,0.2,9.5,0.4,11.7
			c0.1,2.2,0.2,6,0.2,8.5l-0.1,4.6L-1692.5,537.8L-1692.5,537.8z"/>
		<path id="path3061-0" class="st2" d="M-1698.8,547c-0.4-0.8,0.9-2.3,2.9-3.3c1.7-0.9,2.8,0.2,1.5,1.4c-0.7,0.6-2.6,1.8-3.6,2.1
			C-1698.4,547.4-1698.6,547.4-1698.8,547L-1698.8,547z"/>
		<path id="path3063-0" class="st2" d="M-1662.3,631.1c-5.2-0.5-9.4-1.3-10-2c-0.1-0.2-0.5-1.1-0.8-2.1c-1.2-3.7-2-7.8-2.5-13.3
			c-0.5-4.9-1.4-18.7-1.2-18.9c0.2-0.2,35.1-0.2,35.9,0l0.6,0.2l-0.3,5.9c-0.5,11.2-2.2,24.7-3.4,28c-0.4,1.1-1.1,1.5-3.3,1.9
			C-1648.7,631.1-1660.2,631.3-1662.3,631.1L-1662.3,631.1L-1662.3,631.1z"/>
		<path id="path3065-0" class="st3" d="M-1681.2,546.8c-1.8-0.3-3.1-2.4-3.8-6.3c-0.4-2-0.3-3.4,0.4-5.4c1.1-3.1,3.4-6,6.9-8.5
			c2-1.4,15.6-9.5,17-10.1c0.7-0.3,1.5-0.4,2.8-0.4c1.6,0,1.9,0.1,3.5,0.9c4,2.1,12.1,8.5,18.3,14.6c2.4,2.4,2.8,2.9,3.1,3.9
			c0.4,1.6,0.9,5.8,0.8,7.1c-0.2,1.7-1,3.2-2.1,3.8c-0.9,0.4-1.4,0.5-23.3,0.5C-1670.1,546.9-1680.7,546.9-1681.2,546.8
			L-1681.2,546.8L-1681.2,546.8z"/>
		<path id="path3067-5" class="st3" d="M-1685.7,570.5l-0.9-2.6l0.1-10.7c0-5.9,0.1-11.1,0.2-11.5l0.1-0.7l0.9,1.3l0.9,1.3v7.8
			c0,4.3-0.1,10-0.2,12.8l-0.2,5L-1685.7,570.5L-1685.7,570.5z"/>
		<path id="path3069-75" class="st3" d="M-1632.7,561.8c0-11.5,0-13.1,0.3-13.5c0.2-0.2,0.6-1.1,1-1.9l0.6-1.5l0.2,11.7l0.2,11.7
			l-1,2.9c-0.5,1.6-1,3.1-1.2,3.3C-1632.6,574.8-1632.7,569.3-1632.7,561.8L-1632.7,561.8z"/>
		<path id="path3071-6" class="st5" d="M-1629.3,499.6c-0.7-0.4-2.8-1.1-6.2-2c-3.7-1-4.6-1.4-5-2c-0.5-1-2-9.7-1.7-10.5
			c0.2-0.6,1-0.5,3,0.2c4,1.6,6.6,3.6,8.1,6.4c0.8,1.4,2.2,5.2,2.5,6.7C-1628.4,499.3-1628.8,499.9-1629.3,499.6L-1629.3,499.6
			L-1629.3,499.6z"/>
		<path id="path3073-8" class="st4" d="M-1688.8,499.9c-0.5-1.3,0.3-4.9,1.7-7.8c1.7-3.6,5.4-6.6,9-7.3c1.1-0.2,1.4-0.2,1.8,0.1
			c0.7,0.5,0.8,1,0.4,3.8c-0.6,5.2-1.3,6.8-3.1,7.8c-0.9,0.5-9.1,3.8-9.5,3.8C-1688.6,500.3-1688.8,500.1-1688.8,499.9
			L-1688.8,499.9z"/>
	</g>
	<g id="car-blinker-off" transform="translate(1340.8503,-234.34036)">
		<path id="path2995-4-8-8_1_" d="M-1768.7,483.1c2.1-1.6,4.5-2.8,7-3.7c3.2-1.2,6.5-1.8,9.9-2.1c4.8-0.4,9.8-0.4,14.6,0.4
			c3.8,0.6,7.6,1.7,11.1,3.3c2.9,1.3,5.6,3.2,8,5.3c1.7,1.4,3.2,3.1,4.5,5c1.2,1.8,2.1,3.9,2.8,6c0.9,2.7,1.1,5.6,1.5,8.4
			c0.6,3.6,0.3,12.4-0.3,16.1c-0.2,1.3-0.5,6.4-0.6,11.1l-0.2,8.7l1.2,0.4c1.4,0.6,2.7,1.7,3.7,2.8c1.7,1.8,2.2,3.7,1.1,4.1
			c-0.8,0.3-5.5-2.2-5.9-3.1c-0.2-0.6-0.9,18.2-0.7,22.4c0.1,3.9,0.5,6.3,0.8,9.5c0.3,4.1,0.8,8,1,11.9c0.2,1.6,0.4,4,0.5,4.7
			c1,8.8,1.1,11.7,1,19.1c-0.1,6.7-0.6,9.2-1.1,10.8c-0.7,2.1-2.5,6.9-4.9,10c-1.4,1.8-3.2,3.3-5.2,4.5c-1.2,0.8-2.6,1.3-3.9,1.8
			c-4,1.4-9.3,2.7-12.4,3.1c-3.8,0.5-9.2,0.6-9.8,0.5h-2.8c-0.6,0-2.9-0.3-4.5-0.4c-1,0-2.6-0.2-3.5-0.4c-0.9-0.2-2.8-0.6-4.2-0.8
			c-1.3-0.1-11.9-3.6-13.9-5.5c-1.3-0.8-3-2.2-3.5-3.7c-3.1-4.1-4.9-9.1-5.6-14.1c-0.6-4.1,0.4-18.6,1.2-27.8
			c0.4-4.3,1.5-8.5,1.7-12.9c0.4-8.2,0.3-13.2,0.2-19.8c0-2.5-0.1-4.8-0.2-7.4c-0.1-2.6-0.2-4.8-0.3-4.8c0-0.1-1.3,0.5-2.7,1.2
			c-3.5,1.7-4.2,1.7-3.9,0c0.4-2.1,3.9-5.3,5.8-5.2c0.8,0,0.5-3,0.6-4.6c0.1-1.4,0-4.3,0-4.3c-0.2-5.2-0.7-10-1.3-13.6
			c-0.8-5.1-0.2-15.4,1.3-19.8c0.6-1.9,1.9-4.5,3.2-6.6C-1775,489-1772,485.4-1768.7,483.1L-1768.7,483.1z"/>
		<path id="path3029-9_1_" class="st0" d="M-1714.1,540.6c-0.7-0.4-1.8-2.2-3.3-5.5c-0.8-1.8-1.7-3.6-2.1-4
			c-0.5-0.7-1.1-2.9-4.3-17.2c-2-9-3.7-16.5-3.6-16.5c0.3-0.3,9.5,2.5,12.3,3.8l1.4,0.6l0.3,2.1c0.6,4.3,0.8,11.6,0.7,23.8
			c-0.1,6.7-0.2,12.4-0.3,12.7C-1713.2,540.9-1713.5,540.9-1714.1,540.6L-1714.1,540.6z"/>
		<path id="path3031-6_1_" class="st1" d="M-1777.9,540.4c-0.2-1.1-0.7-18.7-0.7-25.8c0-7.3,0.2-9.5,1-11.3c0.2-0.5,0.6-1,0.9-1.2
			s2.3-0.9,4.6-1.6s4.9-1.8,5.9-2.3c1.7-0.8,1.8-0.9,1.7-0.4c-0.1,0.3-1.5,7.2-3.1,15.3c-2.7,13.2-3.1,14.9-3.7,15.7
			c-1,1.5-2.1,3.8-3.2,6.7c-1.3,3.4-1.6,4.1-2.6,4.9l-0.8,0.6L-1777.9,540.4L-1777.9,540.4z"/>
		<path id="path3033-4_1_" class="st1" d="M-1721.5,485.6c-2.8-1.6-5.5-2.4-7.6-2.1c-1.2,0.2-1.8,0.7-1.8,1.6v0.7l-2.2-0.5
			c-3.5-0.8-6.8-1.1-12.7-1.1c-5.8,0-8,0.2-12.3,1.1c-1.4,0.3-2.5,0.6-2.6,0.6s-0.1-0.2-0.1-0.4c0-0.8-0.5-1.9-1-2.1
			c-0.8-0.3-4.4,0.2-5.9,0.8c-0.8,0.3-1.4,0.5-1.4,0.5c-0.2-0.2,3.7-2.8,5.3-3.6c6.1-2.9,17.1-4.1,24.7-2.8c6.8,1.2,16.3,5,18.7,7.4
			C-1719.7,486.6-1720,486.5-1721.5,485.6L-1721.5,485.6z"/>
		<path id="path3035-0_1_" class="st1" d="M-1763.6,497.4c0.2-0.8,0.4-1.6,0.5-1.8c0.1-0.2,0.5-1.7,0.8-3.4c0.3-1.7,0.7-3.4,0.9-3.7
			c0.4-0.9,1.2-1.2,4.3-1.8c4-0.8,10.2-1.2,16.2-0.8c5,0.3,6.7,0.5,8.9,1.1l1.3,0.4l0.4,1.7c1.5,7.2,2,9.4,1.9,9.5
			c0,0-0.6-0.1-1.3-0.3c-8.4-2.9-22.7-2.8-32.3,0.2c-0.8,0.3-1.5,0.5-1.6,0.5C-1763.8,498.9-1763.7,498.3-1763.6,497.4
			L-1763.6,497.4z"/>
		<path id="path3037-8_1_" class="st1" d="M-1723.7,527.2c-3.2-3.2-8-7-13.8-10.6c-3.8-2.4-4.3-2.6-6.6-2.8
			c-2.3-0.2-3.9,0.3-7.7,2.1c-4.5,2.2-9.3,5.1-14.9,9c-1.2,0.9-2.3,1.6-2.3,1.5c-0.1-0.1,3.4-17.4,3.6-17.7c0.2-0.3,3.2-1.3,5.8-1.9
			c8.1-1.8,20-1.3,32.4,1.4l1.1,0.2l0.3,1.5c1.5,6.5,3.8,18.2,3.7,18.5C-1722.1,528.7-1722.8,528-1723.7,527.2L-1723.7,527.2
			L-1723.7,527.2z"/>
		<path id="path3039-5_1_" class="st1" d="M-1728,506.3c-2-0.6-6.3-1.4-9.2-1.8c-2.3-0.3-4.3-0.4-10.3-0.4c-7.8,0-10.3,0.2-15.5,1.5
			c-1.1,0.3-2,0.4-2,0.4s0-0.3,0.1-0.6c0.2-0.9,5.4-2.2,11.4-2.9c4.3-0.5,14.1-0.3,18.4,0.3c4.4,0.7,7.8,1.6,8.2,2.3
			c0.2,0.4,0.4,1.7,0.2,1.6C-1726.8,506.6-1727.4,506.5-1728,506.3L-1728,506.3L-1728,506.3z"/>
		<path id="path3041-7_1_" class="st1" d="M-1764.4,502c0.1-0.4,0.2-0.8,0.2-0.8c0-0.1,2.5-0.8,4.8-1.4c8.4-2.1,16.8-2.5,24.1-1
			c2.8,0.6,7,1.8,7.3,2.1c0.1,0.1,0.3,0.6,0.4,1l0.2,0.7l-2.1-0.6c-8.7-2.6-22-2.5-32.7,0.2C-1764.7,502.9-1764.6,502.9-1764.4,502
			L-1764.4,502z"/>
		<path id="path3043-8_1_" class="st0" d="M-1728.8,640.5c0-0.7,1.4-11.1,1.5-11.3c0.4-0.7,3.3-22.8,4-30.6c0.2-2.1,0.4-3.2,1.2-5.7
			c1.1-3.4,1.9-7.6,2.1-11.7c0.1-2.1,0.2-2.6,0.7-3.3c0.3-0.4,1.1-2.4,1.9-4.4l1.4-3.6v-8.2c0-4.5-0.1-10.6-0.2-13.5
			c-0.1-3.4-0.1-5.5,0.1-5.8c0.3-0.6,3.4-0.6,3.6,0c0.2,0.4,0,8.2-0.3,14.1c-0.5,8.9-0.2,16.3,0.9,29.3c1.3,14.5,1.4,22.3,0.4,30.9
			c-0.8,7.2-1.8,11.2-4,15.4c-1.1,2.1-4.5,5.2-7.5,6.7c-0.9,0.4-5.1,1.9-5.6,1.9C-1728.7,640.8-1728.8,640.7-1728.8,640.5
			L-1728.8,640.5z M-1724.8,629.1c0.8-1.8,3.2-10.1,5.2-18c2.6-10.3,4.3-15.7,4.8-15.8c0.9-0.2,1,0.5,1,6c0,3.3,0.1,5.8,0.3,6.5
			l0.3,1.2l0.2-1.2c0.1-0.7,0.3-4.6,0.4-8.7c0.3-8.3,0.1-16-0.6-19.1c-0.6-2.8-0.9-2.2-1.7,2.7c-1,6.3-8,36.8-8.6,37.3
			c-0.2,0.1-0.1-0.5,0.5-4.6c0.5-3.7,1.5-12.3,1.6-14.4c0.1-1.7,0.1-1.8-0.2-1.1c-0.7,1.4-4.4,26.8-4.5,29.9
			C-1726.1,630.8-1725.4,630.4-1724.8,629.1L-1724.8,629.1L-1724.8,629.1z"/>
		<path id="path3045-07_1_" class="st1" d="M-1764,639.9c-4-1.2-6.4-2.4-9.3-4.6c-1.6-1.2-1.8-1.5-2.6-3.2c-3.2-7-3.7-9.6-3.9-21.1
			c-0.2-7.4,0.1-13.2,0.9-23.7c0.3-3.7,0.6-7.2,0.6-7.7c0-0.6,0.1,3.4,0.1,8.9c0,8.8,0.1,10.3,0.5,13.5c0.3,2,0.5,3.6,0.6,3.7
			c0.1,0.1,0.2-1.9,0.3-4.4c0.2-4.4,0.4-6.5,0.7-6.8c0.1-0.1,0.3,0,0.5,0.2c0.3,0.3,0.8,2.5,1.6,7c1.9,10.3,2.7,13.5,5.1,21
			c1.5,4.7,3.2,8.1,4,8.1c0.4,0,0.4-0.2-0.2-2.8c-0.3-1.2-0.8-5.2-1.3-8.9c-0.9-7.8-1.7-12.2-2.7-16.2c-1.4-5.6-1.4-2.7-0.1,7.3
			c0.4,3.3,1,7.3,1.3,8.9c0.3,1.7,0.4,3.2,0.4,3.4c0,0.2-0.8-2.3-1.7-5.5c-1.4-5.1-1.8-7-2.9-13.4c-1.7-10.5-4.4-27.2-4.4-27.3
			c0-0.1-0.2-0.1-0.4-0.1c-0.5,0-0.7,0.2-0.9,1.2c-0.1,0.4-0.1-0.6,0-2.3c0.2-4,0.1-16.8-0.2-23.7c-0.1-3.1-0.2-6.3-0.1-7.1l0.1-1.4
			l1.4-0.4c0.7-0.2,1.4-0.4,1.5-0.3c0.1,0.1,0.1,3.6,0,7.7c-0.1,9.6-0.1,14.8,0.2,17.1c0.3,2.3,1.4,6.9,2,8.3
			c0.4,0.9,1.3,4.8,2.4,10.7c0.2,1,0.9,3.5,1.5,5.5c1,3,1.2,4,1.4,6.5c0.1,1.6,0.3,3,0.3,3.1c0.1,0.1,0.3,2,0.4,4.2
			c0.5,5.7,0.5,5.7,1.7,13.8c1.7,11.1,2.7,16.9,3.2,19.1c0.2,1.1,0.5,2.1,0.5,2.2C-1761.4,640.7-1762,640.6-1764,639.9L-1764,639.9
			L-1764,639.9z"/>
		<path id="path3047-7_1_" class="st0" d="M-1727.2,593.2c-2.4-0.3-31.6-0.8-34.8-0.6c-1.6,0.1-3.3,0.2-3.8,0.2h-0.9l-0.5-2.1
			c-0.9-3.5-1.6-7.2-2-10.3c-0.3-2.4-0.4-5.2-0.3-15.9c0-12.1,0.1-13.8,0.6-13.3c0.1,0.1,0.2,3,0.3,6.6c0.3,9.2,0.7,17.1,1.4,23
			c0.5,4.5,1.5,8.6,1.2,4.9c-0.1-0.9-0.3-4.4-0.6-7.7c-0.4-5.1-0.5-8.1-0.5-17v-10.8l1.3-0.2c2-0.3,26.4-0.4,34.6-0.2l7.6,0.2
			l0.3,0.7c0.4,0.8,0.4,1.6,0,10.6c-0.4,9.2-0.6,13.4-1.2,20.4c-0.3,3.3-0.4,6.2-0.4,6.5c0.1,0.9,0.6-1.4,1.2-5.9
			c0.9-6.9,1.4-12.7,1.7-22.5c0.1-4,0.3-7.4,0.5-7.6c0.1-0.2,0.2,1.7,0.1,5c-0.1,2.9-0.2,8.9-0.2,13.2c-0.2,11.9-0.9,18.4-2.5,22.1
			C-1724.5,593.5-1724.5,593.5-1727.2,593.2L-1727.2,593.2L-1727.2,593.2z"/>
		<path id="path3049-2_1_" class="st0" d="M-1749.9,642.7c-3.2-0.2-7.7-0.9-9.7-1.4c-1-0.3-1-0.3-1.4-1.9c-0.6-2.6-0.9-4.4-0.8-5
			c0.1-0.6,0.2-0.6,1.2-0.4c3.4,0.5,4.8,0.6,10,0.8c6.2,0.2,14.4,0,16.7-0.4c0.8-0.1,2.2-0.5,3-0.8l1.6-0.5v1.5
			c0,1.4-0.3,4.3-0.6,6.1c-0.1,0.7-0.2,0.7-2.1,1.1C-1737.6,642.7-1743.8,643-1749.9,642.7L-1749.9,642.7L-1749.9,642.7z"/>
		<path id="path3051-6_1_" class="st2" d="M-1779.1,628c-0.7-0.8-1.9-3.8-2.3-5.5c-0.7-3-1-7.6-0.8-13.7c0.2-9,1.1-19.9,1.8-22.7
			c0.9-3.7,1.3-13.2,1.2-28.4c-0.1-7.3-0.1-12.5,0.1-12.3c0.1,0.2,0.2,7.4,0.3,16.1l0.1,15.7l-0.7,8.1c-1.2,13.3-1.3,15.6-1.1,24
			c0.2,9,0.6,13.6,1.5,16.8C-1778.6,628.2-1778.6,628.7-1779.1,628L-1779.1,628z"/>
		<path id="path3053-9_1_" class="st2" d="M-1712.4,628.3c0-0.1,0.3-1.6,0.7-3.2c0.9-4.2,1.3-6.7,1.7-12.8c0.5-7.1,0.2-14.1-1.4-30
			l-0.8-8.1l0.2-12.2c0.1-6.7,0.2-13.3,0.3-14.6c0.1-1.3,0.1,4,0.1,11.7c0,9.9,0.1,15,0.3,17c0.2,1.6,0.5,5.5,0.9,8.7
			c0.3,3.2,0.7,7.3,0.9,9.1c0.2,1.8,0.5,4.2,0.6,5.2c0.3,2.8,0.3,15,0,18.9c-0.3,3.6-0.7,5.1-2.2,8.5
			C-1712.1,628.4-1712.4,628.9-1712.4,628.3L-1712.4,628.3z"/>
		<path id="path3055-77_1_" class="st2" d="M-1706.6,547.2c-0.5-0.2-1.5-1-2.2-1.7c-1-1-1.3-1.4-1.3-1.8c0.2-1.2,2.3-0.4,4,1.5
			c0.9,1.1,1,1.3,0.8,2C-1705.5,547.8-1705.5,547.7-1706.6,547.2L-1706.6,547.2z"/>
		<path id="path3057-77_1_" class="st2" d="M-1711.7,536.5c0-2.2,0.1-8.4,0.2-13.9c0.2-10.2,0.1-13.8-0.6-18.2
			c-0.5-3.2-0.9-4.6-2.1-7.3c-1.2-2.6-2.4-6.1-2.2-6.3c0.2-0.2,2.4,3.1,3.2,4.8c0.8,1.7,1.9,5.5,2.5,8.5s0.7,8.7,0.3,14
			c-0.2,2.5-0.5,8.5-0.6,13.2c-0.1,4.8-0.3,8.8-0.5,8.9C-1711.7,540.4-1711.7,539-1711.7,536.5L-1711.7,536.5L-1711.7,536.5z"/>
		<path id="path3059-9_1_" class="st2" d="M-1779.5,537.8c-0.1-1.5-0.3-4.5-0.4-6.6c-0.1-2.1-0.4-5.6-0.7-7.6
			c-0.3-2.1-0.5-6-0.6-8.8c-0.2-6.4,0.2-9.9,1.6-13.9c0.9-2.7,3.5-8.5,3.8-8.2c0.1,0.1-0.7,2.5-1.6,5.4c-2.4,7.2-2.5,7.9-2.3,17.7
			c0.1,4.3,0.2,9.5,0.4,11.7c0.1,2.2,0.2,6,0.2,8.5l-0.1,4.6L-1779.5,537.8L-1779.5,537.8z"/>
		<path id="path3061-0_1_" class="st2" d="M-1785.8,547c-0.4-0.8,0.9-2.3,2.9-3.3c1.7-0.9,2.8,0.2,1.5,1.4c-0.7,0.6-2.6,1.8-3.6,2.1
			C-1785.4,547.4-1785.6,547.4-1785.8,547L-1785.8,547z"/>
		<path id="path3063-0_1_" class="st2" d="M-1749.3,631.1c-5.2-0.5-9.4-1.3-10-2c-0.1-0.2-0.5-1.1-0.8-2.1c-1.2-3.7-2-7.8-2.5-13.3
			c-0.5-4.9-1.4-18.7-1.2-18.9c0.2-0.2,35.1-0.2,35.9,0l0.6,0.2l-0.3,5.9c-0.5,11.2-2.2,24.7-3.4,28c-0.4,1.1-1.1,1.5-3.3,1.9
			C-1735.7,631.1-1747.3,631.3-1749.3,631.1L-1749.3,631.1L-1749.3,631.1z"/>
		<path id="path3065-0_1_" class="st3" d="M-1768.2,546.8c-1.8-0.3-3.1-2.4-3.8-6.3c-0.4-2-0.3-3.4,0.4-5.4c1.1-3.1,3.4-6,6.9-8.5
			c2-1.4,15.6-9.5,17-10.1c0.7-0.3,1.5-0.4,2.8-0.4c1.6,0,1.9,0.1,3.5,0.9c4,2.1,12.1,8.5,18.3,14.6c2.4,2.4,2.8,2.9,3.1,3.9
			c0.4,1.6,0.9,5.8,0.8,7.1c-0.2,1.7-1,3.2-2.1,3.8c-0.9,0.4-1.4,0.5-23.3,0.5C-1757.1,546.9-1767.7,546.9-1768.2,546.8
			L-1768.2,546.8L-1768.2,546.8z"/>
		<path id="path3067-5_1_" class="st3" d="M-1772.7,570.4l-0.9-2.6l0.1-10.7c0-5.9,0.1-11.1,0.2-11.5l0.1-0.7l0.9,1.3l0.9,1.3v7.8
			c0,4.3-0.1,10-0.2,12.8l-0.2,5L-1772.7,570.4L-1772.7,570.4z"/>
		<path id="path3069-75_1_" class="st3" d="M-1719.7,561.8c0-11.5,0-13.1,0.3-13.5c0.2-0.2,0.6-1.1,1-1.9l0.6-1.5l0.2,11.7l0.2,11.7
			l-1,2.9c-0.5,1.6-1,3.1-1.2,3.3C-1719.6,574.7-1719.7,569.2-1719.7,561.8L-1719.7,561.8z"/>
		<path id="path3071-6_1_" class="st5" d="M-1716.3,499.6c-0.7-0.4-2.8-1.1-6.2-2c-3.7-1-4.6-1.4-5-2c-0.5-1-2-9.7-1.7-10.5
			c0.2-0.6,1-0.5,3,0.2c4,1.6,6.6,3.6,8.1,6.4c0.8,1.4,2.2,5.2,2.5,6.7C-1715.4,499.3-1715.8,499.9-1716.3,499.6L-1716.3,499.6
			L-1716.3,499.6z"/>
		<path id="path3073-8_1_" class="st5" d="M-1775.8,499.9c-0.5-1.3,0.3-4.9,1.7-7.8c1.7-3.6,5.4-6.6,9-7.3c1.1-0.2,1.4-0.2,1.8,0.1
			c0.7,0.5,0.8,1,0.4,3.8c-0.6,5.2-1.3,6.8-3.1,7.8c-0.9,0.5-9.1,3.8-9.5,3.8C-1775.6,500.3-1775.8,500.1-1775.8,499.9
			L-1775.8,499.9z"/>
	</g>
</g>
</svg>
