<?xml version="1.0" encoding="utf-8"?>
<!-- Generator: Adobe Illustrator 23.0.1, SVG Export Plug-In . SVG Version: 6.00 Build 0)  -->
<svg version="1.1" id="Layer_1" xmlns="http://www.w3.org/2000/svg" xmlns:xlink="http://www.w3.org/1999/xlink" x="0px" y="0px"
	 viewBox="0 0 257 167" style="enable-background:new 0 0 257 167;" xml:space="preserve">
<style type="text/css">
	.st0{fill-rule:evenodd;clip-rule:evenodd;fill:#0066FF;stroke:#000000;stroke-width:0.6031;}
	.st1{fill-rule:evenodd;clip-rule:evenodd;fill:#002255;stroke:#000000;stroke-width:0.6031;}
	.st2{fill-rule:evenodd;clip-rule:evenodd;fill:#333333;stroke:#000000;stroke-width:0.6031;}
	.st3{fill-rule:evenodd;clip-rule:evenodd;fill:#F5E900;stroke:#000000;stroke-width:0.6031;}
	.st4{fill-rule:evenodd;clip-rule:evenodd;fill:#999999;stroke:#000000;stroke-width:0.6031;}
</style>
<g id="layer1" transform="translate(445.68745,-242.71932)">
	<g id="car-blinker-right" transform="translate(1432.412,-267.60354)">
		<path id="path2995-4-8-2_2_" d="M-1686.3,516.4c2.1-1.6,4.5-2.8,7-3.7c3.2-1.2,6.5-1.8,9.9-2.1c4.8-0.4,9.8-0.4,14.6,0.4
			c3.8,0.6,7.6,1.7,11.1,3.3c2.9,1.3,5.6,3.2,8,5.3c1.7,1.4,3.2,3.1,4.5,5c1.2,1.8,2.1,3.9,2.8,6c0.9,2.7,1.1,5.6,1.5,8.4
			c0.6,3.6,0.3,12.4-0.3,16.1c-0.2,1.3-0.5,6.4-0.6,11.1l-0.2,8.7l1.2,0.4c1.4,0.6,2.7,1.7,3.7,2.8c1.7,1.8,2.2,3.7,1.1,4.1
			c-0.8,0.3-5.5-2.2-5.9-3.1c-0.2-0.6-0.9,18.2-0.7,22.4c0.1,3.9,0.5,6.3,0.8,9.5c0.3,4.1,0.8,8,1,11.9c0.2,1.6,0.4,4,0.5,4.7
			c1,8.8,1.1,11.7,1,19.1c-0.1,6.7-0.6,9.2-1.1,10.8c-0.7,2.1-2.5,6.9-4.9,10c-1.4,1.8-3.2,3.3-5.2,4.5c-1.2,0.8-2.6,1.3-3.9,1.8
			c-4,1.4-9.3,2.7-12.4,3.1c-3.8,0.5-9.2,0.6-9.8,0.5l-2.8,0c-0.6,0-2.9-0.3-4.5-0.4c-1,0-2.6-0.2-3.5-0.4c-0.9-0.2-2.8-0.6-4.2-0.8
			c-1.3-0.1-11.9-3.6-13.9-5.5c-1.3-0.8-3-2.2-3.5-3.7c-3.1-4.1-4.9-9.1-5.6-14.1c-0.6-4.1,0.4-18.6,1.2-27.8
			c0.4-4.3,1.5-8.5,1.7-12.9c0.4-8.2,0.3-13.2,0.2-19.8c0-2.5-0.1-4.8-0.2-7.4c-0.1-2.6-0.2-4.8-0.3-4.8s-1.3,0.5-2.7,1.2
			c-3.5,1.7-4.2,1.7-3.9,0c0.4-2.1,3.9-5.3,5.8-5.2c0.8,0,0.5-3,0.6-4.6c0.1-1.4,0-4.3,0-4.3c-0.2-5.2-0.7-10-1.3-13.6
			c-0.8-5.1-0.2-15.4,1.3-19.8c0.6-1.9,1.9-4.5,3.2-6.6C-1692.5,522.3-1689.5,518.7-1686.3,516.4L-1686.3,516.4z"/>
		<path id="path3029-98_2_" class="st0" d="M-1631.6,573.9c-0.7-0.4-1.8-2.2-3.3-5.5c-0.8-1.8-1.7-3.6-2.1-4
			c-0.5-0.7-1.1-2.9-4.3-17.2c-2-9-3.7-16.5-3.6-16.5c0.3-0.3,9.5,2.5,12.3,3.8l1.4,0.6l0.3,2.1c0.6,4.3,0.8,11.6,0.7,23.8
			c-0.1,6.7-0.2,12.4-0.3,12.7C-1630.7,574.2-1631,574.2-1631.6,573.9L-1631.6,573.9z"/>
		<path id="path3031-5_2_" class="st0" d="M-1695.4,573.7c-0.2-1.1-0.7-18.7-0.7-25.8c0-7.3,0.2-9.5,1-11.3c0.2-0.5,0.6-1,0.9-1.2
			s2.3-0.9,4.6-1.6s4.9-1.8,5.9-2.3c1.7-0.8,1.8-0.9,1.7-0.4c-0.1,0.3-1.5,7.2-3.1,15.3c-2.7,13.2-3.1,14.9-3.7,15.7
			c-1,1.5-2.1,3.8-3.2,6.7c-1.3,3.4-1.6,4.1-2.6,4.9l-0.8,0.6L-1695.4,573.7L-1695.4,573.7L-1695.4,573.7z"/>
		<path id="path3033-0_2_" class="st0" d="M-1639.1,518.9c-2.8-1.6-5.5-2.4-7.6-2.1c-1.2,0.2-1.8,0.7-1.8,1.6v0.7l-2.2-0.5
			c-3.5-0.8-6.8-1.1-12.7-1.1c-5.8,0-8,0.2-12.3,1.1c-1.4,0.3-2.5,0.6-2.6,0.6s-0.1-0.2-0.1-0.4c0-0.8-0.5-1.9-1-2.1
			c-0.8-0.3-4.4,0.2-5.9,0.8c-0.8,0.3-1.4,0.5-1.4,0.5c-0.2-0.2,3.7-2.8,5.3-3.6c6.1-2.9,17.1-4.1,24.7-2.8c6.8,1.2,16.3,5,18.7,7.4
			C-1637.2,519.8-1637.5,519.8-1639.1,518.9L-1639.1,518.9L-1639.1,518.9z"/>
		<path id="path3035-9_2_" class="st0" d="M-1681.1,530.7c0.2-0.8,0.4-1.6,0.5-1.8s0.5-1.7,0.8-3.4c0.3-1.7,0.7-3.4,0.9-3.7
			c0.4-0.9,1.2-1.2,4.3-1.8c4-0.8,10.2-1.2,16.2-0.8c5,0.3,6.7,0.5,8.9,1.1l1.3,0.4l0.4,1.7c1.5,7.2,2,9.4,1.9,9.5
			c0,0-0.6-0.1-1.3-0.3c-8.4-2.9-22.7-2.8-32.3,0.2c-0.8,0.3-1.5,0.5-1.6,0.5C-1681.3,532.2-1681.3,531.5-1681.1,530.7
			L-1681.1,530.7z"/>
		<path id="path3037-2_2_" class="st0" d="M-1641.3,560.4c-3.2-3.2-8-7-13.8-10.6c-3.8-2.4-4.3-2.6-6.6-2.8
			c-2.3-0.2-3.9,0.3-7.7,2.1c-4.5,2.2-9.3,5.1-14.9,9c-1.2,0.9-2.3,1.6-2.3,1.5c-0.1-0.1,3.4-17.4,3.6-17.7c0.2-0.3,3.2-1.3,5.8-1.9
			c8.1-1.8,20-1.3,32.4,1.4l1.1,0.2l0.3,1.5c1.5,6.5,3.8,18.2,3.7,18.5C-1639.6,561.9-1640.4,561.3-1641.3,560.4L-1641.3,560.4
			L-1641.3,560.4z"/>
		<path id="path3039-8_2_" class="st0" d="M-1645.6,539.6c-2-0.6-6.3-1.4-9.2-1.8c-2.3-0.3-4.3-0.4-10.3-0.4
			c-7.8,0-10.3,0.2-15.5,1.5c-1.1,0.3-2,0.4-2,0.4c0,0,0-0.3,0.1-0.6c0.2-0.9,5.4-2.2,11.4-2.9c4.3-0.5,14.1-0.3,18.4,0.3
			c4.4,0.7,7.8,1.6,8.2,2.3c0.2,0.4,0.4,1.7,0.2,1.6C-1644.4,539.9-1645,539.8-1645.6,539.6L-1645.6,539.6L-1645.6,539.6z"/>
		<path id="path3041-3_2_" class="st0" d="M-1681.9,535.3c0.1-0.4,0.2-0.8,0.2-0.8c0-0.1,2.5-0.8,4.8-1.4c8.4-2.1,16.8-2.5,24.1-1
			c2.8,0.6,7,1.8,7.3,2.1c0.1,0.1,0.3,0.6,0.4,1l0.2,0.7l-2.1-0.6c-8.7-2.6-22-2.5-32.7,0.2
			C-1682.2,536.2-1682.2,536.2-1681.9,535.3L-1681.9,535.3z"/>
		<path id="path3043-0_2_" class="st0" d="M-1646.4,673.8c0-0.7,1.4-11.1,1.5-11.3c0.4-0.7,3.3-22.8,4-30.6c0.2-2.1,0.4-3.2,1.2-5.7
			c1.1-3.4,1.9-7.6,2.1-11.7c0.1-2.1,0.2-2.6,0.7-3.3c0.3-0.4,1.1-2.4,1.9-4.4l1.4-3.6l0-8.2c0-4.5-0.1-10.6-0.2-13.5
			c-0.1-3.4-0.1-5.5,0.1-5.8c0.3-0.6,3.4-0.6,3.6,0c0.2,0.4,0,8.2-0.3,14.1c-0.5,8.9-0.2,16.3,0.9,29.3c1.3,14.5,1.4,22.3,0.4,30.9
			c-0.8,7.2-1.8,11.2-4,15.4c-1.1,2.1-4.5,5.2-7.5,6.7c-0.9,0.4-5.1,1.9-5.6,1.9C-1646.3,674.1-1646.4,674-1646.4,673.8
			L-1646.4,673.8z M-1642.4,662.3c0.8-1.8,3.2-10.1,5.2-18c2.6-10.3,4.3-15.7,4.8-15.8c0.9-0.2,1,0.5,1,6c0,3.3,0.1,5.8,0.3,6.5
			l0.3,1.2l0.2-1.2c0.1-0.7,0.3-4.6,0.4-8.7c0.3-8.3,0.1-16-0.6-19.1c-0.6-2.8-0.9-2.2-1.7,2.7c-1,6.3-8,36.8-8.6,37.3
			c-0.2,0.1-0.1-0.5,0.5-4.6c0.5-3.7,1.5-12.3,1.6-14.4c0.1-1.7,0.1-1.8-0.2-1.1c-0.7,1.4-4.4,26.8-4.5,29.9
			C-1643.6,664.1-1643,663.7-1642.4,662.3L-1642.4,662.3L-1642.4,662.3z"/>
		<path id="path3045-9_2_" class="st0" d="M-1681.6,673.2c-4-1.2-6.4-2.4-9.3-4.6c-1.6-1.2-1.8-1.5-2.6-3.2c-3.2-7-3.7-9.6-3.9-21.1
			c-0.2-7.4,0.1-13.2,0.9-23.7c0.3-3.7,0.6-7.2,0.6-7.7c0-0.6,0.1,3.4,0.1,8.9c0,8.8,0.1,10.3,0.5,13.5c0.3,2,0.5,3.6,0.6,3.7
			c0.1,0.1,0.2-1.9,0.3-4.4c0.2-4.4,0.4-6.5,0.7-6.8c0.1-0.1,0.3,0,0.5,0.2c0.3,0.3,0.8,2.5,1.6,7c1.9,10.3,2.7,13.5,5.1,21
			c1.5,4.7,3.2,8.1,4,8.1c0.4,0,0.4-0.2-0.2-2.8c-0.3-1.2-0.8-5.2-1.3-8.9c-0.9-7.8-1.7-12.2-2.7-16.2c-1.4-5.6-1.4-2.7-0.1,7.3
			c0.4,3.3,1,7.3,1.3,8.9c0.3,1.7,0.4,3.2,0.4,3.4s-0.8-2.3-1.7-5.5c-1.4-5.1-1.8-7-2.9-13.4c-1.7-10.5-4.4-27.2-4.4-27.3
			c0-0.1-0.2-0.1-0.4-0.1c-0.5,0-0.7,0.2-0.9,1.2c-0.1,0.4-0.1-0.6,0-2.3c0.2-4,0.1-16.8-0.2-23.7c-0.1-3.1-0.2-6.3-0.1-7.1l0.1-1.4
			l1.4-0.4c0.7-0.2,1.4-0.4,1.5-0.3c0.1,0.1,0.1,3.6,0,7.7c-0.1,9.6-0.1,14.8,0.2,17.1c0.3,2.3,1.4,6.9,2,8.3
			c0.4,0.9,1.3,4.8,2.4,10.7c0.2,1,0.9,3.5,1.5,5.5c1,3,1.2,4,1.4,6.5c0.1,1.6,0.3,3,0.3,3.1c0.1,0.1,0.3,2,0.4,4.2
			c0.5,5.7,0.5,5.7,1.7,13.8c1.7,11.1,2.7,16.9,3.2,19.1c0.2,1.1,0.5,2.1,0.5,2.2C-1679,674-1679.5,673.9-1681.6,673.2
			L-1681.6,673.2L-1681.6,673.2z"/>
		<path id="path3047-3_2_" class="st0" d="M-1644.8,626.5c-2.4-0.3-31.6-0.8-34.8-0.6c-1.6,0.1-3.3,0.2-3.8,0.2l-0.9,0l-0.5-2.1
			c-0.9-3.5-1.6-7.2-2-10.3c-0.3-2.4-0.4-5.2-0.3-15.9c0-12.1,0.1-13.8,0.6-13.3c0.1,0.1,0.2,3,0.3,6.6c0.3,9.2,0.7,17.1,1.4,23
			c0.5,4.5,1.5,8.6,1.2,4.9c-0.1-0.9-0.3-4.4-0.6-7.7c-0.4-5.1-0.5-8.1-0.5-17l0-10.8l1.3-0.2c2-0.3,26.4-0.4,34.6-0.2l7.6,0.2
			l0.3,0.7c0.4,0.8,0.4,1.6,0,10.6c-0.4,9.2-0.6,13.4-1.2,20.4c-0.3,3.3-0.4,6.2-0.4,6.5c0.1,0.9,0.6-1.4,1.2-5.9
			c0.9-6.9,1.4-12.7,1.7-22.5c0.1-4,0.3-7.4,0.5-7.6c0.1-0.2,0.2,1.7,0.1,5c-0.1,2.9-0.2,8.9-0.2,13.2c-0.2,11.9-0.9,18.4-2.5,22.1
			C-1642.1,626.8-1642,626.8-1644.8,626.5L-1644.8,626.5L-1644.8,626.5z"/>
		<path id="path3049-39_2_" class="st0" d="M-1667.5,675.9c-3.2-0.2-7.7-0.9-9.7-1.4c-1-0.3-1-0.3-1.4-1.9c-0.6-2.6-0.9-4.4-0.8-5
			c0.1-0.6,0.2-0.6,1.2-0.4c3.4,0.5,4.8,0.6,10,0.8c6.2,0.2,14.4,0,16.7-0.4c0.8-0.1,2.2-0.5,3-0.8l1.6-0.5v1.5
			c0,1.4-0.3,4.3-0.6,6.1c-0.1,0.7-0.2,0.7-2.1,1.1C-1655.1,675.9-1661.4,676.3-1667.5,675.9L-1667.5,675.9L-1667.5,675.9z"/>
		<path id="path3051-2_2_" class="st1" d="M-1696.7,661.3c-0.7-0.8-1.9-3.8-2.3-5.5c-0.7-3-1-7.6-0.8-13.7c0.2-9,1.1-19.9,1.8-22.7
			c0.9-3.7,1.3-13.2,1.2-28.4c-0.1-7.3-0.1-12.5,0.1-12.3c0.1,0.2,0.2,7.4,0.3,16.1l0.1,15.7l-0.7,8.1c-1.2,13.3-1.3,15.6-1.1,24
			c0.2,9,0.6,13.6,1.5,16.8C-1696.1,661.4-1696.1,662-1696.7,661.3L-1696.7,661.3L-1696.7,661.3z"/>
		<path id="path3053-8_2_" class="st1" d="M-1630,661.6c0-0.1,0.3-1.6,0.7-3.2c0.9-4.2,1.3-6.7,1.7-12.8c0.5-7.1,0.2-14.1-1.4-30
			l-0.8-8.1l0.2-12.2c0.1-6.7,0.2-13.3,0.3-14.6c0.1-1.3,0.1,4,0.1,11.7c0,9.9,0.1,15,0.3,17c0.2,1.6,0.5,5.5,0.9,8.7
			c0.3,3.2,0.7,7.3,0.9,9.1s0.5,4.2,0.6,5.2c0.3,2.8,0.3,15,0,18.9c-0.3,3.6-0.7,5.1-2.2,8.5C-1629.7,661.7-1630,662.2-1630,661.6
			L-1630,661.6z"/>
		<path id="path3055-5_2_" class="st1" d="M-1624.2,580.5c-0.5-0.2-1.5-1-2.2-1.7c-1-1-1.3-1.4-1.3-1.8c0.2-1.2,2.3-0.4,4,1.5
			c0.9,1.1,1,1.3,0.8,2C-1623,581-1623.1,581-1624.2,580.5z"/>
		<path id="path3057-3_2_" class="st1" d="M-1629.3,569.8c0-2.2,0.1-8.4,0.2-13.9c0.2-10.2,0.1-13.8-0.6-18.2
			c-0.5-3.2-0.9-4.6-2.1-7.3c-1.2-2.6-2.4-6.1-2.2-6.3c0.2-0.2,2.4,3.1,3.2,4.8c0.8,1.7,1.9,5.5,2.5,8.5c0.6,3,0.7,8.7,0.3,14
			c-0.2,2.5-0.5,8.5-0.6,13.2c-0.1,4.8-0.3,8.8-0.5,8.9C-1629.2,573.7-1629.3,572.3-1629.3,569.8L-1629.3,569.8L-1629.3,569.8z"/>
		<path id="path3059-3_2_" class="st1" d="M-1697,571c-0.1-1.5-0.3-4.5-0.4-6.6c-0.1-2.1-0.4-5.6-0.7-7.6s-0.5-6-0.6-8.8
			c-0.2-6.4,0.2-9.9,1.6-13.9c0.9-2.7,3.5-8.5,3.8-8.2c0.1,0.1-0.7,2.5-1.6,5.4c-2.4,7.2-2.5,7.9-2.3,17.7c0.1,4.3,0.2,9.5,0.4,11.7
			c0.1,2.2,0.2,6,0.2,8.5l-0.1,4.6L-1697,571z"/>
		<path id="path3061-3_2_" class="st1" d="M-1703.3,580.3c-0.4-0.8,0.9-2.3,2.9-3.3c1.7-0.9,2.8,0.2,1.5,1.4
			c-0.7,0.6-2.6,1.8-3.6,2.1C-1703,580.7-1703.1,580.6-1703.3,580.3L-1703.3,580.3z"/>
		<path id="path3063-40_2_" class="st1" d="M-1666.9,664.4c-5.2-0.5-9.4-1.3-10-2c-0.1-0.2-0.5-1.1-0.8-2.1c-1.2-3.7-2-7.8-2.5-13.3
			c-0.5-4.9-1.4-18.7-1.2-18.9c0.2-0.2,35.1-0.2,35.9,0l0.6,0.2l-0.3,5.9c-0.5,11.2-2.2,24.7-3.4,28c-0.4,1.1-1.1,1.5-3.3,1.9
			C-1653.3,664.3-1664.8,664.6-1666.9,664.4L-1666.9,664.4L-1666.9,664.4z"/>
		<path id="path3065-6_2_" class="st2" d="M-1685.8,580c-1.8-0.3-3.1-2.4-3.8-6.3c-0.4-2-0.3-3.4,0.4-5.4c1.1-3.1,3.4-6,6.9-8.5
			c2-1.4,15.6-9.5,17-10.1c0.7-0.3,1.5-0.4,2.8-0.4c1.6,0,1.9,0.1,3.5,0.9c4,2.1,12.1,8.5,18.3,14.6c2.4,2.4,2.8,2.9,3.1,3.9
			c0.4,1.6,0.9,5.8,0.8,7.1c-0.2,1.7-1,3.2-2.1,3.8c-0.9,0.4-1.4,0.5-23.3,0.5C-1674.7,580.2-1685.2,580.1-1685.8,580L-1685.8,580
			L-1685.8,580z"/>
		<path id="path3067-06_2_" class="st2" d="M-1690.2,603.7l-0.9-2.6l0.1-10.7c0-5.9,0.1-11.1,0.2-11.5l0.1-0.7l0.9,1.3l0.9,1.3
			l0,7.8c0,4.3-0.1,10-0.2,12.8l-0.2,5L-1690.2,603.7z"/>
		<path id="path3069-5_2_" class="st2" d="M-1637.3,595.1c0-11.5,0-13.1,0.3-13.5c0.2-0.2,0.6-1.1,1-1.9l0.6-1.5l0.2,11.7l0.2,11.7
			l-1,2.9c-0.5,1.6-1,3.1-1.2,3.3C-1637.2,608-1637.3,602.5-1637.3,595.1z"/>
		<path id="path3071-3_2_" class="st3" d="M-1633.9,532.9c-0.7-0.4-2.8-1.1-6.2-2c-3.7-1-4.6-1.4-5-2c-0.5-1-2-9.7-1.7-10.5
			c0.2-0.6,1-0.5,3,0.2c4,1.6,6.6,3.6,8.1,6.4c0.8,1.4,2.2,5.2,2.5,6.7C-1632.9,532.5-1633.3,533.2-1633.9,532.9L-1633.9,532.9
			L-1633.9,532.9z"/>
		<path id="path3073-2_2_" class="st4" d="M-1693.4,533.2c-0.5-1.3,0.3-4.9,1.7-7.8c1.7-3.6,5.4-6.6,9-7.3c1.1-0.2,1.4-0.2,1.8,0.1
			c0.7,0.5,0.8,1,0.4,3.8c-0.6,5.2-1.3,6.8-3.1,7.8c-0.9,0.5-9.1,3.8-9.5,3.8C-1693.2,533.6-1693.3,533.4-1693.4,533.2
			L-1693.4,533.2z"/>
	</g>
	<g id="car-blinker-left" transform="translate(1432.412,-267.60354)">
		<path id="path2995-4-8-2_1_" d="M-1773.3,516.4c2.1-1.6,4.5-2.8,7-3.7c3.2-1.2,6.5-1.8,9.9-2.1c4.8-0.4,9.8-0.4,14.6,0.4
			c3.8,0.6,7.6,1.7,11.1,3.3c2.9,1.3,5.6,3.2,8,5.3c1.7,1.4,3.2,3.1,4.5,5c1.2,1.8,2.1,3.9,2.8,6c0.9,2.7,1.1,5.6,1.5,8.4
			c0.6,3.6,0.3,12.4-0.3,16.1c-0.2,1.3-0.5,6.4-0.6,11.1l-0.2,8.7l1.2,0.4c1.4,0.6,2.7,1.7,3.7,2.8c1.7,1.8,2.2,3.7,1.1,4.1
			c-0.8,0.3-5.5-2.2-5.9-3.1c-0.2-0.6-0.9,18.2-0.7,22.4c0.1,3.9,0.5,6.3,0.8,9.5c0.3,4.1,0.8,8,1,11.9c0.2,1.6,0.4,4,0.5,4.7
			c1,8.8,1.1,11.7,1,19.1c-0.1,6.7-0.6,9.2-1.1,10.8c-0.7,2.1-2.5,6.9-4.9,10c-1.4,1.8-3.2,3.3-5.2,4.5c-1.2,0.8-2.6,1.3-3.9,1.8
			c-4,1.4-9.3,2.7-12.4,3.1c-3.8,0.5-9.2,0.6-9.8,0.5l-2.8,0c-0.6,0-2.9-0.3-4.5-0.4c-1,0-2.6-0.2-3.5-0.4c-0.9-0.2-2.8-0.6-4.2-0.8
			c-1.3-0.1-11.9-3.6-13.9-5.5c-1.3-0.8-3-2.2-3.5-3.7c-3.1-4.1-4.9-9.1-5.6-14.1c-0.6-4.1,0.4-18.6,1.2-27.8
			c0.4-4.3,1.5-8.5,1.7-12.9c0.4-8.2,0.3-13.2,0.2-19.8c0-2.5-0.1-4.8-0.2-7.4c-0.1-2.6-0.2-4.8-0.3-4.8s-1.3,0.5-2.7,1.2
			c-3.5,1.7-4.2,1.7-3.9,0c0.4-2.1,3.9-5.3,5.8-5.2c0.8,0,0.5-3,0.6-4.6c0.1-1.4,0-4.3,0-4.3c-0.2-5.2-0.7-10-1.3-13.6
			c-0.8-5.1-0.2-15.4,1.3-19.8c0.6-1.9,1.9-4.5,3.2-6.6C-1779.5,522.3-1776.5,518.7-1773.3,516.4L-1773.3,516.4z"/>
		<path id="path3029-98_1_" class="st0" d="M-1718.6,573.9c-0.7-0.4-1.8-2.2-3.3-5.5c-0.8-1.8-1.7-3.6-2.1-4
			c-0.5-0.7-1.1-2.9-4.3-17.2c-2-9-3.7-16.5-3.6-16.5c0.3-0.3,9.5,2.5,12.3,3.8l1.4,0.6l0.3,2.1c0.6,4.3,0.8,11.6,0.7,23.8
			c-0.1,6.7-0.2,12.4-0.3,12.7C-1717.7,574.2-1718,574.2-1718.6,573.9L-1718.6,573.9z"/>
		<path id="path3031-5_1_" class="st0" d="M-1782.4,573.7c-0.2-1.1-0.7-18.7-0.7-25.8c0-7.3,0.2-9.5,1-11.3c0.2-0.5,0.6-1,0.9-1.2
			s2.3-0.9,4.6-1.6s4.9-1.8,5.9-2.3c1.7-0.8,1.8-0.9,1.7-0.4c-0.1,0.3-1.5,7.2-3.1,15.3c-2.7,13.2-3.1,14.9-3.7,15.7
			c-1,1.5-2.1,3.8-3.2,6.7c-1.3,3.4-1.6,4.1-2.6,4.9l-0.8,0.6L-1782.4,573.7L-1782.4,573.7L-1782.4,573.7z"/>
		<path id="path3033-0_1_" class="st0" d="M-1726.1,518.9c-2.8-1.6-5.5-2.4-7.6-2.1c-1.2,0.2-1.8,0.7-1.8,1.6v0.7l-2.2-0.5
			c-3.5-0.8-6.8-1.1-12.7-1.1c-5.8,0-8,0.2-12.3,1.1c-1.4,0.3-2.5,0.6-2.6,0.6s-0.1-0.2-0.1-0.4c0-0.8-0.5-1.9-1-2.1
			c-0.8-0.3-4.4,0.2-5.9,0.8c-0.8,0.3-1.4,0.5-1.4,0.5c-0.2-0.2,3.7-2.8,5.3-3.6c6.1-2.9,17.1-4.1,24.7-2.8c6.8,1.2,16.3,5,18.7,7.4
			C-1724.2,519.8-1724.5,519.8-1726.1,518.9L-1726.1,518.9L-1726.1,518.9z"/>
		<path id="path3035-9_1_" class="st0" d="M-1768.1,530.7c0.2-0.8,0.4-1.6,0.5-1.8s0.5-1.7,0.8-3.4c0.3-1.7,0.7-3.4,0.9-3.7
			c0.4-0.9,1.2-1.2,4.3-1.8c4-0.8,10.2-1.2,16.2-0.8c5,0.3,6.7,0.5,8.9,1.1l1.3,0.4l0.4,1.7c1.5,7.2,2,9.4,1.9,9.5
			c0,0-0.6-0.1-1.3-0.3c-8.4-2.9-22.7-2.8-32.3,0.2c-0.8,0.3-1.5,0.5-1.6,0.5C-1768.3,532.2-1768.3,531.5-1768.1,530.7
			L-1768.1,530.7z"/>
		<path id="path3037-2_1_" class="st0" d="M-1728.3,560.4c-3.2-3.2-8-7-13.8-10.6c-3.8-2.4-4.3-2.6-6.6-2.8
			c-2.3-0.2-3.9,0.3-7.7,2.1c-4.5,2.2-9.3,5.1-14.9,9c-1.2,0.9-2.3,1.6-2.3,1.5c-0.1-0.1,3.4-17.4,3.6-17.7c0.2-0.3,3.2-1.3,5.8-1.9
			c8.1-1.8,20-1.3,32.4,1.4l1.1,0.2l0.3,1.5c1.5,6.5,3.8,18.2,3.7,18.5C-1726.6,561.9-1727.4,561.3-1728.3,560.4L-1728.3,560.4
			L-1728.3,560.4z"/>
		<path id="path3039-8_1_" class="st0" d="M-1732.6,539.6c-2-0.6-6.3-1.4-9.2-1.8c-2.3-0.3-4.3-0.4-10.3-0.4
			c-7.8,0-10.3,0.2-15.5,1.5c-1.1,0.3-2,0.4-2,0.4c0,0,0-0.3,0.1-0.6c0.2-0.9,5.4-2.2,11.4-2.9c4.3-0.5,14.1-0.3,18.4,0.3
			c4.4,0.7,7.8,1.6,8.2,2.3c0.2,0.4,0.4,1.7,0.2,1.6C-1731.4,539.9-1732,539.8-1732.6,539.6L-1732.6,539.6L-1732.6,539.6z"/>
		<path id="path3041-3_1_" class="st0" d="M-1768.9,535.3c0.1-0.4,0.2-0.8,0.2-0.8c0-0.1,2.5-0.8,4.8-1.4c8.4-2.1,16.8-2.5,24.1-1
			c2.8,0.6,7,1.8,7.3,2.1c0.1,0.1,0.3,0.6,0.4,1l0.2,0.7l-2.1-0.6c-8.7-2.6-22-2.5-32.7,0.2
			C-1769.2,536.2-1769.2,536.2-1768.9,535.3L-1768.9,535.3z"/>
		<path id="path3043-0_1_" class="st0" d="M-1733.4,673.8c0-0.7,1.4-11.1,1.5-11.3c0.4-0.7,3.3-22.8,4-30.6c0.2-2.1,0.4-3.2,1.2-5.7
			c1.1-3.4,1.9-7.6,2.1-11.7c0.1-2.1,0.2-2.6,0.7-3.3c0.3-0.4,1.1-2.4,1.9-4.4l1.4-3.6l0-8.2c0-4.5-0.1-10.6-0.2-13.5
			c-0.1-3.4-0.1-5.5,0.1-5.8c0.3-0.6,3.4-0.6,3.6,0c0.2,0.4,0,8.2-0.3,14.1c-0.5,8.9-0.2,16.3,0.9,29.3c1.3,14.5,1.4,22.3,0.4,30.9
			c-0.8,7.2-1.8,11.2-4,15.4c-1.1,2.1-4.5,5.2-7.5,6.7c-0.9,0.4-5.1,1.9-5.6,1.9C-1733.3,674.1-1733.4,674-1733.4,673.8
			L-1733.4,673.8z M-1729.4,662.3c0.8-1.8,3.2-10.1,5.2-18c2.6-10.3,4.3-15.7,4.8-15.8c0.9-0.2,1,0.5,1,6c0,3.3,0.1,5.8,0.3,6.5
			l0.3,1.2l0.2-1.2c0.1-0.7,0.3-4.6,0.4-8.7c0.3-8.3,0.1-16-0.6-19.1c-0.6-2.8-0.9-2.2-1.7,2.7c-1,6.3-8,36.8-8.6,37.3
			c-0.2,0.1-0.1-0.5,0.5-4.6c0.5-3.7,1.5-12.3,1.6-14.4c0.1-1.7,0.1-1.8-0.2-1.1c-0.7,1.4-4.4,26.8-4.5,29.9
			C-1730.6,664.1-1730,663.7-1729.4,662.3L-1729.4,662.3L-1729.4,662.3z"/>
		<path id="path3045-9_1_" class="st0" d="M-1768.6,673.2c-4-1.2-6.4-2.4-9.3-4.6c-1.6-1.2-1.8-1.5-2.6-3.2c-3.2-7-3.7-9.6-3.9-21.1
			c-0.2-7.4,0.1-13.2,0.9-23.7c0.3-3.7,0.6-7.2,0.6-7.7c0-0.6,0.1,3.4,0.1,8.9c0,8.8,0.1,10.3,0.5,13.5c0.3,2,0.5,3.6,0.6,3.7
			c0.1,0.1,0.2-1.9,0.3-4.4c0.2-4.4,0.4-6.5,0.7-6.8c0.1-0.1,0.3,0,0.5,0.2c0.3,0.3,0.8,2.5,1.6,7c1.9,10.3,2.7,13.5,5.1,21
			c1.5,4.7,3.2,8.1,4,8.1c0.4,0,0.4-0.2-0.2-2.8c-0.3-1.2-0.8-5.2-1.3-8.9c-0.9-7.8-1.7-12.2-2.7-16.2c-1.4-5.6-1.4-2.7-0.1,7.3
			c0.4,3.3,1,7.3,1.3,8.9c0.3,1.7,0.4,3.2,0.4,3.4s-0.8-2.3-1.7-5.5c-1.4-5.1-1.8-7-2.9-13.4c-1.7-10.5-4.4-27.2-4.4-27.3
			c0-0.1-0.2-0.1-0.4-0.1c-0.5,0-0.7,0.2-0.9,1.2c-0.1,0.4-0.1-0.6,0-2.3c0.2-4,0.1-16.8-0.2-23.7c-0.1-3.1-0.2-6.3-0.1-7.1l0.1-1.4
			l1.4-0.4c0.7-0.2,1.4-0.4,1.5-0.3c0.1,0.1,0.1,3.6,0,7.7c-0.1,9.6-0.1,14.8,0.2,17.1c0.3,2.3,1.4,6.9,2,8.3
			c0.4,0.9,1.3,4.8,2.4,10.7c0.2,1,0.9,3.5,1.5,5.5c1,3,1.2,4,1.4,6.5c0.1,1.6,0.3,3,0.3,3.1c0.1,0.1,0.3,2,0.4,4.2
			c0.5,5.7,0.5,5.7,1.7,13.8c1.7,11.1,2.7,16.9,3.2,19.1c0.2,1.1,0.5,2.1,0.5,2.2C-1766,674-1766.5,673.9-1768.6,673.2
			L-1768.6,673.2L-1768.6,673.2z"/>
		<path id="path3047-3_1_" class="st0" d="M-1731.8,626.5c-2.4-0.3-31.6-0.8-34.8-0.6c-1.6,0.1-3.3,0.2-3.8,0.2l-0.9,0l-0.5-2.1
			c-0.9-3.5-1.6-7.2-2-10.3c-0.3-2.4-0.4-5.2-0.3-15.9c0-12.1,0.1-13.8,0.6-13.3c0.1,0.1,0.2,3,0.3,6.6c0.3,9.2,0.7,17.1,1.4,23
			c0.5,4.5,1.5,8.6,1.2,4.9c-0.1-0.9-0.3-4.4-0.6-7.7c-0.4-5.1-0.5-8.1-0.5-17l0-10.8l1.3-0.2c2-0.3,26.4-0.4,34.6-0.2l7.6,0.2
			l0.3,0.7c0.4,0.8,0.4,1.6,0,10.6c-0.4,9.2-0.6,13.4-1.2,20.4c-0.3,3.3-0.4,6.2-0.4,6.5c0.1,0.9,0.6-1.4,1.2-5.9
			c0.9-6.9,1.4-12.7,1.7-22.5c0.1-4,0.3-7.4,0.5-7.6c0.1-0.2,0.2,1.7,0.1,5c-0.1,2.9-0.2,8.9-0.2,13.2c-0.2,11.9-0.9,18.4-2.5,22.1
			C-1729.1,626.8-1729,626.8-1731.8,626.5L-1731.8,626.5L-1731.8,626.5z"/>
		<path id="path3049-39_1_" class="st0" d="M-1754.5,675.9c-3.2-0.2-7.7-0.9-9.7-1.4c-1-0.3-1-0.3-1.4-1.9c-0.6-2.6-0.9-4.4-0.8-5
			c0.1-0.6,0.2-0.6,1.2-0.4c3.4,0.5,4.8,0.6,10,0.8c6.2,0.2,14.4,0,16.7-0.4c0.8-0.1,2.2-0.5,3-0.8l1.6-0.5v1.5
			c0,1.4-0.3,4.3-0.6,6.1c-0.1,0.7-0.2,0.7-2.1,1.1C-1742.1,675.9-1748.4,676.3-1754.5,675.9L-1754.5,675.9L-1754.5,675.9z"/>
		<path id="path3051-2_1_" class="st1" d="M-1783.7,661.3c-0.7-0.8-1.9-3.8-2.3-5.5c-0.7-3-1-7.6-0.8-13.7c0.2-9,1.1-19.9,1.8-22.7
			c0.9-3.7,1.3-13.2,1.2-28.4c-0.1-7.3-0.1-12.5,0.1-12.3c0.1,0.2,0.2,7.4,0.3,16.1l0.1,15.7l-0.7,8.1c-1.2,13.3-1.3,15.6-1.1,24
			c0.2,9,0.6,13.6,1.5,16.8C-1783.1,661.4-1783.1,662-1783.7,661.3L-1783.7,661.3L-1783.7,661.3z"/>
		<path id="path3053-8_1_" class="st1" d="M-1717,661.6c0-0.1,0.3-1.6,0.7-3.2c0.9-4.2,1.3-6.7,1.7-12.8c0.5-7.1,0.2-14.1-1.4-30
			l-0.8-8.1l0.2-12.2c0.1-6.7,0.2-13.3,0.3-14.6c0.1-1.3,0.1,4,0.1,11.7c0,9.9,0.1,15,0.3,17c0.2,1.6,0.5,5.5,0.9,8.7
			c0.3,3.2,0.7,7.3,0.9,9.1s0.5,4.2,0.6,5.2c0.3,2.8,0.3,15,0,18.9c-0.3,3.6-0.7,5.1-2.2,8.5C-1716.7,661.7-1717,662.2-1717,661.6
			L-1717,661.6z"/>
		<path id="path3055-5_1_" class="st1" d="M-1711.2,580.5c-0.5-0.2-1.5-1-2.2-1.7c-1-1-1.3-1.4-1.3-1.8c0.2-1.2,2.3-0.4,4,1.5
			c0.9,1.1,1,1.3,0.8,2C-1710,581-1710.1,581-1711.2,580.5z"/>
		<path id="path3057-3_1_" class="st1" d="M-1716.3,569.8c0-2.2,0.1-8.4,0.2-13.9c0.2-10.2,0.1-13.8-0.6-18.2
			c-0.5-3.2-0.9-4.6-2.1-7.3c-1.2-2.6-2.4-6.1-2.2-6.3c0.2-0.2,2.4,3.1,3.2,4.8c0.8,1.7,1.9,5.5,2.5,8.5c0.6,3,0.7,8.7,0.3,14
			c-0.2,2.5-0.5,8.5-0.6,13.2c-0.1,4.8-0.3,8.8-0.5,8.9C-1716.2,573.7-1716.3,572.3-1716.3,569.8L-1716.3,569.8L-1716.3,569.8z"/>
		<path id="path3059-3_1_" class="st1" d="M-1784,571c-0.1-1.5-0.3-4.5-0.4-6.6c-0.1-2.1-0.4-5.6-0.7-7.6s-0.5-6-0.6-8.8
			c-0.2-6.4,0.2-9.9,1.6-13.9c0.9-2.7,3.5-8.5,3.8-8.2c0.1,0.1-0.7,2.5-1.6,5.4c-2.4,7.2-2.5,7.9-2.3,17.7c0.1,4.3,0.2,9.5,0.4,11.7
			c0.1,2.2,0.2,6,0.2,8.5l-0.1,4.6L-1784,571z"/>
		<path id="path3061-3_1_" class="st1" d="M-1790.3,580.3c-0.4-0.8,0.9-2.3,2.9-3.3c1.7-0.9,2.8,0.2,1.5,1.4
			c-0.7,0.6-2.6,1.8-3.6,2.1C-1790,580.7-1790.1,580.6-1790.3,580.3L-1790.3,580.3z"/>
		<path id="path3063-40_1_" class="st1" d="M-1753.9,664.4c-5.2-0.5-9.4-1.3-10-2c-0.1-0.2-0.5-1.1-0.8-2.1c-1.2-3.7-2-7.8-2.5-13.3
			c-0.5-4.9-1.4-18.7-1.2-18.9c0.2-0.2,35.1-0.2,35.9,0l0.6,0.2l-0.3,5.9c-0.5,11.2-2.2,24.7-3.4,28c-0.4,1.1-1.1,1.5-3.3,1.9
			C-1740.3,664.3-1751.8,664.6-1753.9,664.4L-1753.9,664.4L-1753.9,664.4z"/>
		<path id="path3065-6_1_" class="st2" d="M-1772.8,580c-1.8-0.3-3.1-2.4-3.8-6.3c-0.4-2-0.3-3.4,0.4-5.4c1.1-3.1,3.4-6,6.9-8.5
			c2-1.4,15.6-9.5,17-10.1c0.7-0.3,1.5-0.4,2.8-0.4c1.6,0,1.9,0.1,3.5,0.9c4,2.1,12.1,8.5,18.3,14.6c2.4,2.4,2.8,2.9,3.1,3.9
			c0.4,1.6,0.9,5.8,0.8,7.1c-0.2,1.7-1,3.2-2.1,3.8c-0.9,0.4-1.4,0.5-23.3,0.5C-1761.7,580.2-1772.2,580.1-1772.8,580L-1772.8,580
			L-1772.8,580z"/>
		<path id="path3067-06_1_" class="st2" d="M-1777.2,603.7l-0.9-2.6l0.1-10.7c0-5.9,0.1-11.1,0.2-11.5l0.1-0.7l0.9,1.3l0.9,1.3
			l0,7.8c0,4.3-0.1,10-0.2,12.8l-0.2,5L-1777.2,603.7z"/>
		<path id="path3069-5_1_" class="st2" d="M-1724.3,595.1c0-11.5,0-13.1,0.3-13.5c0.2-0.2,0.6-1.1,1-1.9l0.6-1.5l0.2,11.7l0.2,11.7
			l-1,2.9c-0.5,1.6-1,3.1-1.2,3.3C-1724.2,608-1724.3,602.5-1724.3,595.1z"/>
		<path id="path3071-3_1_" class="st4" d="M-1720.9,532.9c-0.7-0.4-2.8-1.1-6.2-2c-3.7-1-4.6-1.4-5-2c-0.5-1-2-9.7-1.7-10.5
			c0.2-0.6,1-0.5,3,0.2c4,1.6,6.6,3.6,8.1,6.4c0.8,1.4,2.2,5.2,2.5,6.7C-1719.9,532.5-1720.3,533.2-1720.9,532.9L-1720.9,532.9
			L-1720.9,532.9z"/>
		<path id="path3073-2_1_" class="st3" d="M-1780.4,533.2c-0.5-1.3,0.3-4.9,1.7-7.8c1.7-3.6,5.4-6.6,9-7.3c1.1-0.2,1.4-0.2,1.8,0.1
			c0.7,0.5,0.8,1,0.4,3.8c-0.6,5.2-1.3,6.8-3.1,7.8c-0.9,0.5-9.1,3.8-9.5,3.8C-1780.2,533.6-1780.3,533.4-1780.4,533.2
			L-1780.4,533.2z"/>
	</g>
	<g id="car-blinker-off" transform="translate(1432.412,-267.60354)">
		<path id="path2995-4-8-2" d="M-1860.3,516.4c2.1-1.6,4.5-2.8,7-3.7c3.2-1.2,6.5-1.8,9.9-2.1c4.8-0.4,9.8-0.4,14.6,0.4
			c3.8,0.6,7.6,1.7,11.1,3.3c2.9,1.3,5.6,3.2,8,5.3c1.7,1.4,3.2,3.1,4.5,5c1.2,1.8,2.1,3.9,2.8,6c0.9,2.7,1.1,5.6,1.5,8.4
			c0.6,3.6,0.3,12.4-0.3,16.1c-0.2,1.3-0.5,6.4-0.6,11.1l-0.2,8.7l1.2,0.4c1.4,0.6,2.7,1.7,3.7,2.8c1.7,1.8,2.2,3.7,1.1,4.1
			c-0.8,0.3-5.5-2.2-5.9-3.1c-0.2-0.6-0.9,18.2-0.7,22.4c0.1,3.9,0.5,6.3,0.8,9.5c0.3,4.1,0.8,8,1,11.9c0.2,1.6,0.4,4,0.5,4.7
			c1,8.8,1.1,11.7,1,19.1c-0.1,6.7-0.6,9.2-1.1,10.8c-0.7,2.1-2.5,6.9-4.9,10c-1.4,1.8-3.2,3.3-5.2,4.5c-1.2,0.8-2.6,1.3-3.9,1.8
			c-4,1.4-9.3,2.7-12.4,3.1c-3.8,0.5-9.2,0.6-9.8,0.5l-2.8,0c-0.6,0-2.9-0.3-4.5-0.4c-1,0-2.6-0.2-3.5-0.4c-0.9-0.2-2.8-0.6-4.2-0.8
			c-1.3-0.1-11.9-3.6-13.9-5.5c-1.3-0.8-3-2.2-3.5-3.7c-3.1-4.1-4.9-9.1-5.6-14.1c-0.6-4.1,0.4-18.6,1.2-27.8
			c0.4-4.3,1.5-8.5,1.7-12.9c0.4-8.2,0.3-13.2,0.2-19.8c0-2.5-0.1-4.8-0.2-7.4c-0.1-2.6-0.2-4.8-0.3-4.8s-1.3,0.5-2.7,1.2
			c-3.5,1.7-4.2,1.7-3.9,0c0.4-2.1,3.9-5.3,5.8-5.2c0.8,0,0.5-3,0.6-4.6c0.1-1.4,0-4.3,0-4.3c-0.2-5.2-0.7-10-1.3-13.6
			c-0.8-5.1-0.2-15.4,1.3-19.8c0.6-1.9,1.9-4.5,3.2-6.6C-1866.5,522.3-1863.5,518.7-1860.3,516.4L-1860.3,516.4z"/>
		<path id="path3029-98" class="st0" d="M-1805.6,573.9c-0.7-0.4-1.8-2.2-3.3-5.5c-0.8-1.8-1.7-3.6-2.1-4c-0.5-0.7-1.1-2.9-4.3-17.2
			c-2-9-3.7-16.5-3.6-16.5c0.3-0.3,9.5,2.5,12.3,3.8l1.4,0.6l0.3,2.1c0.6,4.3,0.8,11.6,0.7,23.8c-0.1,6.7-0.2,12.4-0.3,12.7
			C-1804.7,574.2-1805,574.2-1805.6,573.9L-1805.6,573.9z"/>
		<path id="path3031-5" class="st0" d="M-1869.4,573.7c-0.2-1.1-0.7-18.7-0.7-25.8c0-7.3,0.2-9.5,1-11.3c0.2-0.5,0.6-1,0.9-1.2
			s2.3-0.9,4.6-1.6s4.9-1.8,5.9-2.3c1.7-0.8,1.8-0.9,1.7-0.4c-0.1,0.3-1.5,7.2-3.1,15.3c-2.7,13.2-3.1,14.9-3.7,15.7
			c-1,1.5-2.1,3.8-3.2,6.7c-1.3,3.4-1.6,4.1-2.6,4.9l-0.8,0.6L-1869.4,573.7L-1869.4,573.7L-1869.4,573.7z"/>
		<path id="path3033-0" class="st0" d="M-1813.1,518.9c-2.8-1.6-5.5-2.4-7.6-2.1c-1.2,0.2-1.8,0.7-1.8,1.6v0.7l-2.2-0.5
			c-3.5-0.8-6.8-1.1-12.7-1.1c-5.8,0-8,0.2-12.3,1.1c-1.4,0.3-2.5,0.6-2.6,0.6s-0.1-0.2-0.1-0.4c0-0.8-0.5-1.9-1-2.1
			c-0.8-0.3-4.4,0.2-5.9,0.8c-0.8,0.3-1.4,0.5-1.4,0.5c-0.2-0.2,3.7-2.8,5.3-3.6c6.1-2.9,17.1-4.1,24.7-2.8c6.8,1.2,16.3,5,18.7,7.4
			C-1811.2,519.8-1811.5,519.8-1813.1,518.9L-1813.1,518.9L-1813.1,518.9z"/>
		<path id="path3035-9" class="st0" d="M-1855.1,530.7c0.2-0.8,0.4-1.6,0.5-1.8s0.5-1.7,0.8-3.4c0.3-1.7,0.7-3.4,0.9-3.7
			c0.4-0.9,1.2-1.2,4.3-1.8c4-0.8,10.2-1.2,16.2-0.8c5,0.3,6.7,0.5,8.9,1.1l1.3,0.4l0.4,1.7c1.5,7.2,2,9.4,1.9,9.5
			c0,0-0.6-0.1-1.3-0.3c-8.4-2.9-22.7-2.8-32.3,0.2c-0.8,0.3-1.5,0.5-1.6,0.5C-1855.3,532.2-1855.3,531.5-1855.1,530.7
			L-1855.1,530.7z"/>
		<path id="path3037-2" class="st0" d="M-1815.3,560.4c-3.2-3.2-8-7-13.8-10.6c-3.8-2.4-4.3-2.6-6.6-2.8c-2.3-0.2-3.9,0.3-7.7,2.1
			c-4.5,2.2-9.3,5.1-14.9,9c-1.2,0.9-2.3,1.6-2.3,1.5c-0.1-0.1,3.4-17.4,3.6-17.7c0.2-0.3,3.2-1.3,5.8-1.9c8.1-1.8,20-1.3,32.4,1.4
			l1.1,0.2l0.3,1.5c1.5,6.5,3.8,18.2,3.7,18.5C-1813.6,561.9-1814.4,561.3-1815.3,560.4L-1815.3,560.4L-1815.3,560.4z"/>
		<path id="path3039-8" class="st0" d="M-1819.6,539.6c-2-0.6-6.3-1.4-9.2-1.8c-2.3-0.3-4.3-0.4-10.3-0.4c-7.8,0-10.3,0.2-15.5,1.5
			c-1.1,0.3-2,0.4-2,0.4c0,0,0-0.3,0.1-0.6c0.2-0.9,5.4-2.2,11.4-2.9c4.3-0.5,14.1-0.3,18.4,0.3c4.4,0.7,7.8,1.6,8.2,2.3
			c0.2,0.4,0.4,1.7,0.2,1.6C-1818.4,539.9-1819,539.8-1819.6,539.6L-1819.6,539.6L-1819.6,539.6z"/>
		<path id="path3041-3" class="st0" d="M-1855.9,535.3c0.1-0.4,0.2-0.8,0.2-0.8c0-0.1,2.5-0.8,4.8-1.4c8.4-2.1,16.8-2.5,24.1-1
			c2.8,0.6,7,1.8,7.3,2.1c0.1,0.1,0.3,0.6,0.4,1l0.2,0.7l-2.1-0.6c-8.7-2.6-22-2.5-32.7,0.2
			C-1856.2,536.2-1856.2,536.2-1855.9,535.3L-1855.9,535.3z"/>
		<path id="path3043-0" class="st0" d="M-1820.4,673.8c0-0.7,1.4-11.1,1.5-11.3c0.4-0.7,3.3-22.8,4-30.6c0.2-2.1,0.4-3.2,1.2-5.7
			c1.1-3.4,1.9-7.6,2.1-11.7c0.1-2.1,0.2-2.6,0.7-3.3c0.3-0.4,1.1-2.4,1.9-4.4l1.4-3.6l0-8.2c0-4.5-0.1-10.6-0.2-13.5
			c-0.1-3.4-0.1-5.5,0.1-5.8c0.3-0.6,3.4-0.6,3.6,0c0.2,0.4,0,8.2-0.3,14.1c-0.5,8.9-0.2,16.3,0.9,29.3c1.3,14.5,1.4,22.3,0.4,30.9
			c-0.8,7.2-1.8,11.2-4,15.4c-1.1,2.1-4.5,5.2-7.5,6.7c-0.9,0.4-5.1,1.9-5.6,1.9C-1820.3,674.1-1820.4,674-1820.4,673.8
			L-1820.4,673.8z M-1816.4,662.3c0.8-1.8,3.2-10.1,5.2-18c2.6-10.3,4.3-15.7,4.8-15.8c0.9-0.2,1,0.5,1,6c0,3.3,0.1,5.8,0.3,6.5
			l0.3,1.2l0.2-1.2c0.1-0.7,0.3-4.6,0.4-8.7c0.3-8.3,0.1-16-0.6-19.1c-0.6-2.8-0.9-2.2-1.7,2.7c-1,6.3-8,36.8-8.6,37.3
			c-0.2,0.1-0.1-0.5,0.5-4.6c0.5-3.7,1.5-12.3,1.6-14.4c0.1-1.7,0.1-1.8-0.2-1.1c-0.7,1.4-4.4,26.8-4.5,29.9
			C-1817.6,664.1-1817,663.7-1816.4,662.3L-1816.4,662.3L-1816.4,662.3z"/>
		<path id="path3045-9" class="st0" d="M-1855.6,673.2c-4-1.2-6.4-2.4-9.3-4.6c-1.6-1.2-1.8-1.5-2.6-3.2c-3.2-7-3.7-9.6-3.9-21.1
			c-0.2-7.4,0.1-13.2,0.9-23.7c0.3-3.7,0.6-7.2,0.6-7.7c0-0.6,0.1,3.4,0.1,8.9c0,8.8,0.1,10.3,0.5,13.5c0.3,2,0.5,3.6,0.6,3.7
			c0.1,0.1,0.2-1.9,0.3-4.4c0.2-4.4,0.4-6.5,0.7-6.8c0.1-0.1,0.3,0,0.5,0.2c0.3,0.3,0.8,2.5,1.6,7c1.9,10.3,2.7,13.5,5.1,21
			c1.5,4.7,3.2,8.1,4,8.1c0.4,0,0.4-0.2-0.2-2.8c-0.3-1.2-0.8-5.2-1.3-8.9c-0.9-7.8-1.7-12.2-2.7-16.2c-1.4-5.6-1.4-2.7-0.1,7.3
			c0.4,3.3,1,7.3,1.3,8.9c0.3,1.7,0.4,3.2,0.4,3.4s-0.8-2.3-1.7-5.5c-1.4-5.1-1.8-7-2.9-13.4c-1.7-10.5-4.4-27.2-4.4-27.3
			c0-0.1-0.2-0.1-0.4-0.1c-0.5,0-0.7,0.2-0.9,1.2c-0.1,0.4-0.1-0.6,0-2.3c0.2-4,0.1-16.8-0.2-23.7c-0.1-3.1-0.2-6.3-0.1-7.1l0.1-1.4
			l1.4-0.4c0.7-0.2,1.4-0.4,1.5-0.3c0.1,0.1,0.1,3.6,0,7.7c-0.1,9.6-0.1,14.8,0.2,17.1c0.3,2.3,1.4,6.9,2,8.3
			c0.4,0.9,1.3,4.8,2.4,10.7c0.2,1,0.9,3.5,1.5,5.5c1,3,1.2,4,1.4,6.5c0.1,1.6,0.3,3,0.3,3.1c0.1,0.1,0.3,2,0.4,4.2
			c0.5,5.7,0.5,5.7,1.7,13.8c1.7,11.1,2.7,16.9,3.2,19.1c0.2,1.1,0.5,2.1,0.5,2.2C-1853,674-1853.5,673.9-1855.6,673.2
			L-1855.6,673.2L-1855.6,673.2z"/>
		<path id="path3047-3" class="st0" d="M-1818.8,626.5c-2.4-0.3-31.6-0.8-34.8-0.6c-1.6,0.1-3.3,0.2-3.8,0.2l-0.9,0l-0.5-2.1
			c-0.9-3.5-1.6-7.2-2-10.3c-0.3-2.4-0.4-5.2-0.3-15.9c0-12.1,0.1-13.8,0.6-13.3c0.1,0.1,0.2,3,0.3,6.6c0.3,9.2,0.7,17.1,1.4,23
			c0.5,4.5,1.5,8.6,1.2,4.9c-0.1-0.9-0.3-4.4-0.6-7.7c-0.4-5.1-0.5-8.1-0.5-17l0-10.8l1.3-0.2c2-0.3,26.4-0.4,34.6-0.2l7.6,0.2
			l0.3,0.7c0.4,0.8,0.4,1.6,0,10.6c-0.4,9.2-0.6,13.4-1.2,20.4c-0.3,3.3-0.4,6.2-0.4,6.5c0.1,0.9,0.6-1.4,1.2-5.9
			c0.9-6.9,1.4-12.7,1.7-22.5c0.1-4,0.3-7.4,0.5-7.6c0.1-0.2,0.2,1.7,0.1,5c-0.1,2.9-0.2,8.9-0.2,13.2c-0.2,11.9-0.9,18.4-2.5,22.1
			C-1816.1,626.8-1816,626.8-1818.8,626.5L-1818.8,626.5L-1818.8,626.5z"/>
		<path id="path3049-39" class="st0" d="M-1841.5,675.9c-3.2-0.2-7.7-0.9-9.7-1.4c-1-0.3-1-0.3-1.4-1.9c-0.6-2.6-0.9-4.4-0.8-5
			c0.1-0.6,0.2-0.6,1.2-0.4c3.4,0.5,4.8,0.6,10,0.8c6.2,0.2,14.4,0,16.7-0.4c0.8-0.1,2.2-0.5,3-0.8l1.6-0.5v1.5
			c0,1.4-0.3,4.3-0.6,6.1c-0.1,0.7-0.2,0.7-2.1,1.1C-1829.1,675.9-1835.4,676.3-1841.5,675.9L-1841.5,675.9L-1841.5,675.9z"/>
		<path id="path3051-2" class="st1" d="M-1870.7,661.3c-0.7-0.8-1.9-3.8-2.3-5.5c-0.7-3-1-7.6-0.8-13.7c0.2-9,1.1-19.9,1.8-22.7
			c0.9-3.7,1.3-13.2,1.2-28.4c-0.1-7.3-0.1-12.5,0.1-12.3c0.1,0.2,0.2,7.4,0.3,16.1l0.1,15.7l-0.7,8.1c-1.2,13.3-1.3,15.6-1.1,24
			c0.2,9,0.6,13.6,1.5,16.8C-1870.1,661.4-1870.1,662-1870.7,661.3L-1870.7,661.3L-1870.7,661.3z"/>
		<path id="path3053-8" class="st1" d="M-1804,661.6c0-0.1,0.3-1.6,0.7-3.2c0.9-4.2,1.3-6.7,1.7-12.8c0.5-7.1,0.2-14.1-1.4-30
			l-0.8-8.1l0.2-12.2c0.1-6.7,0.2-13.3,0.3-14.6c0.1-1.3,0.1,4,0.1,11.7c0,9.9,0.1,15,0.3,17c0.2,1.6,0.5,5.5,0.9,8.7
			c0.3,3.2,0.7,7.3,0.9,9.1s0.5,4.2,0.6,5.2c0.3,2.8,0.3,15,0,18.9c-0.3,3.6-0.7,5.1-2.2,8.5C-1803.7,661.7-1804,662.2-1804,661.6
			L-1804,661.6z"/>
		<path id="path3055-5" class="st1" d="M-1798.2,580.5c-0.5-0.2-1.5-1-2.2-1.7c-1-1-1.3-1.4-1.3-1.8c0.2-1.2,2.3-0.4,4,1.5
			c0.9,1.1,1,1.3,0.8,2C-1797,581-1797.1,581-1798.2,580.5z"/>
		<path id="path3057-3" class="st1" d="M-1803.3,569.8c0-2.2,0.1-8.4,0.2-13.9c0.2-10.2,0.1-13.8-0.6-18.2c-0.5-3.2-0.9-4.6-2.1-7.3
			c-1.2-2.6-2.4-6.1-2.2-6.3c0.2-0.2,2.4,3.1,3.2,4.8c0.8,1.7,1.9,5.5,2.5,8.5c0.6,3,0.7,8.7,0.3,14c-0.2,2.5-0.5,8.5-0.6,13.2
			c-0.1,4.8-0.3,8.8-0.5,8.9C-1803.2,573.7-1803.3,572.3-1803.3,569.8L-1803.3,569.8L-1803.3,569.8z"/>
		<path id="path3059-3" class="st1" d="M-1871,571c-0.1-1.5-0.3-4.5-0.4-6.6c-0.1-2.1-0.4-5.6-0.7-7.6s-0.5-6-0.6-8.8
			c-0.2-6.4,0.2-9.9,1.6-13.9c0.9-2.7,3.5-8.5,3.8-8.2c0.1,0.1-0.7,2.5-1.6,5.4c-2.4,7.2-2.5,7.9-2.3,17.7c0.1,4.3,0.2,9.5,0.4,11.7
			c0.1,2.2,0.2,6,0.2,8.5l-0.1,4.6L-1871,571z"/>
		<path id="path3061-3" class="st1" d="M-1877.3,580.3c-0.4-0.8,0.9-2.3,2.9-3.3c1.7-0.9,2.8,0.2,1.5,1.4c-0.7,0.6-2.6,1.8-3.6,2.1
			C-1877,580.7-1877.1,580.6-1877.3,580.3L-1877.3,580.3z"/>
		<path id="path3063-40" class="st1" d="M-1840.9,664.4c-5.2-0.5-9.4-1.3-10-2c-0.1-0.2-0.5-1.1-0.8-2.1c-1.2-3.7-2-7.8-2.5-13.3
			c-0.5-4.9-1.4-18.7-1.2-18.9c0.2-0.2,35.1-0.2,35.9,0l0.6,0.2l-0.3,5.9c-0.5,11.2-2.2,24.7-3.4,28c-0.4,1.1-1.1,1.5-3.3,1.9
			C-1827.3,664.3-1838.8,664.6-1840.9,664.4L-1840.9,664.4L-1840.9,664.4z"/>
		<path id="path3065-6" class="st2" d="M-1859.8,580c-1.8-0.3-3.1-2.4-3.8-6.3c-0.4-2-0.3-3.4,0.4-5.4c1.1-3.1,3.4-6,6.9-8.5
			c2-1.4,15.6-9.5,17-10.1c0.7-0.3,1.5-0.4,2.8-0.4c1.6,0,1.9,0.1,3.5,0.9c4,2.1,12.1,8.5,18.3,14.6c2.4,2.4,2.8,2.9,3.1,3.9
			c0.4,1.6,0.9,5.8,0.8,7.1c-0.2,1.7-1,3.2-2.1,3.8c-0.9,0.4-1.4,0.5-23.3,0.5C-1848.7,580.2-1859.2,580.1-1859.8,580L-1859.8,580
			L-1859.8,580z"/>
		<path id="path3067-06" class="st2" d="M-1864.2,603.7l-0.9-2.6l0.1-10.7c0-5.9,0.1-11.1,0.2-11.5l0.1-0.7l0.9,1.3l0.9,1.3l0,7.8
			c0,4.3-0.1,10-0.2,12.8l-0.2,5L-1864.2,603.7z"/>
		<path id="path3069-5" class="st2" d="M-1811.3,595.1c0-11.5,0-13.1,0.3-13.5c0.2-0.2,0.6-1.1,1-1.9l0.6-1.5l0.2,11.7l0.2,11.7
			l-1,2.9c-0.5,1.6-1,3.1-1.2,3.3C-1811.2,608-1811.3,602.5-1811.3,595.1z"/>
		<path id="path3071-3" class="st4" d="M-1807.9,532.9c-0.7-0.4-2.8-1.1-6.2-2c-3.7-1-4.6-1.4-5-2c-0.5-1-2-9.7-1.7-10.5
			c0.2-0.6,1-0.5,3,0.2c4,1.6,6.6,3.6,8.1,6.4c0.8,1.4,2.2,5.2,2.5,6.7C-1806.9,532.5-1807.3,533.2-1807.9,532.9L-1807.9,532.9
			L-1807.9,532.9z"/>
		<path id="path3073-2" class="st4" d="M-1867.4,533.2c-0.5-1.3,0.3-4.9,1.7-7.8c1.7-3.6,5.4-6.6,9-7.3c1.1-0.2,1.4-0.2,1.8,0.1
			c0.7,0.5,0.8,1,0.4,3.8c-0.6,5.2-1.3,6.8-3.1,7.8c-0.9,0.5-9.1,3.8-9.5,3.8C-1867.2,533.6-1867.3,533.4-1867.4,533.2
			L-1867.4,533.2z"/>
	</g>
</g>
</svg>
