<?xml version="1.0" encoding="utf-8"?>
<!-- Generator: Adobe Illustrator 23.0.1, SVG Export Plug-In . SVG Version: 6.00 Build 0)  -->
<svg version="1.1" id="Layer_1" xmlns="http://www.w3.org/2000/svg" xmlns:xlink="http://www.w3.org/1999/xlink" x="0px" y="0px"
	 viewBox="0 0 257 167" style="enable-background:new 0 0 257 167;" xml:space="preserve">
<style type="text/css">
	.st0{fill-rule:evenodd;clip-rule:evenodd;fill:#FF0000;stroke:#000000;stroke-width:0.6031;}
	.st1{fill-rule:evenodd;clip-rule:evenodd;fill:#800000;stroke:#000000;stroke-width:0.6031;}
	.st2{fill-rule:evenodd;clip-rule:evenodd;fill:#333333;stroke:#000000;stroke-width:0.6031;}
	.st3{fill-rule:evenodd;clip-rule:evenodd;fill:#F5E900;stroke:#000000;stroke-width:0.6031;}
	.st4{fill-rule:evenodd;clip-rule:evenodd;fill:#999999;stroke:#000000;stroke-width:0.6031;}
	.st5{fill-rule:evenodd;clip-rule:evenodd;fill:#F9EC00;stroke:#000000;stroke-width:0.6031;}
</style>
<g id="layer1" transform="translate(445.68745,-242.71932)">
	<g id="red-car-blinker-right" transform="translate(1.8758905,-286.76903)">
		<path id="path2995-4-8_2_" d="M-255.5,535.6c2.1-1.6,4.5-2.8,7-3.7c3.2-1.2,6.5-1.8,9.9-2.1c4.8-0.4,9.8-0.4,14.6,0.4
			c3.8,0.6,7.6,1.7,11.1,3.3c2.9,1.3,5.6,3.2,8,5.3c1.7,1.4,3.2,3.1,4.5,5c1.2,1.8,2.1,3.9,2.8,6c0.9,2.7,1.1,5.6,1.5,8.4
			c0.6,3.6,0.3,12.4-0.3,16.1c-0.2,1.3-0.5,6.4-0.6,11.1l-0.2,8.7l1.2,0.4c1.4,0.6,2.7,1.7,3.7,2.8c1.7,1.8,2.2,3.7,1.1,4.1
			c-0.8,0.3-5.5-2.2-5.9-3.1c-0.2-0.6-0.9,18.2-0.7,22.4c0.1,3.9,0.5,6.3,0.8,9.5c0.3,4.1,0.8,8,1,11.9c0.2,1.6,0.4,4,0.5,4.7
			c1,8.8,1.1,11.7,1,19.1c-0.1,6.7-0.6,9.2-1.1,10.8c-0.7,2.1-2.5,6.9-4.9,10c-1.4,1.8-3.2,3.3-5.2,4.5c-1.2,0.8-2.6,1.3-3.9,1.8
			c-4,1.4-9.3,2.7-12.4,3.1c-3.8,0.5-9.2,0.6-9.8,0.5h-2.8c-0.6,0-2.9-0.3-4.5-0.4c-1,0-2.6-0.2-3.5-0.4s-2.8-0.6-4.2-0.8
			c-1.3-0.1-11.9-3.6-13.9-5.5c-1.3-0.8-3-2.2-3.5-3.7c-3.1-4.1-4.9-9.1-5.6-14.1c-0.6-4.1,0.4-18.6,1.2-27.8
			c0.4-4.3,1.5-8.5,1.7-12.9c0.4-8.2,0.3-13.2,0.2-19.8c0-2.5-0.1-4.8-0.2-7.4c-0.1-2.6-0.2-4.8-0.3-4.8s-1.3,0.5-2.7,1.2
			c-3.5,1.7-4.2,1.7-3.9,0c0.4-2.1,3.9-5.3,5.8-5.2c0.8,0,0.5-3,0.6-4.6c0.1-1.4,0-4.3,0-4.3c-0.2-5.2-0.7-10-1.3-13.6
			c-0.8-5.1-0.2-15.4,1.3-19.8c0.6-1.9,1.9-4.5,3.2-6.6C-261.7,541.5-258.8,537.9-255.5,535.6L-255.5,535.6z"/>
		<path id="path3029_2_" class="st0" d="M-200.8,593c-0.7-0.4-1.8-2.2-3.3-5.5c-0.8-1.8-1.7-3.6-2.1-4c-0.5-0.7-1.1-2.9-4.3-17.2
			c-2-9-3.7-16.5-3.6-16.5c0.3-0.3,9.5,2.5,12.3,3.8l1.4,0.6l0.3,2.1c0.6,4.3,0.8,11.6,0.7,23.8c-0.1,6.7-0.2,12.4-0.3,12.7
			C-200,593.3-200.2,593.4-200.8,593L-200.8,593z"/>
		<path id="path3031_2_" class="st0" d="M-264.7,592.9c-0.2-1.1-0.7-18.7-0.7-25.8c0-7.3,0.2-9.5,1-11.3c0.2-0.5,0.6-1,0.9-1.2
			s2.3-0.9,4.6-1.6s4.9-1.8,5.9-2.3c1.7-0.8,1.8-0.9,1.7-0.4c-0.1,0.3-1.5,7.2-3.1,15.3c-2.7,13.2-3.1,14.9-3.7,15.7
			c-1,1.5-2.1,3.8-3.2,6.7c-1.3,3.4-1.6,4.1-2.6,4.9l-0.8,0.6L-264.7,592.9L-264.7,592.9z"/>
		<path id="path3033_2_" class="st0" d="M-208.3,538.1c-2.8-1.6-5.5-2.4-7.6-2.1c-1.2,0.2-1.8,0.7-1.8,1.6v0.7l-2.2-0.5
			c-3.5-0.8-6.8-1.1-12.7-1.1c-5.8,0-8,0.2-12.3,1.1c-1.4,0.3-2.5,0.6-2.6,0.6c0,0-0.1-0.2-0.1-0.4c0-0.8-0.5-1.9-1-2.1
			c-0.8-0.3-4.4,0.2-5.9,0.8c-0.8,0.3-1.4,0.5-1.4,0.5c-0.2-0.2,3.7-2.8,5.3-3.6c6.1-2.9,17.1-4.1,24.7-2.8c6.8,1.2,16.3,5,18.7,7.4
			C-206.5,539-206.7,539-208.3,538.1L-208.3,538.1L-208.3,538.1z"/>
		<path id="path3035_2_" class="st0" d="M-250.4,549.9c0.2-0.8,0.4-1.6,0.5-1.8s0.5-1.7,0.8-3.4s0.7-3.4,0.9-3.7
			c0.4-0.9,1.2-1.2,4.3-1.8c4-0.8,10.2-1.2,16.2-0.8c5,0.3,6.7,0.5,8.9,1.1l1.3,0.4l0.4,1.7c1.5,7.2,2,9.4,1.9,9.5
			c0,0-0.6-0.1-1.3-0.3c-8.4-2.9-22.7-2.8-32.3,0.2c-0.8,0.3-1.5,0.5-1.6,0.5C-250.6,551.4-250.5,550.7-250.4,549.9L-250.4,549.9z"
			/>
		<path id="path3037_2_" class="st0" d="M-210.5,579.6c-3.2-3.2-8-7-13.8-10.6c-3.8-2.4-4.3-2.6-6.6-2.8s-3.9,0.3-7.7,2.1
			c-4.5,2.2-9.3,5.1-14.9,9c-1.2,0.9-2.3,1.6-2.3,1.5c-0.1-0.1,3.4-17.4,3.6-17.7c0.2-0.3,3.2-1.3,5.8-1.9c8.1-1.8,20-1.3,32.4,1.4
			l1.1,0.2l0.3,1.5c1.5,6.5,3.8,18.2,3.7,18.5C-208.9,581.1-209.6,580.5-210.5,579.6L-210.5,579.6L-210.5,579.6z"/>
		<path id="path3039_2_" class="st0" d="M-214.8,558.7c-2-0.6-6.3-1.4-9.2-1.8c-2.3-0.3-4.3-0.4-10.3-0.4c-7.8,0-10.3,0.2-15.5,1.5
			c-1.1,0.3-2,0.4-2,0.4s0-0.3,0.1-0.6c0.2-0.9,5.4-2.2,11.4-2.9c4.3-0.5,14.1-0.3,18.4,0.3c4.4,0.7,7.8,1.6,8.2,2.3
			c0.2,0.4,0.4,1.7,0.2,1.6C-213.6,559.1-214.2,558.9-214.8,558.7L-214.8,558.7L-214.8,558.7z"/>
		<path id="path3041_2_" class="st0" d="M-251.1,554.5c0.1-0.4,0.2-0.8,0.2-0.8c0-0.1,2.5-0.8,4.8-1.4c8.4-2.1,16.8-2.5,24.1-1
			c2.8,0.6,7,1.8,7.3,2.1c0.1,0.1,0.3,0.6,0.4,1l0.2,0.7l-2.1-0.6c-8.7-2.6-22-2.5-32.7,0.2C-251.4,555.4-251.4,555.4-251.1,554.5
			L-251.1,554.5z"/>
		<path id="path3043_2_" class="st0" d="M-215.6,692.9c0-0.7,1.4-11.1,1.5-11.3c0.4-0.7,3.3-22.8,4-30.6c0.2-2.1,0.4-3.2,1.2-5.7
			c1.1-3.4,1.9-7.6,2.1-11.7c0.1-2.1,0.2-2.6,0.7-3.3c0.3-0.4,1.1-2.4,1.9-4.4l1.4-3.6v-8.2c0-4.5-0.1-10.6-0.2-13.5
			c-0.1-3.4-0.1-5.5,0.1-5.8c0.3-0.6,3.4-0.6,3.6,0c0.2,0.4,0,8.2-0.3,14.1c-0.5,8.9-0.2,16.3,0.9,29.3c1.3,14.5,1.4,22.3,0.4,30.9
			c-0.8,7.2-1.8,11.2-4,15.4c-1.1,2.1-4.5,5.2-7.5,6.7c-0.9,0.4-5.1,1.9-5.6,1.9C-215.5,693.3-215.6,693.1-215.6,692.9L-215.6,692.9
			z M-211.6,681.5c0.8-1.8,3.2-10.1,5.2-18c2.6-10.3,4.3-15.7,4.8-15.8c0.9-0.2,1,0.5,1,6c0,3.3,0.1,5.8,0.3,6.5l0.3,1.2l0.2-1.2
			c0.1-0.7,0.3-4.6,0.4-8.7c0.3-8.3,0.1-16-0.6-19.1c-0.6-2.8-0.9-2.2-1.7,2.7c-1,6.3-8,36.8-8.6,37.3c-0.2,0.1-0.1-0.5,0.5-4.6
			c0.5-3.7,1.5-12.3,1.6-14.4c0.1-1.7,0.1-1.8-0.2-1.1c-0.7,1.4-4.4,26.8-4.5,29.9C-212.9,683.3-212.2,682.8-211.6,681.5
			L-211.6,681.5L-211.6,681.5z"/>
		<path id="path3045_2_" class="st0" d="M-250.8,692.4c-4-1.2-6.4-2.4-9.3-4.6c-1.6-1.2-1.8-1.5-2.6-3.2c-3.2-7-3.7-9.6-3.9-21.1
			c-0.2-7.4,0.1-13.2,0.9-23.7c0.3-3.7,0.6-7.2,0.6-7.7c0-0.6,0.1,3.4,0.1,8.9c0,8.8,0.1,10.3,0.5,13.5c0.3,2,0.5,3.6,0.6,3.7
			s0.2-1.9,0.3-4.4c0.2-4.4,0.4-6.5,0.7-6.8c0.1-0.1,0.3,0,0.5,0.2c0.3,0.3,0.8,2.5,1.6,7c1.9,10.3,2.7,13.5,5.1,21
			c1.5,4.7,3.2,8.1,4,8.1c0.4,0,0.4-0.2-0.2-2.8c-0.3-1.2-0.8-5.2-1.3-8.9c-0.9-7.8-1.7-12.2-2.7-16.2c-1.4-5.6-1.4-2.7-0.1,7.3
			c0.4,3.3,1,7.3,1.3,8.9s0.4,3.2,0.4,3.4s-0.8-2.3-1.7-5.5c-1.4-5.1-1.8-7-2.9-13.4c-1.7-10.5-4.4-27.2-4.4-27.3s-0.2-0.1-0.4-0.1
			c-0.5,0-0.7,0.2-0.9,1.2c-0.1,0.4-0.1-0.6,0-2.3c0.2-4,0.1-16.8-0.2-23.7c-0.1-3.1-0.2-6.3-0.1-7.1l0.1-1.4l1.4-0.4
			c0.7-0.2,1.4-0.4,1.5-0.3c0.1,0.1,0.1,3.6,0,7.7c-0.1,9.6-0.1,14.8,0.2,17.1c0.3,2.3,1.4,6.9,2,8.3c0.4,0.9,1.3,4.8,2.4,10.7
			c0.2,1,0.9,3.5,1.5,5.5c1,3,1.2,4,1.4,6.5c0.1,1.6,0.3,3,0.3,3.1c0.1,0.1,0.3,2,0.4,4.2c0.5,5.7,0.5,5.7,1.7,13.8
			c1.7,11.1,2.7,16.9,3.2,19.1c0.2,1.1,0.5,2.1,0.5,2.2C-248.2,693.1-248.7,693-250.8,692.4L-250.8,692.4L-250.8,692.4z"/>
		<path id="path3047_2_" class="st0" d="M-214,645.7c-2.4-0.3-31.6-0.8-34.8-0.6c-1.6,0.1-3.3,0.2-3.8,0.2h-0.9l-0.5-2.1
			c-0.9-3.5-1.6-7.2-2-10.3c-0.3-2.4-0.4-5.2-0.3-15.9c0-12.1,0.1-13.8,0.6-13.3c0.1,0.1,0.2,3,0.3,6.6c0.3,9.2,0.7,17.1,1.4,23
			c0.5,4.5,1.5,8.6,1.2,4.9c-0.1-0.9-0.3-4.4-0.6-7.7c-0.4-5.1-0.5-8.1-0.5-17v-10.8l1.3-0.2c2-0.3,26.4-0.4,34.6-0.2l7.6,0.2
			l0.3,0.7c0.4,0.8,0.4,1.6,0,10.6c-0.4,9.2-0.6,13.4-1.2,20.4c-0.3,3.3-0.4,6.2-0.4,6.5c0.1,0.9,0.6-1.4,1.2-5.9
			c0.9-6.9,1.4-12.7,1.7-22.5c0.1-4,0.3-7.4,0.5-7.6c0.1-0.2,0.2,1.7,0.1,5c-0.1,2.9-0.2,8.9-0.2,13.2c-0.2,11.9-0.9,18.4-2.5,22.1
			C-211.3,646-211.3,646-214,645.7L-214,645.7L-214,645.7z"/>
		<path id="path3049_2_" class="st0" d="M-236.7,695.1c-3.2-0.2-7.7-0.9-9.7-1.4c-1-0.3-1-0.3-1.4-1.9c-0.6-2.6-0.9-4.4-0.8-5
			c0.1-0.6,0.2-0.6,1.2-0.4c3.4,0.5,4.8,0.6,10,0.8c6.2,0.2,14.4,0,16.7-0.4c0.8-0.1,2.2-0.5,3-0.8l1.6-0.5v1.5
			c0,1.4-0.3,4.3-0.6,6.1c-0.1,0.7-0.2,0.7-2.1,1.1C-224.3,695.1-230.6,695.5-236.7,695.1L-236.7,695.1L-236.7,695.1z"/>
		<path id="path3051_2_" class="st1" d="M-265.9,680.5c-0.7-0.8-1.9-3.8-2.3-5.5c-0.7-3-1-7.6-0.8-13.7c0.2-9,1.1-19.9,1.8-22.7
			c0.9-3.7,1.3-13.2,1.2-28.4c-0.1-7.3-0.1-12.5,0.1-12.3c0.1,0.2,0.2,7.4,0.3,16.1l0.1,15.7l-0.7,8.1c-1.2,13.3-1.3,15.6-1.1,24
			c0.2,9,0.6,13.6,1.5,16.8C-265.4,680.6-265.3,681.1-265.9,680.5L-265.9,680.5z"/>
		<path id="path3053_2_" class="st1" d="M-199.2,680.8c0-0.1,0.3-1.6,0.7-3.2c0.9-4.2,1.3-6.7,1.7-12.8c0.5-7.1,0.2-14.1-1.4-30
			l-0.8-8.1l0.2-12.2c0.1-6.7,0.2-13.3,0.3-14.6s0.1,4,0.1,11.7c0,9.9,0.1,15,0.3,17c0.2,1.6,0.5,5.5,0.9,8.7s0.7,7.3,0.9,9.1
			s0.5,4.2,0.6,5.2c0.3,2.8,0.3,15,0,18.9c-0.3,3.6-0.7,5.1-2.2,8.5C-198.9,680.8-199.2,681.3-199.2,680.8L-199.2,680.8z"/>
		<path id="path3055_2_" class="st1" d="M-193.4,599.7c-0.5-0.2-1.5-1-2.2-1.7c-1-1-1.3-1.4-1.3-1.8c0.2-1.2,2.3-0.4,4,1.5
			c0.9,1.1,1,1.3,0.8,2C-192.2,600.2-192.3,600.2-193.4,599.7z"/>
		<path id="path3057_2_" class="st1" d="M-198.5,588.9c0-2.2,0.1-8.4,0.2-13.9c0.2-10.2,0.1-13.8-0.6-18.2c-0.5-3.2-0.9-4.6-2.1-7.3
			c-1.2-2.6-2.4-6.1-2.2-6.3s2.4,3.1,3.2,4.8s1.9,5.5,2.5,8.5s0.7,8.7,0.3,14c-0.2,2.5-0.5,8.5-0.6,13.2c-0.1,4.8-0.3,8.8-0.5,8.9
			C-198.4,592.8-198.5,591.4-198.5,588.9L-198.5,588.9L-198.5,588.9z"/>
		<path id="path3059_2_" class="st1" d="M-266.2,590.2c-0.1-1.5-0.3-4.5-0.4-6.6s-0.4-5.6-0.7-7.6s-0.5-6-0.6-8.8
			c-0.2-6.4,0.2-9.9,1.6-13.9c0.9-2.7,3.5-8.5,3.8-8.2c0.1,0.1-0.7,2.5-1.6,5.4c-2.4,7.2-2.5,7.9-2.3,17.7c0.1,4.3,0.2,9.5,0.4,11.7
			c0.1,2.2,0.2,6,0.2,8.5l-0.1,4.6L-266.2,590.2L-266.2,590.2z"/>
		<path id="path3061_2_" class="st1" d="M-272.5,599.5c-0.4-0.8,0.9-2.3,2.9-3.3c1.7-0.9,2.8,0.2,1.5,1.4c-0.7,0.6-2.6,1.8-3.6,2.1
			C-272.2,599.8-272.4,599.8-272.5,599.5L-272.5,599.5z"/>
		<path id="path3063_2_" class="st1" d="M-236.1,683.6c-5.2-0.5-9.4-1.3-10-2c-0.1-0.2-0.5-1.1-0.8-2.1c-1.2-3.7-2-7.8-2.5-13.3
			c-0.5-4.9-1.4-18.7-1.2-18.9s35.1-0.2,35.9,0l0.6,0.2l-0.3,5.9c-0.5,11.2-2.2,24.7-3.4,28c-0.4,1.1-1.1,1.5-3.3,1.9
			C-222.5,683.5-234,683.8-236.1,683.6L-236.1,683.6L-236.1,683.6z"/>
		<path id="path3065_2_" class="st2" d="M-255,599.2c-1.8-0.3-3.1-2.4-3.8-6.3c-0.4-2-0.3-3.4,0.4-5.4c1.1-3.1,3.4-6,6.9-8.5
			c2-1.4,15.6-9.5,17-10.1c0.7-0.3,1.5-0.4,2.8-0.4c1.6,0,1.9,0.1,3.5,0.9c4,2.1,12.1,8.5,18.3,14.6c2.4,2.4,2.8,2.9,3.1,3.9
			c0.4,1.6,0.9,5.8,0.8,7.1c-0.2,1.7-1,3.2-2.1,3.8c-0.9,0.4-1.4,0.5-23.3,0.5C-243.9,599.4-254.4,599.3-255,599.2L-255,599.2
			L-255,599.2z"/>
		<path id="path3067_2_" class="st2" d="M-259.4,622.9l-0.9-2.6l0.1-10.7c0-5.9,0.1-11.1,0.2-11.5l0.1-0.7l0.9,1.3l0.9,1.3v7.8
			c0,4.3-0.1,10-0.2,12.8l-0.2,5L-259.4,622.9L-259.4,622.9z"/>
		<path id="path3069_2_" class="st2" d="M-206.5,614.3c0-11.5,0-13.1,0.3-13.5c0.2-0.2,0.6-1.1,1-1.9l0.6-1.5l0.2,11.7l0.2,11.7
			l-1,2.9c-0.5,1.6-1,3.1-1.2,3.3C-206.4,627.2-206.5,621.7-206.5,614.3z"/>
		<path id="path3071_2_" class="st3" d="M-203.1,552c-0.7-0.4-2.8-1.1-6.2-2c-3.7-1-4.6-1.4-5-2c-0.5-1-2-9.7-1.7-10.5
			c0.2-0.6,1-0.5,3,0.2c4,1.6,6.6,3.6,8.1,6.4c0.8,1.4,2.2,5.2,2.5,6.7C-202.2,551.7-202.6,552.4-203.1,552L-203.1,552z"/>
		<path id="path3073_2_" class="st4" d="M-262.6,552.4c-0.5-1.3,0.3-4.9,1.7-7.8c1.7-3.6,5.4-6.6,9-7.3c1.1-0.2,1.4-0.2,1.8,0.1
			c0.7,0.5,0.8,1,0.4,3.8c-0.6,5.2-1.3,6.8-3.1,7.8c-0.9,0.5-9.1,3.8-9.5,3.8C-262.4,552.7-262.5,552.6-262.6,552.4L-262.6,552.4z"
			/>
	</g>
	<g id="red-car-blinker-left" transform="translate(445.68745,-242.71932)">
		<g id="g3271_1_" transform="translate(1.8758905,-286.76903)">
			<path id="path2995-4-8_1_" d="M-788,778.3c2.1-1.6,4.5-2.8,7-3.7c3.2-1.2,6.5-1.8,9.9-2.1c4.8-0.4,9.8-0.4,14.6,0.4
				c3.8,0.6,7.6,1.7,11.1,3.3c2.9,1.3,5.6,3.2,8,5.3c1.7,1.4,3.2,3.1,4.5,5c1.2,1.8,2.1,3.9,2.8,6c0.9,2.7,1.1,5.6,1.5,8.4
				c0.6,3.6,0.3,12.4-0.3,16.1c-0.2,1.3-0.5,6.4-0.6,11.1l-0.2,8.7l1.2,0.4c1.4,0.6,2.7,1.7,3.7,2.8c1.7,1.8,2.2,3.7,1.1,4.1
				c-0.8,0.3-5.5-2.2-5.9-3.1c-0.2-0.6-0.9,18.2-0.7,22.4c0.1,3.9,0.5,6.3,0.8,9.5c0.3,4.1,0.8,8,1,11.9c0.2,1.6,0.4,4,0.5,4.7
				c1,8.8,1.1,11.7,1,19.1c-0.1,6.7-0.6,9.2-1.1,10.8c-0.7,2.1-2.5,6.9-4.9,10c-1.4,1.8-3.2,3.3-5.2,4.5c-1.2,0.8-2.6,1.3-3.9,1.8
				c-4,1.4-9.3,2.7-12.4,3.1c-3.8,0.5-9.2,0.6-9.8,0.5h-2.8c-0.6,0-2.9-0.3-4.5-0.4c-1,0-2.6-0.2-3.5-0.4s-2.8-0.6-4.2-0.8
				c-1.3-0.1-11.9-3.6-13.9-5.5c-1.3-0.8-3-2.2-3.5-3.7c-3.1-4.1-4.9-9.1-5.6-14.1c-0.6-4.1,0.4-18.6,1.2-27.8
				c0.4-4.3,1.5-8.5,1.7-12.9c0.4-8.2,0.3-13.2,0.2-19.8c0-2.5-0.1-4.8-0.2-7.4c-0.1-2.6-0.2-4.8-0.3-4.8c0-0.1-1.3,0.5-2.7,1.2
				c-3.5,1.7-4.2,1.7-3.9,0c0.4-2.1,3.9-5.3,5.8-5.2c0.8,0,0.5-3,0.6-4.6c0.1-1.4,0-4.3,0-4.3c-0.2-5.2-0.7-10-1.3-13.6
				c-0.8-5.1-0.2-15.4,1.3-19.8c0.6-1.9,1.9-4.5,3.2-6.6C-794.3,784.2-791.3,780.6-788,778.3L-788,778.3z"/>
			<path id="path3029_1_" class="st0" d="M-733.4,835.8c-0.7-0.4-1.8-2.2-3.3-5.5c-0.8-1.8-1.7-3.6-2.1-4c-0.5-0.7-1.1-2.9-4.3-17.2
				c-2-9-3.7-16.5-3.6-16.5c0.3-0.3,9.5,2.5,12.3,3.8l1.4,0.6l0.3,2.1c0.6,4.3,0.8,11.6,0.7,23.8c-0.1,6.7-0.2,12.4-0.3,12.7
				C-732.5,836-732.8,836.1-733.4,835.8L-733.4,835.8z"/>
			<path id="path3031_1_" class="st0" d="M-797.2,835.6c-0.2-1.1-0.7-18.7-0.7-25.8c0-7.3,0.2-9.5,1-11.3c0.2-0.5,0.6-1,0.9-1.2
				c0.3-0.2,2.3-0.9,4.6-1.6c2.3-0.7,4.9-1.8,5.9-2.3c1.7-0.8,1.8-0.9,1.7-0.4c-0.1,0.3-1.5,7.2-3.1,15.3
				c-2.7,13.2-3.1,14.9-3.7,15.7c-1,1.5-2.1,3.8-3.2,6.7c-1.3,3.4-1.6,4.1-2.6,4.9l-0.8,0.6L-797.2,835.6L-797.2,835.6z"/>
			<path id="path3033_1_" class="st0" d="M-740.9,780.8c-2.8-1.6-5.5-2.4-7.6-2.1c-1.2,0.2-1.8,0.7-1.8,1.6v0.7l-2.2-0.5
				c-3.5-0.8-6.8-1.1-12.7-1.1c-5.8,0-8,0.2-12.3,1.1c-1.4,0.3-2.5,0.6-2.6,0.6c0,0-0.1-0.2-0.1-0.4c0-0.8-0.5-1.9-1-2.1
				c-0.8-0.3-4.4,0.2-5.9,0.8c-0.8,0.3-1.4,0.5-1.4,0.5c-0.2-0.2,3.7-2.8,5.3-3.6c6.1-2.9,17.1-4.1,24.7-2.8
				c6.8,1.2,16.3,5,18.7,7.4C-739,781.7-739.3,781.7-740.9,780.8L-740.9,780.8L-740.9,780.8z"/>
			<path id="path3035_1_" class="st0" d="M-782.9,792.6c0.2-0.8,0.4-1.6,0.5-1.8s0.5-1.7,0.8-3.4s0.7-3.4,0.9-3.7
				c0.4-0.9,1.2-1.2,4.3-1.8c4-0.8,10.2-1.2,16.2-0.8c5,0.3,6.7,0.5,8.9,1.1l1.3,0.4l0.4,1.7c1.5,7.2,2,9.4,1.9,9.5
				c0,0-0.6-0.1-1.3-0.3c-8.4-2.9-22.7-2.8-32.3,0.2c-0.8,0.3-1.5,0.5-1.6,0.5C-783.1,794.1-783.1,793.4-782.9,792.6L-782.9,792.6z"
				/>
			<path id="path3037_1_" class="st0" d="M-743,822.3c-3.2-3.2-8-7-13.8-10.6c-3.8-2.4-4.3-2.6-6.6-2.8s-3.9,0.3-7.7,2.1
				c-4.5,2.2-9.3,5.1-14.9,9c-1.2,0.9-2.3,1.6-2.3,1.5c-0.1-0.1,3.4-17.4,3.6-17.7c0.2-0.3,3.2-1.3,5.8-1.9c8.1-1.8,20-1.3,32.4,1.4
				l1.1,0.2l0.3,1.5c1.5,6.5,3.8,18.2,3.7,18.5C-741.4,823.8-742.2,823.2-743,822.3L-743,822.3L-743,822.3z"/>
			<path id="path3039_1_" class="st0" d="M-747.4,801.5c-2-0.6-6.3-1.4-9.2-1.8c-2.3-0.3-4.3-0.4-10.3-0.4c-7.8,0-10.3,0.2-15.5,1.5
				c-1.1,0.3-2,0.4-2,0.4s0-0.3,0.1-0.6c0.2-0.9,5.4-2.2,11.4-2.9c4.3-0.5,14.1-0.3,18.4,0.3c4.4,0.7,7.8,1.6,8.2,2.3
				c0.2,0.4,0.4,1.7,0.2,1.6C-746.1,801.8-746.7,801.6-747.4,801.5L-747.4,801.5L-747.4,801.5z"/>
			<path id="path3041_1_" class="st0" d="M-783.7,797.2c0.1-0.4,0.2-0.8,0.2-0.8c0-0.1,2.5-0.8,4.8-1.4c8.4-2.1,16.8-2.5,24.1-1
				c2.8,0.6,7,1.8,7.3,2.1c0.1,0.1,0.3,0.6,0.4,1l0.2,0.7l-2.1-0.6c-8.7-2.6-22-2.5-32.7,0.2C-784,798.1-783.9,798.1-783.7,797.2
				L-783.7,797.2z"/>
			<path id="path3043_1_" class="st0" d="M-748.2,935.7c0-0.7,1.4-11.1,1.5-11.3c0.4-0.7,3.3-22.8,4-30.6c0.2-2.1,0.4-3.2,1.2-5.7
				c1.1-3.4,1.9-7.6,2.1-11.7c0.1-2.1,0.2-2.6,0.7-3.3c0.3-0.4,1.1-2.4,1.9-4.4l1.4-3.6v-8.2c0-4.5-0.1-10.6-0.2-13.5
				c-0.1-3.4-0.1-5.5,0.1-5.8c0.3-0.6,3.4-0.6,3.6,0c0.2,0.4,0,8.2-0.3,14.1c-0.5,8.9-0.2,16.3,0.9,29.3c1.3,14.5,1.4,22.3,0.4,30.9
				c-0.8,7.2-1.8,11.2-4,15.4c-1.1,2.1-4.5,5.2-7.5,6.7c-0.9,0.4-5.1,1.9-5.6,1.9C-748.1,936-748.2,935.8-748.2,935.7L-748.2,935.7z
				 M-744.2,924.2c0.8-1.8,3.2-10.1,5.2-18c2.6-10.3,4.3-15.7,4.8-15.8c0.9-0.2,1,0.5,1,6c0,3.3,0.1,5.8,0.3,6.5l0.3,1.2l0.2-1.2
				c0.1-0.7,0.3-4.6,0.4-8.7c0.3-8.3,0.1-16-0.6-19.1c-0.6-2.8-0.9-2.2-1.7,2.7c-1,6.3-8,36.8-8.6,37.3c-0.2,0.1-0.1-0.5,0.5-4.6
				c0.5-3.7,1.5-12.3,1.6-14.4c0.1-1.7,0.1-1.8-0.2-1.1c-0.7,1.4-4.4,26.8-4.5,29.9C-745.4,926-744.7,925.6-744.2,924.2
				L-744.2,924.2L-744.2,924.2z"/>
			<path id="path3045_1_" class="st0" d="M-783.4,935.1c-4-1.2-6.4-2.4-9.3-4.6c-1.6-1.2-1.8-1.5-2.6-3.2c-3.2-7-3.7-9.6-3.9-21.1
				c-0.2-7.4,0.1-13.2,0.9-23.7c0.3-3.7,0.6-7.2,0.6-7.7c0-0.6,0.1,3.4,0.1,8.9c0,8.8,0.1,10.3,0.5,13.5c0.3,2,0.5,3.6,0.6,3.7
				c0.1,0.1,0.2-1.9,0.3-4.4c0.2-4.4,0.4-6.5,0.7-6.8c0.1-0.1,0.3,0,0.5,0.2c0.3,0.3,0.8,2.5,1.6,7c1.9,10.3,2.7,13.5,5.1,21
				c1.5,4.7,3.2,8.1,4,8.1c0.4,0,0.4-0.2-0.2-2.8c-0.3-1.2-0.8-5.2-1.3-8.9c-0.9-7.8-1.7-12.2-2.7-16.2c-1.4-5.6-1.4-2.7-0.1,7.3
				c0.4,3.3,1,7.3,1.3,8.9c0.3,1.7,0.4,3.2,0.4,3.4s-0.8-2.3-1.7-5.5c-1.4-5.1-1.8-7-2.9-13.4c-1.7-10.5-4.4-27.2-4.4-27.3
				s-0.2-0.1-0.4-0.1c-0.5,0-0.7,0.2-0.9,1.2c-0.1,0.4-0.1-0.6,0-2.3c0.2-4,0.1-16.8-0.2-23.7c-0.1-3.1-0.2-6.3-0.1-7.1l0.1-1.4
				l1.4-0.4c0.7-0.2,1.4-0.4,1.5-0.3c0.1,0.1,0.1,3.6,0,7.7c-0.1,9.6-0.1,14.8,0.2,17.1s1.4,6.9,2,8.3c0.4,0.9,1.3,4.8,2.4,10.7
				c0.2,1,0.9,3.5,1.5,5.5c1,3,1.2,4,1.4,6.5c0.1,1.6,0.3,3,0.3,3.1s0.3,2,0.4,4.2c0.5,5.7,0.5,5.7,1.7,13.8
				c1.7,11.1,2.7,16.9,3.2,19.1c0.2,1.1,0.5,2.1,0.5,2.2C-780.7,935.9-781.3,935.8-783.4,935.1L-783.4,935.1L-783.4,935.1z"/>
			<path id="path3047_1_" class="st0" d="M-746.6,888.4c-2.4-0.3-31.6-0.8-34.8-0.6c-1.6,0.1-3.3,0.2-3.8,0.2h-0.9l-0.5-2.1
				c-0.9-3.5-1.6-7.2-2-10.3c-0.3-2.4-0.4-5.2-0.3-15.9c0-12.1,0.1-13.8,0.6-13.3c0.1,0.1,0.2,3,0.3,6.6c0.3,9.2,0.7,17.1,1.4,23
				c0.5,4.5,1.5,8.6,1.2,4.9c-0.1-0.9-0.3-4.4-0.6-7.7c-0.4-5.1-0.5-8.1-0.5-17v-10.8l1.3-0.2c2-0.3,26.4-0.4,34.6-0.2l7.6,0.2
				l0.3,0.7c0.4,0.8,0.4,1.6,0,10.6c-0.4,9.2-0.6,13.4-1.2,20.4c-0.3,3.3-0.4,6.2-0.4,6.5c0.1,0.9,0.6-1.4,1.2-5.9
				c0.9-6.9,1.4-12.7,1.7-22.5c0.1-4,0.3-7.4,0.5-7.6c0.1-0.2,0.2,1.7,0.1,5c-0.1,2.9-0.2,8.9-0.2,13.2c-0.2,11.9-0.9,18.4-2.5,22.1
				C-743.9,888.7-743.8,888.7-746.6,888.4L-746.6,888.4L-746.6,888.4z"/>
			<path id="path3049_1_" class="st0" d="M-769.3,937.8c-3.2-0.2-7.7-0.9-9.7-1.4c-1-0.3-1-0.3-1.4-1.9c-0.6-2.6-0.9-4.4-0.8-5
				c0.1-0.6,0.2-0.6,1.2-0.4c3.4,0.5,4.8,0.6,10,0.8c6.2,0.2,14.4,0,16.7-0.4c0.8-0.1,2.2-0.5,3-0.8l1.6-0.5v1.5
				c0,1.4-0.3,4.3-0.6,6.1c-0.1,0.7-0.2,0.7-2.1,1.1C-756.9,937.8-763.2,938.2-769.3,937.8L-769.3,937.8L-769.3,937.8z"/>
			<path id="path3051_1_" class="st1" d="M-798.5,923.2c-0.7-0.8-1.9-3.8-2.3-5.5c-0.7-3-1-7.6-0.8-13.7c0.2-9,1.1-19.9,1.8-22.7
				c0.9-3.7,1.3-13.2,1.2-28.4c-0.1-7.3-0.1-12.5,0.1-12.3c0.1,0.2,0.2,7.4,0.3,16.1l0.1,15.7l-0.7,8.1c-1.2,13.3-1.3,15.6-1.1,24
				c0.2,9,0.6,13.6,1.5,16.8C-797.9,923.3-797.9,923.9-798.5,923.2L-798.5,923.2z"/>
			<path id="path3053_1_" class="st1" d="M-731.8,923.5c0-0.1,0.3-1.6,0.7-3.2c0.9-4.2,1.3-6.7,1.7-12.8c0.5-7.1,0.2-14.1-1.4-30
				l-0.8-8.1l0.2-12.2c0.1-6.7,0.2-13.3,0.3-14.6s0.1,4,0.1,11.7c0,9.9,0.1,15,0.3,17c0.2,1.6,0.5,5.5,0.9,8.7
				c0.3,3.2,0.7,7.3,0.9,9.1s0.5,4.2,0.6,5.2c0.3,2.8,0.3,15,0,18.9c-0.3,3.6-0.7,5.1-2.2,8.5C-731.4,923.5-731.8,924-731.8,923.5
				L-731.8,923.5z"/>
			<path id="path3055_1_" class="st1" d="M-726,842.4c-0.5-0.2-1.5-1-2.2-1.7c-1-1-1.3-1.4-1.3-1.8c0.2-1.2,2.3-0.4,4,1.5
				c0.9,1.1,1,1.3,0.8,2C-724.8,842.9-724.8,842.9-726,842.4z"/>
			<path id="path3057_1_" class="st1" d="M-731.1,831.7c0-2.2,0.1-8.4,0.2-13.9c0.2-10.2,0.1-13.8-0.6-18.2
				c-0.5-3.2-0.9-4.6-2.1-7.3c-1.2-2.6-2.4-6.1-2.2-6.3s2.4,3.1,3.2,4.8s1.9,5.5,2.5,8.5s0.7,8.7,0.3,14c-0.2,2.5-0.5,8.5-0.6,13.2
				c-0.1,4.8-0.3,8.8-0.5,8.9C-731,835.6-731.1,834.2-731.1,831.7L-731.1,831.7L-731.1,831.7z"/>
			<path id="path3059_1_" class="st1" d="M-798.8,832.9c-0.1-1.5-0.3-4.5-0.4-6.6c-0.1-2.1-0.4-5.6-0.7-7.6c-0.3-2.1-0.5-6-0.6-8.8
				c-0.2-6.4,0.2-9.9,1.6-13.9c0.9-2.7,3.5-8.5,3.8-8.2c0.1,0.1-0.7,2.5-1.6,5.4c-2.4,7.2-2.5,7.9-2.3,17.7
				c0.1,4.3,0.2,9.5,0.4,11.7c0.1,2.2,0.2,6,0.2,8.5l-0.1,4.6L-798.8,832.9L-798.8,832.9z"/>
			<path id="path3061_1_" class="st1" d="M-805.1,842.2c-0.4-0.8,0.9-2.3,2.9-3.3c1.7-0.9,2.8,0.2,1.5,1.4c-0.7,0.6-2.6,1.8-3.6,2.1
				C-804.8,842.5-804.9,842.5-805.1,842.2L-805.1,842.2z"/>
			<path id="path3063_1_" class="st1" d="M-768.7,926.3c-5.2-0.5-9.4-1.3-10-2c-0.1-0.2-0.5-1.1-0.8-2.1c-1.2-3.7-2-7.8-2.5-13.3
				c-0.5-4.9-1.4-18.7-1.2-18.9s35.1-0.2,35.9,0l0.6,0.2l-0.3,5.9c-0.5,11.2-2.2,24.7-3.4,28c-0.4,1.1-1.1,1.5-3.3,1.9
				C-755.1,926.2-766.6,926.5-768.7,926.3L-768.7,926.3L-768.7,926.3z"/>
			<path id="path3065_1_" class="st2" d="M-787.6,841.9c-1.8-0.3-3.1-2.4-3.8-6.3c-0.4-2-0.3-3.4,0.4-5.4c1.1-3.1,3.4-6,6.9-8.5
				c2-1.4,15.6-9.5,17-10.1c0.7-0.3,1.5-0.4,2.8-0.4c1.6,0,1.9,0.1,3.5,0.9c4,2.1,12.1,8.5,18.3,14.6c2.4,2.4,2.8,2.9,3.1,3.9
				c0.4,1.6,0.9,5.8,0.8,7.1c-0.2,1.7-1,3.2-2.1,3.8c-0.9,0.4-1.4,0.5-23.3,0.5C-776.5,842.1-787,842-787.6,841.9L-787.6,841.9
				L-787.6,841.9z"/>
			<path id="path3067_1_" class="st2" d="M-792,865.6l-0.9-2.6l0.1-10.7c0-5.9,0.1-11.1,0.2-11.5l0.1-0.7l0.9,1.3l0.9,1.3v7.8
				c0,4.3-0.1,10-0.2,12.8l-0.2,5L-792,865.6L-792,865.6z"/>
			<path id="path3069_1_" class="st2" d="M-739,857c0-11.5,0-13.1,0.3-13.5c0.2-0.2,0.6-1.1,1-1.9l0.6-1.5l0.2,11.7l0.2,11.7l-1,2.9
				c-0.5,1.6-1,3.1-1.2,3.3C-739,869.9-739,864.4-739,857z"/>
			<path id="path3071_1_" class="st4" d="M-735.6,794.8c-0.7-0.4-2.8-1.1-6.2-2c-3.7-1-4.6-1.4-5-2c-0.5-1-2-9.7-1.7-10.5
				c0.2-0.6,1-0.5,3,0.2c4,1.6,6.6,3.6,8.1,6.4c0.8,1.4,2.2,5.2,2.5,6.7C-734.7,794.4-735.1,795.1-735.6,794.8L-735.6,794.8z"/>
			<path id="path3073_1_" class="st5" d="M-795.2,795.1c-0.5-1.3,0.3-4.9,1.7-7.8c1.7-3.6,5.4-6.6,9-7.3c1.1-0.2,1.4-0.2,1.8,0.1
				c0.7,0.5,0.8,1,0.4,3.8c-0.6,5.2-1.3,6.8-3.1,7.8c-0.9,0.5-9.1,3.8-9.5,3.8C-795,795.5-795.1,795.3-795.2,795.1L-795.2,795.1z"/>
		</g>
	</g>
	<g id="red-car-blinker-off" transform="translate(1.8758905,-286.76903)">
		<path id="path2995-4-8" d="M-429.2,535.6c2.1-1.6,4.5-2.8,7-3.7c3.2-1.2,6.5-1.8,9.9-2.1c4.8-0.4,9.8-0.4,14.6,0.4
			c3.8,0.6,7.6,1.7,11.1,3.3c2.9,1.3,5.6,3.2,8,5.3c1.7,1.4,3.2,3.1,4.5,5c1.2,1.8,2.1,3.9,2.8,6c0.9,2.7,1.1,5.6,1.5,8.4
			c0.6,3.6,0.3,12.4-0.3,16.1c-0.2,1.3-0.5,6.4-0.6,11.1l-0.2,8.7l1.2,0.4c1.4,0.6,2.7,1.7,3.7,2.8c1.7,1.8,2.2,3.7,1.1,4.1
			c-0.8,0.3-5.5-2.2-5.9-3.1c-0.2-0.6-0.9,18.2-0.7,22.4c0.1,3.9,0.5,6.3,0.8,9.5c0.3,4.1,0.8,8,1,11.9c0.2,1.6,0.4,4,0.5,4.7
			c1,8.8,1.1,11.7,1,19.1c-0.1,6.7-0.6,9.2-1.1,10.8c-0.7,2.1-2.5,6.9-4.9,10c-1.4,1.8-3.2,3.3-5.2,4.5c-1.2,0.8-2.6,1.3-3.9,1.8
			c-4,1.4-9.3,2.7-12.4,3.1c-3.8,0.5-9.2,0.6-9.8,0.5h-2.8c-0.6,0-2.9-0.3-4.5-0.4c-1,0-2.6-0.2-3.5-0.4s-2.8-0.6-4.2-0.8
			c-1.3-0.1-11.9-3.6-13.9-5.5c-1.3-0.8-3-2.2-3.5-3.7c-3.1-4.1-4.9-9.1-5.6-14.1c-0.6-4.1,0.4-18.6,1.2-27.8
			c0.4-4.3,1.5-8.5,1.7-12.9c0.4-8.2,0.3-13.2,0.2-19.8c0-2.5-0.1-4.8-0.2-7.4c-0.1-2.6-0.2-4.8-0.3-4.8s-1.3,0.5-2.7,1.2
			c-3.5,1.7-4.2,1.7-3.9,0c0.4-2.1,3.9-5.3,5.8-5.2c0.8,0,0.5-3,0.6-4.6c0.1-1.4,0-4.3,0-4.3c-0.2-5.2-0.7-10-1.3-13.6
			c-0.8-5.1-0.2-15.4,1.3-19.8c0.6-1.9,1.9-4.5,3.2-6.6C-435.5,541.5-432.5,537.9-429.2,535.6L-429.2,535.6z"/>
		<path id="path3029" class="st0" d="M-374.6,593c-0.7-0.4-1.8-2.2-3.3-5.5c-0.8-1.8-1.7-3.6-2.1-4c-0.5-0.7-1.1-2.9-4.3-17.2
			c-2-9-3.7-16.5-3.6-16.5c0.3-0.3,9.5,2.5,12.3,3.8l1.4,0.6l0.3,2.1c0.6,4.3,0.8,11.6,0.7,23.8c-0.1,6.7-0.2,12.4-0.3,12.7
			C-373.7,593.3-374,593.4-374.6,593L-374.6,593z"/>
		<path id="path3031" class="st0" d="M-438.4,592.9c-0.2-1.1-0.7-18.7-0.7-25.8c0-7.3,0.2-9.5,1-11.3c0.2-0.5,0.6-1,0.9-1.2
			s2.3-0.9,4.6-1.6s4.9-1.8,5.9-2.3c1.7-0.8,1.8-0.9,1.7-0.4c-0.1,0.3-1.5,7.2-3.1,15.3c-2.7,13.2-3.1,14.9-3.7,15.7
			c-1,1.5-2.1,3.8-3.2,6.7c-1.3,3.4-1.6,4.1-2.6,4.9l-0.8,0.6L-438.4,592.9L-438.4,592.9z"/>
		<path id="path3033" class="st0" d="M-382.1,538.1c-2.8-1.6-5.5-2.4-7.6-2.1c-1.2,0.2-1.8,0.7-1.8,1.6v0.7l-2.2-0.5
			c-3.5-0.8-6.8-1.1-12.7-1.1c-5.8,0-8,0.2-12.3,1.1c-1.4,0.3-2.5,0.6-2.6,0.6s-0.1-0.2-0.1-0.4c0-0.8-0.5-1.9-1-2.1
			c-0.8-0.3-4.4,0.2-5.9,0.8c-0.8,0.3-1.4,0.5-1.4,0.5c-0.2-0.2,3.7-2.8,5.3-3.6c6.1-2.9,17.1-4.1,24.7-2.8c6.8,1.2,16.3,5,18.7,7.4
			C-380.2,539-380.5,539-382.1,538.1L-382.1,538.1L-382.1,538.1z"/>
		<path id="path3035" class="st0" d="M-424.1,549.9c0.2-0.8,0.4-1.6,0.5-1.8s0.5-1.7,0.8-3.4s0.7-3.4,0.9-3.7
			c0.4-0.9,1.2-1.2,4.3-1.8c4-0.8,10.2-1.2,16.2-0.8c5,0.3,6.7,0.5,8.9,1.1l1.3,0.4l0.4,1.7c1.5,7.2,2,9.4,1.9,9.5
			c0,0-0.6-0.1-1.3-0.3c-8.4-2.9-22.7-2.8-32.3,0.2c-0.8,0.3-1.5,0.5-1.6,0.5C-424.3,551.4-424.2,550.7-424.1,549.9L-424.1,549.9z"
			/>
		<path id="path3037" class="st0" d="M-384.2,579.6c-3.2-3.2-8-7-13.8-10.6c-3.8-2.4-4.3-2.6-6.6-2.8c-2.3-0.2-3.9,0.3-7.7,2.1
			c-4.5,2.2-9.3,5.1-14.9,9c-1.2,0.9-2.3,1.6-2.3,1.5c-0.1-0.1,3.4-17.4,3.6-17.7s3.2-1.3,5.8-1.9c8.1-1.8,20-1.3,32.4,1.4l1.1,0.2
			l0.3,1.5c1.5,6.5,3.8,18.2,3.7,18.5C-382.6,581.1-383.3,580.5-384.2,579.6L-384.2,579.6L-384.2,579.6z"/>
		<path id="path3039" class="st0" d="M-388.5,558.7c-2-0.6-6.3-1.4-9.2-1.8c-2.3-0.3-4.3-0.4-10.3-0.4c-7.8,0-10.3,0.2-15.5,1.5
			c-1.1,0.3-2,0.4-2,0.4s0-0.3,0.1-0.6c0.2-0.9,5.4-2.2,11.4-2.9c4.3-0.5,14.1-0.3,18.4,0.3c4.4,0.7,7.8,1.6,8.2,2.3
			c0.2,0.4,0.4,1.7,0.2,1.6C-387.3,559.1-387.9,558.9-388.5,558.7L-388.5,558.7L-388.5,558.7z"/>
		<path id="path3041" class="st0" d="M-424.9,554.5c0.1-0.4,0.2-0.8,0.2-0.8c0-0.1,2.5-0.8,4.8-1.4c8.4-2.1,16.8-2.5,24.1-1
			c2.8,0.6,7,1.8,7.3,2.1c0.1,0.1,0.3,0.6,0.4,1l0.2,0.7l-2.1-0.6c-8.7-2.6-22-2.5-32.7,0.2C-425.2,555.4-425.1,555.4-424.9,554.5
			L-424.9,554.5z"/>
		<path id="path3043" class="st0" d="M-389.3,692.9c0-0.7,1.4-11.1,1.5-11.3c0.4-0.7,3.3-22.8,4-30.6c0.2-2.1,0.4-3.2,1.2-5.7
			c1.1-3.4,1.9-7.6,2.1-11.7c0.1-2.1,0.2-2.6,0.7-3.3c0.3-0.4,1.1-2.4,1.9-4.4l1.4-3.6v-8.2c0-4.5-0.1-10.6-0.2-13.5
			c-0.1-3.4-0.1-5.5,0.1-5.8c0.3-0.6,3.4-0.6,3.6,0c0.2,0.4,0,8.2-0.3,14.1c-0.5,8.9-0.2,16.3,0.9,29.3c1.3,14.5,1.4,22.3,0.4,30.9
			c-0.8,7.2-1.8,11.2-4,15.4c-1.1,2.1-4.5,5.2-7.5,6.7c-0.9,0.4-5.1,1.9-5.6,1.9C-389.2,693.3-389.3,693.1-389.3,692.9L-389.3,692.9
			z M-385.3,681.5c0.8-1.8,3.2-10.1,5.2-18c2.6-10.3,4.3-15.7,4.8-15.8c0.9-0.2,1,0.5,1,6c0,3.3,0.1,5.8,0.3,6.5l0.3,1.2l0.2-1.2
			c0.1-0.7,0.3-4.6,0.4-8.7c0.3-8.3,0.1-16-0.6-19.1c-0.6-2.8-0.9-2.2-1.7,2.7c-1,6.3-8,36.8-8.6,37.3c-0.2,0.1-0.1-0.5,0.5-4.6
			c0.5-3.7,1.5-12.3,1.6-14.4c0.1-1.7,0.1-1.8-0.2-1.1c-0.7,1.4-4.4,26.8-4.5,29.9C-386.6,683.3-385.9,682.8-385.3,681.5
			L-385.3,681.5L-385.3,681.5z"/>
		<path id="path3045" class="st0" d="M-424.5,692.4c-4-1.2-6.4-2.4-9.3-4.6c-1.6-1.2-1.8-1.5-2.6-3.2c-3.2-7-3.7-9.6-3.9-21.1
			c-0.2-7.4,0.1-13.2,0.9-23.7c0.3-3.7,0.6-7.2,0.6-7.7c0-0.6,0.1,3.4,0.1,8.9c0,8.8,0.1,10.3,0.5,13.5c0.3,2,0.5,3.6,0.6,3.7
			c0.1,0.1,0.2-1.9,0.3-4.4c0.2-4.4,0.4-6.5,0.7-6.8c0.1-0.1,0.3,0,0.5,0.2c0.3,0.3,0.8,2.5,1.6,7c1.9,10.3,2.7,13.5,5.1,21
			c1.5,4.7,3.2,8.1,4,8.1c0.4,0,0.4-0.2-0.2-2.8c-0.3-1.2-0.8-5.2-1.3-8.9c-0.9-7.8-1.7-12.2-2.7-16.2c-1.4-5.6-1.4-2.7-0.1,7.3
			c0.4,3.3,1,7.3,1.3,8.9c0.3,1.7,0.4,3.2,0.4,3.4s-0.8-2.3-1.7-5.5c-1.4-5.1-1.8-7-2.9-13.4c-1.7-10.5-4.4-27.2-4.4-27.3
			s-0.2-0.1-0.4-0.1c-0.5,0-0.7,0.2-0.9,1.2c-0.1,0.4-0.1-0.6,0-2.3c0.2-4,0.1-16.8-0.2-23.7c-0.1-3.1-0.2-6.3-0.1-7.1l0.1-1.4
			l1.4-0.4c0.7-0.2,1.4-0.4,1.5-0.3s0.1,3.6,0,7.7c-0.1,9.6-0.1,14.8,0.2,17.1c0.3,2.3,1.4,6.9,2,8.3c0.4,0.9,1.3,4.8,2.4,10.7
			c0.2,1,0.9,3.5,1.5,5.5c1,3,1.2,4,1.4,6.5c0.1,1.6,0.3,3,0.3,3.1c0.1,0.1,0.3,2,0.4,4.2c0.5,5.7,0.5,5.7,1.7,13.8
			c1.7,11.1,2.7,16.9,3.2,19.1c0.2,1.1,0.5,2.1,0.5,2.2C-421.9,693.1-422.5,693-424.5,692.4L-424.5,692.4L-424.5,692.4z"/>
		<path id="path3047" class="st0" d="M-387.8,645.7c-2.4-0.3-31.6-0.8-34.8-0.6c-1.6,0.1-3.3,0.2-3.8,0.2h-0.9l-0.5-2.1
			c-0.9-3.5-1.6-7.2-2-10.3c-0.3-2.4-0.4-5.2-0.3-15.9c0-12.1,0.1-13.8,0.6-13.3c0.1,0.1,0.2,3,0.3,6.6c0.3,9.2,0.7,17.1,1.4,23
			c0.5,4.5,1.5,8.6,1.2,4.9c-0.1-0.9-0.3-4.4-0.6-7.7c-0.4-5.1-0.5-8.1-0.5-17v-10.8l1.3-0.2c2-0.3,26.4-0.4,34.6-0.2l7.6,0.2
			l0.3,0.7c0.4,0.8,0.4,1.6,0,10.6c-0.4,9.2-0.6,13.4-1.2,20.4c-0.3,3.3-0.4,6.2-0.4,6.5c0.1,0.9,0.6-1.4,1.2-5.9
			c0.9-6.9,1.4-12.7,1.7-22.5c0.1-4,0.3-7.4,0.5-7.6c0.1-0.2,0.2,1.7,0.1,5c-0.1,2.9-0.2,8.9-0.2,13.2c-0.2,11.9-0.9,18.4-2.5,22.1
			C-385,646-385,646-387.8,645.7L-387.8,645.7L-387.8,645.7z"/>
		<path id="path3049" class="st0" d="M-410.4,695.1c-3.2-0.2-7.7-0.9-9.7-1.4c-1-0.3-1-0.3-1.4-1.9c-0.6-2.6-0.9-4.4-0.8-5
			s0.2-0.6,1.2-0.4c3.4,0.5,4.8,0.6,10,0.8c6.2,0.2,14.4,0,16.7-0.4c0.8-0.1,2.2-0.5,3-0.8l1.6-0.5v1.5c0,1.4-0.3,4.3-0.6,6.1
			c-0.1,0.7-0.2,0.7-2.1,1.1C-398.1,695.1-404.3,695.5-410.4,695.1L-410.4,695.1L-410.4,695.1z"/>
		<path id="path3051" class="st1" d="M-439.6,680.5c-0.7-0.8-1.9-3.8-2.3-5.5c-0.7-3-1-7.6-0.8-13.7c0.2-9,1.1-19.9,1.8-22.7
			c0.9-3.7,1.3-13.2,1.2-28.4c-0.1-7.3-0.1-12.5,0.1-12.3c0.1,0.2,0.2,7.4,0.3,16.1l0.1,15.7l-0.7,8.1c-1.2,13.3-1.3,15.6-1.1,24
			c0.2,9,0.6,13.6,1.5,16.8C-439.1,680.6-439.1,681.1-439.6,680.5L-439.6,680.5z"/>
		<path id="path3053" class="st1" d="M-372.9,680.8c0-0.1,0.3-1.6,0.7-3.2c0.9-4.2,1.3-6.7,1.7-12.8c0.5-7.1,0.2-14.1-1.4-30
			l-0.8-8.1l0.2-12.2c0.1-6.7,0.2-13.3,0.3-14.6c0.1-1.3,0.1,4,0.1,11.7c0,9.9,0.1,15,0.3,17c0.2,1.6,0.5,5.5,0.9,8.7
			s0.7,7.3,0.9,9.1s0.5,4.2,0.6,5.2c0.3,2.8,0.3,15,0,18.9c-0.3,3.6-0.7,5.1-2.2,8.5C-372.6,680.8-372.9,681.3-372.9,680.8
			L-372.9,680.8z"/>
		<path id="path3055" class="st1" d="M-367.1,599.7c-0.5-0.2-1.5-1-2.2-1.7c-1-1-1.3-1.4-1.3-1.8c0.2-1.2,2.3-0.4,4,1.5
			c0.9,1.1,1,1.3,0.8,2C-366,600.2-366,600.2-367.1,599.7z"/>
		<path id="path3057" class="st1" d="M-372.3,588.9c0-2.2,0.1-8.4,0.2-13.9c0.2-10.2,0.1-13.8-0.6-18.2c-0.5-3.2-0.9-4.6-2.1-7.3
			c-1.2-2.6-2.4-6.1-2.2-6.3c0.2-0.2,2.4,3.1,3.2,4.8c0.8,1.7,1.9,5.5,2.5,8.5s0.7,8.7,0.3,14c-0.2,2.5-0.5,8.5-0.6,13.2
			c-0.1,4.8-0.3,8.8-0.5,8.9C-372.2,592.8-372.3,591.4-372.3,588.9L-372.3,588.9L-372.3,588.9z"/>
		<path id="path3059" class="st1" d="M-440,590.2c-0.1-1.5-0.3-4.5-0.4-6.6s-0.4-5.6-0.7-7.6s-0.5-6-0.6-8.8
			c-0.2-6.4,0.2-9.9,1.6-13.9c0.9-2.7,3.5-8.5,3.8-8.2c0.1,0.1-0.7,2.5-1.6,5.4c-2.4,7.2-2.5,7.9-2.3,17.7c0.1,4.3,0.2,9.5,0.4,11.7
			c0.1,2.2,0.2,6,0.2,8.5l-0.1,4.6L-440,590.2L-440,590.2z"/>
		<path id="path3061" class="st1" d="M-446.3,599.5c-0.4-0.8,0.9-2.3,2.9-3.3c1.7-0.9,2.8,0.2,1.5,1.4c-0.7,0.6-2.6,1.8-3.6,2.1
			C-446,599.8-446.1,599.8-446.3,599.5L-446.3,599.5z"/>
		<path id="path3063" class="st1" d="M-409.8,683.6c-5.2-0.5-9.4-1.3-10-2c-0.1-0.2-0.5-1.1-0.8-2.1c-1.2-3.7-2-7.8-2.5-13.3
			c-0.5-4.9-1.4-18.7-1.2-18.9c0.2-0.2,35.1-0.2,35.9,0l0.6,0.2l-0.3,5.9c-0.5,11.2-2.2,24.7-3.4,28c-0.4,1.1-1.1,1.5-3.3,1.9
			C-396.2,683.5-407.8,683.8-409.8,683.6L-409.8,683.6L-409.8,683.6z"/>
		<path id="path3065" class="st2" d="M-428.7,599.2c-1.8-0.3-3.1-2.4-3.8-6.3c-0.4-2-0.3-3.4,0.4-5.4c1.1-3.1,3.4-6,6.9-8.5
			c2-1.4,15.6-9.5,17-10.1c0.7-0.3,1.5-0.4,2.8-0.4c1.6,0,1.9,0.1,3.5,0.9c4,2.1,12.1,8.5,18.3,14.6c2.4,2.4,2.8,2.9,3.1,3.9
			c0.4,1.6,0.9,5.8,0.8,7.1c-0.2,1.7-1,3.2-2.1,3.8c-0.9,0.4-1.4,0.5-23.3,0.5C-417.6,599.4-428.2,599.3-428.7,599.2L-428.7,599.2
			L-428.7,599.2z"/>
		<path id="path3067" class="st2" d="M-433.2,622.9l-0.9-2.6l0.1-10.7c0-5.9,0.1-11.1,0.2-11.5l0.1-0.7l0.9,1.3l0.9,1.3v7.8
			c0,4.3-0.1,10-0.2,12.8l-0.2,5L-433.2,622.9L-433.2,622.9z"/>
		<path id="path3069" class="st2" d="M-380.2,614.3c0-11.5,0-13.1,0.3-13.5c0.2-0.2,0.6-1.1,1-1.9l0.6-1.5l0.2,11.7l0.2,11.7l-1,2.9
			c-0.5,1.6-1,3.1-1.2,3.3C-380.1,627.2-380.2,621.7-380.2,614.3z"/>
		<path id="path3071" class="st4" d="M-376.8,552c-0.7-0.4-2.8-1.1-6.2-2c-3.7-1-4.6-1.4-5-2c-0.5-1-2-9.7-1.7-10.5
			c0.2-0.6,1-0.5,3,0.2c4,1.6,6.6,3.6,8.1,6.4c0.8,1.4,2.2,5.2,2.5,6.7C-375.9,551.7-376.3,552.4-376.8,552L-376.8,552z"/>
		<path id="path3073" class="st4" d="M-436.4,552.4c-0.5-1.3,0.3-4.9,1.7-7.8c1.7-3.6,5.4-6.6,9-7.3c1.1-0.2,1.4-0.2,1.8,0.1
			c0.7,0.5,0.8,1,0.4,3.8c-0.6,5.2-1.3,6.8-3.1,7.8c-0.9,0.5-9.1,3.8-9.5,3.8C-436.1,552.7-436.3,552.6-436.4,552.4L-436.4,552.4z"
			/>
	</g>
</g>
</svg>
