<svg width="44" height="85" xmlns="http://www.w3.org/2000/svg">
    <style type="text/css">
        .cyc_st0 {
            stroke: #000000;
            stroke-miterlimit: 10;
        }

        .cyc_st1 {
            fill: #696970;
            stroke: #000000;
            stroke-miterlimit: 10;
        }

        .cyc_st2 {
            fill: #593609;
            stroke: #000000;
            stroke-miterlimit: 10;
        }

        .cyc_st3 {
            fill: #EFBE89;
            stroke: #000000;
            stroke-miterlimit: 10;
        }

        .cyc_st4 {
            fill: #848281;
            stroke: #000000;
            stroke-miterlimit: 10;
        }

        .cyc_st5 {
            fill: #136AEA;
            stroke: #000000;
            stroke-miterlimit: 10;
        }
    </style>
    <g>
        <title>Cyklista</title>
        <g stroke="null" id="cyclist-1">
            <ellipse stroke="null" id="svg_1" ry="5.001106" rx="1.667035" cy="5.926637" cx="21.628104"
                class="cyc_st0" />
            <path stroke="null" id="svg_2"
                d="m21.878159,30.098647l-0.416759,0c-1.250276,0 -2.250497,-1.000221 -2.250497,-2.250497l0,-18.00398c0,-1.250276 1.000221,-2.250497 2.250497,-2.250497l0.416759,0c1.250276,0 2.250497,1.000221 2.250497,2.250497l0,17.920628c0,1.333628 -1.000221,2.333849 -2.250497,2.333849z"
                class="cyc_st1" />
            <polygon stroke="null" id="svg_3"
                points="12.459410026747179,18.429400935797958 3.2907166232240854,21.763471749693508 3.2907166232240854,24.2640235254255 12.459410026747179,20.929954491116177 29.96327868542292,20.929954491116177 39.965489347523345,24.2640235254255 39.965489347523345,21.763471749693508 29.96327868542292,18.429400935797958 "
                class="cyc_st0" />
            <ellipse stroke="null" id="svg_4" ry="5.001106" rx="1.667035" cy="79.276185" cx="21.628104"
                class="cyc_st0" />
            <path stroke="null" id="svg_5"
                d="m21.878159,78.442667l-0.416759,0c-1.250276,0 -2.250497,-1.000221 -2.250497,-2.250497l0,-18.00398c0,-1.250276 1.000221,-2.250497 2.250497,-2.250497l0.416759,0c1.250276,0 2.250497,1.000221 2.250497,2.250497l0,17.920628c0,1.333628 -1.000221,2.333849 -2.250497,2.333849z"
                class="cyc_st1" />
            <ellipse stroke="null" id="svg_6" ry="11.669246" rx="9.168694" cy="40.100858" cx="21.628104"
                class="cyc_st2" />
            <path stroke="null" id="svg_7"
                d="m15.79348,30.098647c0.166704,-1.333628 -1.583683,-2.417201 -1.667035,-2.500553c-1.166925,-0.750166 -3.084015,-1.000221 -4.167588,0c-0.666814,0.583462 -0.750166,1.500332 -0.833518,3.33407c-0.083352,1.667035 -0.166704,3.584126 0.833518,4.167588c0.500111,0.250055 1.083573,0.166704 1.667035,0c0.333407,-0.083352 1.083573,-0.250055 1.667035,-0.833518c0.500111,-0.500111 0.416759,-0.833518 0.833518,-1.667035c0.750166,-1.583683 1.583683,-1.583683 1.667035,-2.500553z"
                class="cyc_st3" />
            <path stroke="null" id="svg_8"
                d="m29.963279,35.099753c0.250055,-0.333407 1.583683,0.083352 2.500553,0.833518c1.500332,1.250276 1.583683,3.167367 1.667035,4.167588c0,0.583462 0.250055,4.084236 -1.667035,5.001106c-0.500111,0.250055 -1.333628,0.333407 -1.667035,0c-0.333407,-0.333407 -0.083352,-0.833518 0,-2.500553c0.083352,-0.750166 0,-0.416759 0,-2.500553c0,-2.083794 0.083352,-2.000442 0,-2.500553c-0.250055,-1.583683 -1.083573,-2.167146 -0.833518,-2.500553z"
                class="cyc_st3" />
            <path stroke="null" id="svg_9"
                d="m9.12534,34.266235c-0.416759,2.250497 -1.333628,8.668583 1.667035,10.835729c0.416759,0.333407 2.000442,1.250276 2.500553,0.833518c0.333407,-0.250055 0.166704,-0.833518 0,-1.667035c-0.250055,-1.333628 -0.583462,-1.500332 -0.833518,-2.500553c-0.166704,-0.750166 0.083352,-0.666814 0,-2.500553c-0.083352,-1.583683 -0.166704,-1.833739 0,-2.500553c0.333407,-1.000221 0.916869,-1.250276 0.833518,-1.667035c-0.083352,-0.416759 -0.916869,-0.833518 -4.167588,-0.833518z"
                class="cyc_st4" />
            <path stroke="null" id="svg_10"
                d="m6.624787,40.100858c0,-0.083352 0,-0.166704 0,-1.667035c0,-0.083352 0,0 0,-0.833518c0,-3.417422 0,-4.000884 0,-4.167588c0,-3.000663 0,-5.66792 1.667035,-7.501658c1.333628,-1.41698 2.917312,-1.583683 3.33407,-3.33407c0.166704,-0.750166 0.083352,-1.41698 0,-1.667035c-0.083352,-0.250055 -0.416759,-1.833739 -1.667035,-2.500553c-1.667035,-0.916869 -4.25094,0.083352 -5.001106,1.667035c-0.583462,1.250276 0.416759,2.000442 0,4.167588c-0.250055,1.41698 -0.916869,1.833739 -1.667035,3.33407c-0.250055,0.500111 -0.750166,1.500332 -1.667035,5.834623c-1.083573,5.084457 -1.583683,7.668362 -0.833518,8.335176c1.500332,1.333628 5.66792,-0.333407 5.834623,-1.667035z"
                class="cyc_st3" />
            <path stroke="null" id="svg_11"
                d="m36.63142,40.100858c0,-0.083352 0,-0.166704 0,-1.667035c0,-0.083352 0,0 0,-0.833518c0,-3.417422 0,-4.000884 0,-4.167588c0,-3.000663 0,-5.66792 -1.667035,-7.501658c-1.333628,-1.41698 -2.917312,-1.583683 -3.33407,-3.33407c-0.166704,-0.750166 -0.083352,-1.41698 0,-1.667035c0.083352,-0.250055 0.416759,-1.833739 1.667035,-2.500553c1.667035,-0.916869 4.25094,0.083352 5.001106,1.667035c0.583462,1.250276 -0.416759,2.000442 0,4.167588c0.250055,1.41698 0.916869,1.833739 1.667035,3.33407c0.250055,0.500111 0.750166,1.500332 1.667035,5.834623c1.083573,5.084457 1.583683,7.668362 0.833518,8.335176c-1.500332,1.333628 -5.66792,-0.333407 -5.834623,-1.667035z"
                class="cyc_st3" />
            <path stroke="null" id="svg_12"
                d="m7.458304,40.934376c-1.91709,-1.41698 -5.751271,-0.916869 -6.668141,0.833518c-0.666814,1.250276 0.500111,2.417201 2.500553,6.668141c2.750608,6.001327 1.833739,6.918196 4.167588,10.002211c1.000221,1.333628 3.167367,4.334291 6.668141,5.001106c0.666814,0.166704 0.583462,0 4.167588,0c4.25094,0 4.667699,0.083352 6.668141,0c3.000663,-0.166704 4.500995,-0.250055 5.834623,-0.833518c3.584126,-1.500332 5.334513,-4.917754 6.668141,-7.501658c0.416759,-0.833518 1.166925,-2.250497 1.667035,-4.167588c0.583462,-2.167146 0.250055,-2.667256 0.833518,-4.167588c1.000221,-2.583905 2.667256,-2.917312 2.500553,-4.167588c-0.250055,-1.833739 -4.084236,-3.584126 -5.834623,-2.500553c-0.416759,0.250055 -0.833518,1.000221 -1.667035,2.500553c-0.916869,1.667035 -1.000221,2.250497 -1.667035,2.500553c-0.916869,0.416759 -1.500332,-0.250055 -2.500553,0c-1.250276,0.333407 -1.41698,1.833739 -2.500553,3.33407c-1.333628,1.833739 -3.667477,3.084015 -5.834623,3.33407c-2.917312,0.333407 -5.167809,-1.250276 -5.834623,-1.667035c-1.583683,-1.083573 -1.083573,-1.500332 -3.33407,-3.33407c-2.083794,-1.667035 -2.917312,-1.750387 -4.167588,-3.33407c-1.083573,-1.41698 -0.833518,-1.833739 -1.667035,-2.500553z"
                class="cyc_st5" />
        </g>
        <g stroke="null" id="cyclist-2">
            <ellipse stroke="null" id="svg_13" ry="4.975459" rx="1.658486" cy="5.90099" cx="21.519406"
                class="cyc_st0" />
            <path stroke="null" id="svg_14"
                d="m21.270633,29.949042l0.414622,0c1.243865,0 2.238957,-0.995092 2.238957,-2.238957l0,-17.911652c0,-1.243865 -0.995092,-2.238957 -2.238957,-2.238957l-0.414622,0c-1.243865,0 -2.238957,0.995092 -2.238957,2.238957l0,17.828728c0,1.326789 0.995092,2.321881 2.238957,2.321881z"
                class="cyc_st1" />
            <polygon stroke="null" id="svg_15"
                points="30.64107895970885,18.339636712344145 39.76275570680279,21.65660991397283 39.76275570680279,24.144340257809404 30.64107895970885,20.82736705618072 13.226974519923928,20.82736705618072 3.2760564641905887,24.144340257809404 3.2760564641905887,21.65660991397283 13.226974519923928,18.339636712344145 "
                class="cyc_st0" />
            <ellipse stroke="null" id="svg_16" ry="4.975459" rx="1.658486" cy="78.874389" cx="21.519406"
                class="cyc_st0" />
            <path stroke="null" id="svg_17"
                d="m21.270633,78.045145l0.414622,0c1.243865,0 2.238957,-0.995092 2.238957,-2.238957l0,-17.911652c0,-1.243865 -0.995092,-2.238957 -2.238957,-2.238957l-0.414622,0c-1.243865,0 -2.238957,0.995092 -2.238957,2.238957l0,17.828728c0,1.326789 0.995092,2.321881 2.238957,2.321881z"
                class="cyc_st1" />
            <ellipse stroke="null" id="svg_18" ry="11.609404" rx="9.121675" cy="39.89996" cx="21.519406"
                class="cyc_st2" />
            <path stroke="null" id="svg_19"
                d="m27.324108,29.949042c-0.165849,-1.326789 1.575562,-2.404805 1.658486,-2.487729c1.16094,-0.746319 3.0682,-0.995092 4.146216,0c0.663395,0.58047 0.746319,1.492638 0.829243,3.316973c0.082924,1.658486 0.165849,3.565746 -0.829243,4.146216c-0.497546,0.248773 -1.078016,0.165849 -1.658486,0c-0.331697,-0.082924 -1.078016,-0.248773 -1.658486,-0.829243c-0.497546,-0.497546 -0.414622,-0.829243 -0.829243,-1.658486c-0.746319,-1.575562 -1.575562,-1.575562 -1.658486,-2.487729z"
                class="cyc_st3" />
            <path stroke="null" id="svg_20"
                d="m13.226974,34.924501c-0.248773,-0.331697 -1.575562,0.082924 -2.487729,0.829243c-1.492638,1.243865 -1.575562,3.151124 -1.658486,4.146216c0,0.58047 -0.248773,4.063291 1.658486,4.975459c0.497546,0.248773 1.326789,0.331697 1.658486,0c0.331697,-0.331697 0.082924,-0.829243 0,-2.487729c-0.082924,-0.746319 0,-0.414622 0,-2.487729c0,-2.073108 -0.082924,-1.990184 0,-2.487729c0.248773,-1.575562 1.078016,-2.156032 0.829243,-2.487729z"
                class="cyc_st3" />
            <path stroke="null" id="svg_21"
                d="m33.958053,34.095258c0.414622,2.238957 1.326789,8.624129 -1.658486,10.780161c-0.414622,0.331697 -1.990184,1.243865 -2.487729,0.829243c-0.331697,-0.248773 -0.165849,-0.829243 0,-1.658486c0.248773,-1.326789 0.58047,-1.492638 0.829243,-2.487729c0.165849,-0.746319 -0.082924,-0.663395 0,-2.487729c0.082924,-1.575562 0.165849,-1.824335 0,-2.487729c-0.331697,-0.995092 -0.912167,-1.243865 -0.829243,-1.658486c0.082924,-0.414622 0.912167,-0.829243 4.146216,-0.829243z"
                class="cyc_st4" />
            <path stroke="null" id="svg_22"
                d="m36.445783,39.89996c0,-0.082924 0,-0.165849 0,-1.658486c0,-0.082924 0,0 0,-0.829243c0,-3.399897 0,-3.980367 0,-4.146216c0,-2.985275 0,-5.638853 -1.658486,-7.463188c-1.326789,-1.409713 -2.902351,-1.575562 -3.316973,-3.316973c-0.165849,-0.746319 -0.082924,-1.409713 0,-1.658486c0.082924,-0.248773 0.414622,-1.824335 1.658486,-2.487729c1.658486,-0.912167 4.22914,0.082924 4.975459,1.658486c0.58047,1.243865 -0.414622,1.990184 0,4.146216c0.248773,1.409713 0.912167,1.824335 1.658486,3.316973c0.248773,0.497546 0.746319,1.492638 1.658486,5.804702c1.078016,5.058383 1.575562,7.629037 0.829243,8.292432c-1.492638,1.326789 -5.638853,-0.331697 -5.804702,-1.658486z"
                class="cyc_st3" />
            <path stroke="null" id="svg_23"
                d="m6.593029,39.89996c0,-0.082924 0,-0.165849 0,-1.658486c0,-0.082924 0,0 0,-0.829243c0,-3.399897 0,-3.980367 0,-4.146216c0,-2.985275 0,-5.638853 1.658486,-7.463188c1.326789,-1.409713 2.902351,-1.575562 3.316973,-3.316973c0.165849,-0.746319 0.082924,-1.409713 0,-1.658486c-0.082924,-0.248773 -0.414622,-1.824335 -1.658486,-2.487729c-1.658486,-0.912167 -4.22914,0.082924 -4.975459,1.658486c-0.58047,1.243865 0.414622,1.990184 0,4.146216c-0.248773,1.409713 -0.912167,1.824335 -1.658486,3.316973c-0.248773,0.497546 -0.746319,1.492638 -1.658486,5.804702c-1.078016,5.058383 -1.575562,7.629037 -0.829243,8.292432c1.492638,1.326789 5.638853,-0.331697 5.804702,-1.658486z"
                class="cyc_st3" />
            <path stroke="null" id="svg_24"
                d="m35.61654,40.729203c1.907259,-1.409713 5.721778,-0.912167 6.633945,0.829243c0.663395,1.243865 -0.497546,2.404805 -2.487729,6.633945c-2.736502,5.970551 -1.824335,6.882718 -4.146216,9.950918c-0.995092,1.326789 -3.151124,4.312064 -6.633945,4.975459c-0.663395,0.165849 -0.58047,0 -4.146216,0c-4.22914,0 -4.643762,0.082924 -6.633945,0c-2.985275,-0.165849 -4.477913,-0.248773 -5.804702,-0.829243c-3.565746,-1.492638 -5.307156,-4.892535 -6.633945,-7.463188c-0.414622,-0.829243 -1.16094,-2.238957 -1.658486,-4.146216c-0.58047,-2.156032 -0.248773,-2.653578 -0.829243,-4.146216c-0.995092,-2.570654 -2.653578,-2.902351 -2.487729,-4.146216c0.248773,-1.824335 4.063291,-3.565746 5.804702,-2.487729c0.414622,0.248773 0.829243,0.995092 1.658486,2.487729c0.912167,1.658486 0.995092,2.238957 1.658486,2.487729c0.912167,0.414622 1.492638,-0.248773 2.487729,0c1.243865,0.331697 1.409713,1.824335 2.487729,3.316973c1.326789,1.824335 3.64867,3.0682 5.804702,3.316973c2.902351,0.331697 5.141308,-1.243865 5.804702,-1.658486c1.575562,-1.078016 1.078016,-1.492638 3.316973,-3.316973c2.073108,-1.658486 2.902351,-1.741411 4.146216,-3.316973c1.078016,-1.409713 0.829243,-1.824335 1.658486,-2.487729z"
                class="cyc_st5" />
        </g>
    </g>
</svg>