<svg width="46" height="47" xmlns="http://www.w3.org/2000/svg">
    <style type="text/css">
        .ped_st0 {
            fill: #391500;
            stroke: #000000;
            stroke-miterlimit: 10;
        }

        .ped_st1 {
            fill: #04060A;
            stroke: #000000;
            stroke-miterlimit: 10;
        }

        .ped_st2 {
            fill: #EDB9AB;
            stroke: #000000;
            stroke-miterlimit: 10;
        }

        .ped_st3 {
            fill: #2A43D3;
            stroke: #000000;
            stroke-miterlimit: 10;
        }

        .ped_st4 {
            fill: #58411A;
            stroke: #000000;
            stroke-miterlimit: 10;
        }
    </style>
    <g>
        <title>Chodec</title>
        <g stroke="null" id="pedestrian-1">
            <path stroke="null"
                d="m28.167933,0.569831c-0.509028,0.644769 -1.187733,1.018057 -1.98521,3.800745c-0.050903,0.797478 -0.084838,1.594955 -0.135741,2.392433c0.06787,0.627802 0.101806,1.425279 0,2.324563c-0.101806,1.018057 -0.339352,1.866437 -0.559931,2.511206c1.221668,2.070049 0.865348,1.832502 2.731785,1.357409c0.831413,-3.05417 1.340441,-4.564287 1.815534,-5.904729c0.152708,-0.458125 0.322385,-0.933219 0.475093,-1.391344c0.186644,-0.576899 0.42419,-1.527085 0.35632,-2.714818c-0.06787,-0.916251 -0.288449,-1.662826 -0.492061,-2.171854c-0.203611,-0.135741 -0.763542,-0.458125 -1.49315,-0.390255c-0.305417,0 -0.542964,0.101806 -0.71264,0.186644z"
                class="ped_st0" id="path2989" />
            <path stroke="null"
                d="m15.510096,13.142831c-0.458125,0.271482 -1.730696,1.13683 -2.205789,2.765721c-0.169676,0.542964 -0.203611,1.035024 -0.186644,1.442247c0.084838,1.001089 0.135741,2.087016 0.135741,3.257781c0,0.916251 -0.033935,1.781599 -0.101806,2.596044l3.512295,0.118773l0.865348,-4.564287l-0.135741,-4.496417c-0.033935,-0.152708 -0.135741,-0.525996 -0.492061,-0.848381c-0.254514,-0.237547 -0.525996,-0.339352 -0.678704,-0.390255c-0.237547,0.033935 -0.475093,0.084838 -0.71264,0.118773z"
                class="ped_st0" id="path2987" />
            <path stroke="null"
                d="m18.53033,19.11543c0.458125,0.339352 0.916251,0.661737 1.391344,1.001089c2.867526,-1.391344 3.240814,-1.221668 6.278016,-0.984121c0.101806,-1.289538 0.220579,-2.579077 0.322385,-3.868615c-0.271482,-0.220579 -0.644769,-0.576899 -0.967154,-1.119862c-0.288449,-0.492061 -0.441158,-0.933219 -0.509028,-1.255603c0.288449,-1.102895 0.576899,-2.205789 0.848381,-3.308684l4.733963,-2.714818c0.373287,0.050903 1.357409,0.254514 2.256692,1.085927c1.018057,0.950186 1.238636,2.120951 1.306506,2.477271c0.509028,2.545142 0.916251,5.938664 0.71264,9.892117c-0.186644,3.308684 -0.746575,6.142275 -1.357409,8.382c-8.246259,2.884494 -13.896473,2.528174 -21.837315,0.186644c1.2047,-1.476182 1.49315,-2.680883 1.527085,-3.529263c0.016968,-0.509028 -0.050903,-0.950186 -0.050903,-2.154887c0,-0.882316 0.033935,-1.611923 0.06787,-2.103984c0.152708,-0.254514 1.018057,-1.747664 2.833591,-2.171854c1.102895,-0.254514 2.053081,0.033935 2.443336,0.186644z"
                class="ped_st1" id="path2991" />
            <path stroke="null"
                d="m2.275359,27.022337c0,-0.220579 0.033935,-1.13683 0.763542,-1.91734c0.644769,-0.695672 1.442247,-0.848381 1.679793,-0.882316c0.220579,0.390255 0.458125,0.78051 0.678704,1.153798c-0.016968,0.933219 -0.033935,1.84947 -0.050903,2.782688l-3.071138,-1.13683z"
                class="ped_st2" id="path3763" />
            <path stroke="null"
                d="m41.436605,11.055815l0.101806,-2.782688l0.967154,-2.409401c0.237547,-0.339352 0.678704,-0.475093 1.068959,-0.35632c0.390255,0.118773 0.661737,0.458125 0.678704,0.865348c0.186644,0.559931 0.373287,1.13683 0.542964,1.696761l-0.288449,3.749842l-3.071138,-0.763542z"
                class="ped_st2" id="path3761" />
            <path stroke="null"
                d="m41.249962,10.954009c1.459215,-1.102895 2.409401,-0.237547 3.359587,0.678704l-0.101806,4.326741c1.255603,4.632158 1.238636,4.157065 -0.390255,8.365032c0.797478,3.139008 0.152708,4.632158 -0.576899,9.23038c-1.611923,0.271482 -1.408312,0.101806 -1.628891,1.628891l-2.680883,4.733963l-2.884494,0.865348l-0.576899,1.153798l-4.123129,1.153798l-10.36721,1.051992l-10.469016,-0.967154l-1.544053,-0.865348l-1.628891,-2.120951l-4.224935,-2.596044l-2.002178,-1.221668l-0.288449,-3.071138l-0.678704,-1.91734l0.967154,-3.681972c1.13683,-0.746575 2.34153,-0.967154 3.359587,-0.678704c0.220579,0.186644 0.390255,0.373287 0.525996,0.559931c0.169676,0.254514 0.254514,0.475093 0.339352,0.695672c0.084838,0.203611 0.118773,0.390255 0.152708,0.525996c0.06787,0.06787 0.203611,0.152708 0.373287,0.237547c0.525996,0.237547 0.950186,0.084838 1.815534,0.050903c0.186644,0 0.475093,0 0.831413,0.033935c0.101806,-0.016968 0.254514,-0.050903 0.458125,-0.084838c0.763542,-0.118773 1.051992,-0.101806 1.49315,-0.271482c0.118773,-0.050903 0.288449,-0.118773 0.492061,-0.237547c0.101806,-0.06787 0.271482,-0.186644 0.42419,-0.373287c0.203611,-0.237547 0.305417,-0.458125 0.458125,-0.831413c0.084838,-0.186644 0.169676,-0.441158 0.271482,-0.763542c0.033935,-0.135741 0.06787,-0.305417 0.084838,-0.525996c0.084838,-0.644769 0.050903,-1.001089 0.084838,-1.98521c0,-0.152708 0.016968,-0.339352 0.016968,-0.559931c0.152708,-0.084838 0.288449,-0.152708 0.441158,-0.237547c1.628891,-0.899283 3.257781,-1.798567 4.886672,-2.69785c0.814445,-0.492061 2.27366,-1.272571 4.224935,-1.374376c1.91734,-0.101806 3.665004,0.576899 6.227113,1.476182l6.142275,2.884494l1.91734,2.307595l2.205789,-3.071138c-0.016968,-3.325652 0.271482,-3.919518 1.730696,-6.736142l0.882316,-5.090283z"
                class="ped_st3" id="path3765" />
            <path stroke="null"
                d="m20.227092,35.183758c0.220579,-1.544053 1.374376,-3.172943 2.358498,-4.496417c2.613012,-3.495328 5.022413,-2.833591 6.956721,-0.593866c1.764632,0.984121 2.918429,4.174032 3.359587,7.414846c0.475093,1.798567 1.238636,1.544053 -0.186644,2.426368c-0.678704,3.698939 -1.323474,4.157065 -3.783777,5.480538c-1.747664,0.35632 -3.851648,0.203611 -5.565376,-0.186644c-3.919518,-2.205789 -2.680883,-1.934308 -3.308684,-6.10834c-2.205789,0.763542 -1.221668,-4.038291 0.169676,-3.936486l0,0z"
                class="ped_st2" id="path3767" />
            <path stroke="null"
                d="m20.176189,35.319499c0.390255,0.169676 0.933219,0.322385 1.56102,0.271482c0.203611,-0.016968 0.35632,-0.050903 0.559931,-0.084838c0.390255,-0.084838 0.916251,-0.220579 1.527085,-0.458125c0.763542,-0.254514 1.679793,-0.509028 2.731785,-0.678704c0.967154,-0.169676 1.84947,-0.237547 2.613012,-0.254514c0.35632,0 1.255603,0.033935 2.188822,0.610834c0.865348,0.542964 1.289538,1.255603 1.459215,1.577988c-0.016968,1.221668 -0.033935,2.053081 -0.033935,2.053081c0,0 0,0 -0.016968,0c-0.084838,-0.101806 -0.135741,4.038291 -0.288449,4.038291c-1.018057,2.409401 -2.579077,2.9863 -4.326741,3.529263c-1.374376,0.169676 -4.055259,-0.033935 -5.429636,-0.407223c-2.850559,-2.036113 -2.154887,-1.713729 -2.935397,-4.54732c0.050903,-0.950186 0.118773,-1.900372 0.186644,-2.850559c0.06787,-0.967154 0.135741,-1.883405 0.203611,-2.799656z"
                class="ped_st4" id="path3769" />
        </g>
        <g stroke="null" id="pedestrian-2">
            <path stroke="null"
                d="m16.835293,0.262661c-0.720834,-0.083818 -1.274032,0.251454 -1.475195,0.385562c-0.201163,0.502907 -0.419089,1.223741 -0.486144,2.145738c-0.083818,1.173451 0.150872,2.112211 0.352035,2.682173c0.150872,0.452617 0.318508,0.921997 0.46938,1.374614c0.46938,1.324323 0.955524,2.816281 1.793703,5.833726c1.843994,0.46938 1.475195,0.720834 2.698936,-1.341086c-0.217927,-0.637016 -0.452617,-1.475195 -0.553198,-2.48101c-0.100581,-0.88847 -0.067054,-1.676358 0,-2.29661c-0.050291,-0.787888 -0.083818,-1.575777 -0.134109,-2.363665c-0.787888,-2.749227 -1.441668,-3.118026 -1.961339,-3.755042c-0.167636,-0.067054 -0.402326,-0.150872 -0.70407,-0.184399z"
                class="ped_st0" id="path2989_1_" />
            <path stroke="null"
                d="m29.340924,12.768292c-0.150872,0.050291 -0.419089,0.134109 -0.670543,0.385562c-0.335272,0.318508 -0.452617,0.687307 -0.486144,0.838179l-0.134109,4.442349l0.854943,4.509403l3.470061,-0.117345c-0.067054,-0.804652 -0.100581,-1.659594 -0.100581,-2.564828c0,-1.156687 0.050291,-2.229556 0.134109,-3.218607c0.016764,-0.385562 -0.033527,-0.88847 -0.184399,-1.424904c-0.486144,-1.609304 -1.743412,-2.464246 -2.179265,-2.732464c-0.23469,-0.033527 -0.46938,-0.067054 -0.70407,-0.117345z"
                class="ped_st0" id="path2987_1_" />
            <path stroke="null"
                d="m29.50856,18.602017c1.793703,0.419089 2.648646,1.877521 2.799518,2.145738c0.033527,0.486144 0.067054,1.190214 0.067054,2.078684c0,1.190214 -0.067054,1.626067 -0.050291,2.128975c0.033527,0.838179 0.318508,2.028393 1.508722,3.486825c-7.845355,2.313374 -13.427627,2.665409 -21.574727,-0.184399c-0.603489,-2.196029 -1.173451,-4.995547 -1.341086,-8.281208c-0.217927,-3.922678 0.201163,-7.25863 0.70407,-9.773167c0.050291,-0.352035 0.268217,-1.508722 1.290796,-2.447483c0.871706,-0.821415 1.843994,-1.022578 2.229556,-1.072869l4.677039,2.682173c0.284981,1.089633 0.569962,2.179265 0.838179,3.268898c-0.067054,0.318508 -0.217927,0.754361 -0.502907,1.240505c-0.318508,0.536435 -0.70407,0.88847 -0.955524,1.106396c0.100581,1.274032 0.217927,2.548064 0.318508,3.822096c2.983917,-0.23469 3.36948,-0.402326 6.202525,0.972288c0.452617,-0.335272 0.905233,-0.65378 1.374614,-0.989051c0.352035,-0.150872 1.290796,-0.435853 2.413955,-0.184399z"
                class="ped_st1" id="path2991_1_" />
            <path stroke="null"
                d="m40.086379,27.754932c-0.016764,-0.921997 -0.033527,-1.82723 -0.050291,-2.749227c0.217927,-0.385562 0.452617,-0.771125 0.670543,-1.139923c0.23469,0.033527 1.022578,0.184399 1.659594,0.871706c0.70407,0.771125 0.737598,1.676358 0.754361,1.894285l-3.034208,1.12316z"
                class="ped_st2" id="path3763_1_" />
            <path stroke="null"
                d="m1.396036,11.578078l-0.284981,-3.704751c0.184399,-0.553198 0.352035,-1.12316 0.536435,-1.676358c0.033527,-0.402326 0.301744,-0.737598 0.670543,-0.854943c0.385562,-0.117345 0.821415,0.016764 1.056106,0.352035l0.955524,2.380428l0.100581,2.749227l-3.034208,0.754361z"
                class="ped_st2" id="path3761_1_" />
            <path stroke="null"
                d="m5.469586,15.768972c1.441668,2.782754 1.709885,3.36948 1.709885,6.655141l2.179265,3.034208l1.894285,-2.279847l6.068416,-2.849809c2.548064,-0.88847 4.274713,-1.559013 6.152234,-1.458431c1.927812,0.117345 3.36948,0.88847 4.174131,1.35785c1.609304,0.88847 3.218607,1.776939 4.827911,2.665409c0.150872,0.083818 0.284981,0.150872 0.435853,0.23469c0.016764,0.217927 0.016764,0.402326 0.016764,0.553198c0.033527,0.972288 0,1.341086 0.083818,1.961339c0.033527,0.217927 0.067054,0.385562 0.083818,0.519671c0.083818,0.318508 0.184399,0.569962 0.268217,0.754361c0.150872,0.368799 0.251454,0.586725 0.452617,0.821415c0.150872,0.167636 0.318508,0.284981 0.419089,0.368799c0.201163,0.117345 0.368799,0.201163 0.486144,0.23469c0.435853,0.167636 0.720834,0.150872 1.475195,0.268217c0.201163,0.033527 0.368799,0.067054 0.452617,0.083818c0.352035,-0.033527 0.637016,-0.033527 0.821415,-0.033527c0.854943,0.016764 1.274032,0.167636 1.793703,-0.050291c0.167636,-0.083818 0.301744,-0.167636 0.368799,-0.23469c0.033527,-0.134109 0.083818,-0.318508 0.150872,-0.519671c0.083818,-0.217927 0.167636,-0.452617 0.335272,-0.687307c0.134109,-0.184399 0.284981,-0.368799 0.519671,-0.553198c1.005815,-0.284981 2.196029,-0.083818 3.319189,0.670543l0.955524,3.60417l-0.670543,1.894285l-0.284981,3.034208l-1.994866,1.240505l-4.174131,2.564828l-1.609304,2.095447l-1.525486,0.854943l-10.343129,0.955524l-10.242547,-1.039342l-4.040023,-1.139923l-0.569962,-1.139923l-2.849809,-0.854943l-2.648646,-4.660275c-0.217927,-1.525486 -0.016764,-1.35785 -1.609304,-1.609304c-0.720834,-4.54293 -1.35785,-6.018125 -0.569962,-9.119387c-1.59254,-4.157368 -1.626067,-3.687988 -0.385562,-8.264445l-0.100581,-4.30824c0.93876,-0.88847 1.894285,-1.760176 3.319189,-0.670543l0.854943,5.045838z"
                class="ped_st3" id="path3765_1_" />
            <path stroke="null"
                d="m25.384719,34.678291c1.374614,-0.117345 2.330138,4.643512 0.184399,3.905914c-0.620252,4.107077 0.603489,3.855623 -3.268898,6.034889c-1.693122,0.385562 -3.788569,0.536435 -5.498454,0.184399c-2.430719,-1.324323 -3.067735,-1.776939 -3.738278,-5.4314c-1.408141,-0.871706 -0.65378,-0.620252 -0.184399,-2.397192c0.435853,-3.201844 1.575777,-6.353397 3.319189,-7.325684c1.927812,-2.212793 4.291476,-2.866572 6.873068,0.586725c0.955524,1.290796 2.095447,2.900099 2.313374,4.442349l0,0z"
                class="ped_st2" id="path3767_1_" />
            <path stroke="null"
                d="m25.636173,37.528099c0.067054,0.93876 0.134109,1.877521 0.184399,2.816281c-0.754361,2.799518 -0.067054,2.48101 -2.900099,4.492639c-1.35785,0.368799 -4.006496,0.569962 -5.364346,0.402326c-1.726649,-0.536435 -3.268898,-1.106396 -4.274713,-3.486825c-0.150872,0 -0.201163,-4.090313 -0.284981,-3.989732c0,0 -0.016764,0 -0.016764,0c0,0 -0.016764,-0.804652 -0.033527,-2.028393c0.167636,-0.318508 0.586725,-1.039342 1.441668,-1.559013c0.905233,-0.569962 1.793703,-0.603489 2.162502,-0.603489c0.754361,0.016764 1.626067,0.083818 2.581591,0.251454c1.039342,0.167636 1.944575,0.419089 2.698936,0.670543c0.603489,0.23469 1.12316,0.385562 1.508722,0.452617c0.201163,0.050291 0.352035,0.067054 0.553198,0.083818c0.620252,0.050291 1.156687,-0.100581 1.542249,-0.268217c0.067054,0.93876 0.134109,1.843994 0.201163,2.765991z"
                class="ped_st4" id="path3769_1_" />
        </g>
    </g>
</svg>