<svg xmlns="http://www.w3.org/2000/svg">
  <title>Semafór</title>
  <style transform="matrix(0.07716050118575879,0,0,0.07716050118575879,0,0) " type="text/css">
        .tl1_st0 {
			display: none;
			fill: #695A69;
		}

		.tl1_st1 {
			display: none;
			fill: #826E77;
		}

		.tl1_st2 {
			fill: #939393;
			stroke: #000000;
			stroke-miterlimit: 10;
		}

		.tl1_st3 {
			fill: #7CDAAF;
		}

		.tl1_st4 {
			fill: #565656;
		}

		.tl1_st5 {
			fill: #F2D057;
		}

		.tl1_st6 {
			fill: #E17277;
		}</style>
  <g id="traffic-light-layer-1">
   <g stroke="null" transform="matrix(0.31432129289914834,0,0,0.31432129289914834,-4.149543948429643,-5.422421098782976) " id="svg_8">
    <g id="green-light-1">
     <path stroke="null" id="svg_13" d="m30.648374,60.241906l0,-16.2l0,-25c0,-1.1 -0.9,-2 -2,-2l-12.2,0c-1.1,0 -2,0.9 -2,2l0,327c0.5,-0.1 1,-0.2 1.5,-0.2l6.6,0l0,129.6l-16.2,0l-16.2,10.8l0,10.8l64.8,0l0,-10.8l-16.2,-10.8l0,0l0,-108l-4.4,-17.5c-0.5,-1.9 -1.9,-3.3 -3.7,-3.9l0,-185.9l0,-16.2l0,-83.7z" class="tl1_st0"/>
     <path stroke="null" id="svg_14" d="m22.548374,345.841906l-6.6,0c-0.5,0 -1,0.1 -1.5,0.2c-1.8,0.5 -3.3,2 -3.7,3.9l-4.4,17.5l0,108l0,0l16.2,0l0,-129.6l0,0z" class="tl1_st1"/>
     <path stroke="null" id="svg_15" d="m113.148374,18.041906l-62.2,0c-2.2,0 -4,1.8 -4,4l0,23l0,16.2l0,83.7l0,16.2l0,25.7c0,2.2 1.8,4 4,4l62.2,0c2.2,0 4,-1.8 4,-4l0,-164.8c0,-2.2 -1.8,-4 -4,-4zm-31.1,156.6c-10.4,0 -18.9,-8.5 -18.9,-18.9s8.5,-18.9 18.9,-18.9s18.9,8.5 18.9,18.9s-8.5,18.9 -18.9,18.9zm0,-51.3c-10.4,0 -18.9,-8.5 -18.9,-18.9s8.5,-18.9 18.9,-18.9s18.9,8.5 18.9,18.9s-8.5,18.9 -18.9,18.9zm0,-51.3c-10.4,0 -18.9,-8.5 -18.9,-18.9s8.5,-18.9 18.9,-18.9s18.9,8.5 18.9,18.9s-8.5,18.9 -18.9,18.9z" class="tl1_st2"/>
     <circle stroke="null" id="svg_16" r="18.9" cy="155.741906" cx="82.048374" class="tl1_st3"/>
     <circle stroke="null" id="svg_17" r="18.9" cy="53.141906" cx="82.048374" class="tl1_st4"/>
     <circle stroke="null" id="svg_18" r="18.9" cy="104.441906" cx="82.048374" class="tl1_st4"/>
     <rect stroke="null" id="svg_19" height="16.2" width="16.2" class="tl1_st2" y="144.941906" x="30.648374"/>
     <rect stroke="null" id="svg_20" height="16.2" width="16.2" class="tl1_st2" y="45.041906" x="30.648374"/>
     <path stroke="null" id="svg_21" d="m22.548374,347.041906l0,0c-4.5,0 -8.1,-3.6 -8.1,-8.1l0,-312.8c0,-4.5 3.6,-8.1 8.1,-8.1l0,0c4.5,0 8.1,3.6 8.1,8.1l0,312.8c0,4.5 -3.6,8.1 -8.1,8.1z" class="tl1_st2"/>
    </g>
    <g id="yellow-light-1">
     <path stroke="null" id="svg_22" d="m113.148374,18.041906l-62.2,0c-2.2,0 -4,1.8 -4,4l0,23l0,16.2l0,83.7l0,16.2l0,25.7c0,2.2 1.8,4 4,4l62.2,0c2.2,0 4,-1.8 4,-4l0,-164.8c0,-2.2 -1.8,-4 -4,-4zm-31.1,156.6c-10.4,0 -18.9,-8.5 -18.9,-18.9s8.5,-18.9 18.9,-18.9s18.9,8.5 18.9,18.9s-8.5,18.9 -18.9,18.9zm0,-51.3c-10.4,0 -18.9,-8.5 -18.9,-18.9s8.5,-18.9 18.9,-18.9s18.9,8.5 18.9,18.9s-8.5,18.9 -18.9,18.9zm0,-51.3c-10.4,0 -18.9,-8.5 -18.9,-18.9s8.5,-18.9 18.9,-18.9s18.9,8.5 18.9,18.9s-8.5,18.9 -18.9,18.9z" class="tl1_st2"/>
     <circle stroke="null" id="svg_23" r="18.9" cy="155.741906" cx="82.048374" class="tl1_st4"/>
     <circle stroke="null" id="svg_24" r="18.9" cy="53.141906" cx="82.048374" class="tl1_st4"/>
     <circle stroke="null" id="svg_25" r="18.9" cy="104.441906" cx="82.048374" class="tl1_st5"/>
     <rect stroke="null" id="svg_26" height="16.2" width="16.2" class="tl1_st2" y="144.941906" x="30.648374"/>
     <rect stroke="null" id="svg_27" height="16.2" width="16.2" class="tl1_st2" y="45.041906" x="30.648374"/>
     <path stroke="null" id="svg_28" d="m22.548374,347.041906l0,0c-4.5,0 -8.1,-3.6 -8.1,-8.1l0,-312.8c0,-4.5 3.6,-8.1 8.1,-8.1l0,0c4.5,0 8.1,3.6 8.1,8.1l0,312.8c0,4.5 -3.6,8.1 -8.1,8.1z" class="tl1_st2"/>
    </g>
    <g id="red-light-1">
     <path stroke="null" id="svg_29" d="m113.148374,18.041906l-62.2,0c-2.2,0 -4,1.8 -4,4l0,23l0,16.2l0,83.7l0,16.2l0,25.7c0,2.2 1.8,4 4,4l62.2,0c2.2,0 4,-1.8 4,-4l0,-164.8c0,-2.2 -1.8,-4 -4,-4zm-31.1,156.6c-10.4,0 -18.9,-8.5 -18.9,-18.9s8.5,-18.9 18.9,-18.9s18.9,8.5 18.9,18.9s-8.5,18.9 -18.9,18.9zm0,-51.3c-10.4,0 -18.9,-8.5 -18.9,-18.9s8.5,-18.9 18.9,-18.9s18.9,8.5 18.9,18.9s-8.5,18.9 -18.9,18.9zm0,-51.3c-10.4,0 -18.9,-8.5 -18.9,-18.9s8.5,-18.9 18.9,-18.9s18.9,8.5 18.9,18.9s-8.5,18.9 -18.9,18.9z" class="tl1_st2"/>
     <circle stroke="null" id="svg_30" r="18.9" cy="155.741906" cx="82.048374" class="tl1_st4"/>
     <circle stroke="null" id="svg_31" r="18.9" cy="53.141906" cx="82.048374" class="tl1_st6"/>
     <circle stroke="null" id="svg_32" r="18.9" cy="104.441906" cx="82.048374" class="tl1_st4"/>
     <rect stroke="null" id="svg_33" height="16.2" width="16.2" class="tl1_st2" y="144.941906" x="30.648374"/>
     <rect stroke="null" id="svg_34" height="16.2" width="16.2" class="tl1_st2" y="45.041906" x="30.648374"/>
     <path stroke="null" id="svg_35" d="m22.548374,347.041906l0,0c-4.5,0 -8.1,-3.6 -8.1,-8.1l0,-312.8c0,-4.5 3.6,-8.1 8.1,-8.1l0,0c4.5,0 8.1,3.6 8.1,8.1l0,312.8c0,4.5 -3.6,8.1 -8.1,8.1z" class="tl1_st2"/>
    </g>
   </g>
 </g>
</svg>