<svg xmlns="http://www.w3.org/2000/svg">
    <title>Semafór</title>
    <style transform="matrix(0.07716050118575879,0,0,0.07716050118575879,0,0) " type="text/css">
        .tl2_st0 {
            fill: #939393;
            stroke: #000000;
            stroke-miterlimit: 10;
        }

        .tl2_st1 {
            fill: #695A69;
        }

        .tl2_st2 {
            fill: #7CDAAF;
        }

        .tl2_st3 {
            fill: #565656;
        }

        .tl2_st4 {
            fill: #F2D057;
        }

        .tl2_st5 {
            fill: #E17277;
        }
    </style>
    <g id="traffic-light-layer-2">
        <g stroke="null"
            transform="matrix(0.3154406357833866,0,0,0.3154406357833866,-9.625952993240004,-17.50982254788536) "
            id="svg_8">
            <g id="green-light-2">
                <path stroke="null" id="svg_13"
                    d="m105.031232,385.293996l0,0c-4.5,0 -8.1,-3.6 -8.1,-8.1l0,-148.1c0,-4.5 3.6,-8.1 8.1,-8.1l0,0c4.5,0 8.1,3.6 8.1,8.1l0,148.1c0,4.4 -3.6,8.1 -8.1,8.1z"
                    class="tl2_st0" />
                <path stroke="null" id="svg_14"
                    d="m105.031232,213.093996c-10.4,0 -18.9,-8.5 -18.9,-18.9s8.5,-18.9 18.9,-18.9s18.9,8.5 18.9,18.9s-8.5,18.9 -18.9,18.9zm0,-51.3c-10.4,0 -18.9,-8.5 -18.9,-18.9s8.5,-18.9 18.9,-18.9s18.9,8.5 18.9,18.9s-8.5,18.9 -18.9,18.9zm0,-51.3c-10.4,0 -18.9,-8.5 -18.9,-18.9s8.5,-18.9 18.9,-18.9s18.9,8.5 18.9,18.9s-8.5,18.9 -18.9,18.9z"
                    class="tl2_st1" />
                <circle stroke="null" id="svg_15" r="18.9" cy="194.193996" cx="105.031232" class="tl2_st2" />
                <circle stroke="null" id="svg_16" r="18.9" cy="91.593996" cx="105.031232" class="tl2_st3" />
                <circle stroke="null" id="svg_17" r="18.9" cy="142.893996" cx="105.031232" class="tl2_st3" />
                <polygon stroke="null" id="svg_18"
                    points="32.13133180141449,72.6939468383789 32.13133180141449,80.7940444946289 69.93112695217133,107.7940444946289 69.93112695217133,72.6939468383789 "
                    class="tl2_st0" />
                <polygon stroke="null" id="svg_19"
                    points="32.13133180141449,123.9939956665039 32.13133180141449,132.09410095214844 69.93112695217133,159.09410095214844 69.93112695217133,123.9939956665039 "
                    class="tl2_st0" />
                <polygon stroke="null" id="svg_20"
                    points="32.13133180141449,176.69395446777344 32.13133180141449,184.79405212402344 69.93112695217133,211.79405212402344 69.93112695217133,176.69395446777344 "
                    class="tl2_st0" />
                <polygon stroke="null" id="svg_21"
                    points="177.9311422109604,80.7940444946289 177.9311422109604,72.6939468383789 140.13135278224945,72.6939468383789 140.13135278224945,107.7940444946289 "
                    class="tl2_st0" />
                <polygon stroke="null" id="svg_22"
                    points="177.9311422109604,132.09410095214844 177.9311422109604,123.9939956665039 140.13135278224945,123.9939956665039 140.13135278224945,159.09410095214844 "
                    class="tl2_st0" />
                <polygon stroke="null" id="svg_23"
                    points="177.9311422109604,183.39390563964844 177.9311422109604,175.29405212402344 140.13135278224945,175.29405212402344 140.13135278224945,210.39390563964844 "
                    class="tl2_st0" />
                <path stroke="null" id="svg_24"
                    d="m136.131232,56.493996l-62.2,0c-2.2,0 -4,1.8 -4,4l0,23l0,16.2l0,83.7l0,16.2l0,25.7c0,2.2 1.8,4 4,4l62.2,0c2.2,0 4,-1.8 4,-4l0,-164.8c0,-2.2 -1.8,-4 -4,-4zm-31.1,156.6c-10.4,0 -18.9,-8.5 -18.9,-18.9s8.5,-18.9 18.9,-18.9s18.9,8.5 18.9,18.9s-8.5,18.9 -18.9,18.9zm0,-51.3c-10.4,0 -18.9,-8.5 -18.9,-18.9c0,-10.4 8.5,-18.9 18.9,-18.9s18.9,8.5 18.9,18.9c0,10.5 -8.5,18.9 -18.9,18.9zm0,-51.3c-10.4,0 -18.9,-8.5 -18.9,-18.9s8.5,-18.9 18.9,-18.9s18.9,8.5 18.9,18.9s-8.5,18.9 -18.9,18.9z"
                    class="tl2_st0" />
            </g>
            <g id="yellow-light-2">
                <path stroke="null" id="svg_25"
                    d="m105.031232,385.293996l0,0c-4.5,0 -8.1,-3.6 -8.1,-8.1l0,-148.1c0,-4.5 3.6,-8.1 8.1,-8.1l0,0c4.5,0 8.1,3.6 8.1,8.1l0,148.1c0,4.5 -3.6,8.1 -8.1,8.1z"
                    class="tl2_st0" />
                <path stroke="null" id="svg_26"
                    d="m105.031232,213.193996c-10.4,0 -18.9,-8.5 -18.9,-18.9s8.5,-18.9 18.9,-18.9s18.9,8.5 18.9,18.9s-8.5,18.9 -18.9,18.9zm0,-51.3c-10.4,0 -18.9,-8.5 -18.9,-18.9s8.5,-18.9 18.9,-18.9s18.9,8.5 18.9,18.9s-8.5,18.9 -18.9,18.9zm0,-51.3c-10.4,0 -18.9,-8.5 -18.9,-18.9s8.5,-18.9 18.9,-18.9s18.9,8.5 18.9,18.9s-8.5,18.9 -18.9,18.9z"
                    class="tl2_st1" />
                <circle stroke="null" id="svg_27" r="18.9" cy="194.293996" cx="105.031232" class="tl2_st3" />
                <circle stroke="null" id="svg_28" r="18.9" cy="91.693996" cx="105.031232" class="tl2_st3" />
                <circle stroke="null" id="svg_29" r="18.9" cy="142.993996" cx="105.031232" class="tl2_st4" />
                <polygon stroke="null" id="svg_30"
                    points="32.13133180141449,72.7940444946289 32.13133180141449,80.8938980102539 69.93112695217133,107.8938980102539 69.93112695217133,72.7940444946289 "
                    class="tl2_st0" />
                <polygon stroke="null" id="svg_31"
                    points="32.13133180141449,124.0940933227539 32.13133180141449,132.19395446777344 69.93112695217133,159.19395446777344 69.93112695217133,124.0940933227539 "
                    class="tl2_st0" />
                <polygon stroke="null" id="svg_32"
                    points="32.13133180141449,176.79405212402344 32.13133180141449,184.89390563964844 69.93112695217133,211.89390563964844 69.93112695217133,176.79405212402344 "
                    class="tl2_st0" />
                <polygon stroke="null" id="svg_33"
                    points="177.9311422109604,80.8938980102539 177.9311422109604,72.7940444946289 140.13135278224945,72.7940444946289 140.13135278224945,107.8938980102539 "
                    class="tl2_st0" />
                <polygon stroke="null" id="svg_34"
                    points="177.9311422109604,132.19395446777344 177.9311422109604,124.0940933227539 140.13135278224945,124.0940933227539 140.13135278224945,159.19395446777344 "
                    class="tl2_st0" />
                <polygon stroke="null" id="svg_35"
                    points="177.9311422109604,183.49400329589844 177.9311422109604,175.39390563964844 140.13135278224945,175.39390563964844 140.13135278224945,210.49400329589844 "
                    class="tl2_st0" />
                <path stroke="null" id="svg_36"
                    d="m136.131232,56.593996l-62.2,0c-2.2,0 -4,1.8 -4,4l0,23l0,16.2l0,83.7l0,16.2l0,25.7c0,2.2 1.8,4 4,4l62.2,0c2.2,0 4,-1.8 4,-4l0,-164.8c0,-2.2 -1.8,-4 -4,-4zm-31.1,156.6c-10.4,0 -18.9,-8.5 -18.9,-18.9s8.5,-18.9 18.9,-18.9s18.9,8.5 18.9,18.9s-8.5,18.9 -18.9,18.9zm0,-51.3c-10.4,0 -18.9,-8.5 -18.9,-18.9s8.5,-18.9 18.9,-18.9s18.9,8.5 18.9,18.9s-8.5,18.9 -18.9,18.9zm0,-51.3c-10.4,0 -18.9,-8.5 -18.9,-18.9s8.5,-18.9 18.9,-18.9s18.9,8.5 18.9,18.9s-8.5,18.9 -18.9,18.9z"
                    class="tl2_st0" />
            </g>
            <g id="red-light-2">
                <path stroke="null" id="svg_37"
                    d="m105.031232,385.293996l0,0c-4.5,0 -8.1,-3.6 -8.1,-8.1l0,-148.1c0,-4.5 3.6,-8.1 8.1,-8.1l0,0c4.5,0 8.1,3.6 8.1,8.1l0,148.1c0,4.5 -3.6,8.1 -8.1,8.1z"
                    class="tl2_st0" />
                <path stroke="null" id="svg_38"
                    d="m105.031232,213.193996c-10.4,0 -18.9,-8.5 -18.9,-18.9s8.5,-18.9 18.9,-18.9s18.9,8.5 18.9,18.9s-8.5,18.9 -18.9,18.9zm0,-51.3c-10.4,0 -18.9,-8.5 -18.9,-18.9s8.5,-18.9 18.9,-18.9s18.9,8.5 18.9,18.9s-8.5,18.9 -18.9,18.9zm0,-51.3c-10.4,0 -18.9,-8.5 -18.9,-18.9s8.5,-18.9 18.9,-18.9s18.9,8.5 18.9,18.9s-8.5,18.9 -18.9,18.9z"
                    class="tl2_st1" />
                <circle stroke="null" id="svg_39" r="18.9" cy="194.293996" cx="105.031232" class="tl2_st3" />
                <circle stroke="null" id="svg_40" r="18.9" cy="91.693996" cx="105.031232" class="tl2_st5" />
                <circle stroke="null" id="svg_41" r="18.9" cy="142.993996" cx="105.031232" class="tl2_st3" />
                <polygon stroke="null" id="svg_42"
                    points="32.13133180141449,72.7940444946289 32.13133180141449,80.8938980102539 69.93112695217133,107.8938980102539 69.93112695217133,72.7940444946289 "
                    class="tl2_st0" />
                <polygon stroke="null" id="svg_43"
                    points="32.13133180141449,124.0940933227539 32.13133180141449,132.19395446777344 69.93112695217133,159.19395446777344 69.93112695217133,124.0940933227539 "
                    class="tl2_st0" />
                <polygon stroke="null" id="svg_44"
                    points="32.13133180141449,176.79405212402344 32.13133180141449,184.89390563964844 69.93112695217133,211.89390563964844 69.93112695217133,176.79405212402344 "
                    class="tl2_st0" />
                <polygon stroke="null" id="svg_45"
                    points="177.9311422109604,80.8938980102539 177.9311422109604,72.7940444946289 140.13135278224945,72.7940444946289 140.13135278224945,107.8938980102539 "
                    class="tl2_st0" />
                <polygon stroke="null" id="svg_46"
                    points="177.9311422109604,132.19395446777344 177.9311422109604,124.0940933227539 140.13135278224945,124.0940933227539 140.13135278224945,159.19395446777344 "
                    class="tl2_st0" />
                <polygon stroke="null" id="svg_47"
                    points="177.9311422109604,183.49400329589844 177.9311422109604,175.39390563964844 140.13135278224945,175.39390563964844 140.13135278224945,210.49400329589844 "
                    class="tl2_st0" />
                <path stroke="null" id="svg_48"
                    d="m136.131232,56.593996l-62.2,0c-2.2,0 -4,1.8 -4,4l0,23l0,16.2l0,83.7l0,16.2l0,25.7c0,2.2 1.8,4 4,4l62.2,0c2.2,0 4,-1.8 4,-4l0,-164.8c0,-2.2 -1.8,-4 -4,-4zm-31.1,156.6c-10.4,0 -18.9,-8.5 -18.9,-18.9s8.5,-18.9 18.9,-18.9s18.9,8.5 18.9,18.9s-8.5,18.9 -18.9,18.9zm0,-51.3c-10.4,0 -18.9,-8.5 -18.9,-18.9s8.5,-18.9 18.9,-18.9s18.9,8.5 18.9,18.9s-8.5,18.9 -18.9,18.9zm0,-51.3c-10.4,0 -18.9,-8.5 -18.9,-18.9s8.5,-18.9 18.9,-18.9s18.9,8.5 18.9,18.9s-8.5,18.9 -18.9,18.9z"
                    class="tl2_st0" />
            </g>
        </g>
    </g>
</svg>