<svg width="97" height="620" xmlns="http://www.w3.org/2000/svg">
    <style type="text/css">
        .el_st0 {
            display: none;
            fill: #FFFFFF;
            stroke: #FFFFFF;
            stroke-miterlimit: 10;
        }

        .el_st1 {
            fill: #891010;
            stroke: #000000;
            stroke-miterlimit: 10;
        }

        .el_st2 {
            fill: #B20F22;
            stroke: #000000;
            stroke-miterlimit: 10;
        }

        .el_st3 {
            fill: #D11C29;
        }

        .el_st4 {
            fill: #D11C29;
            stroke: #000000;
            stroke-miterlimit: 10;
        }

        .el_st5 {
            fill: #31BFF7;
            stroke: #000000;
            stroke-miterlimit: 10;
        }

        .el_st6 {
            fill: #AA0000;
            stroke: #000000;
            stroke-miterlimit: 10;
        }

        .el_st7 {
            fill: #700F0F;
            stroke: #000000;
            stroke-miterlimit: 10;
        }

        .el_st8 {
            fill: #231E1E;
            stroke: #000000;
            stroke-miterlimit: 10;
        }

        .el_st9 {
            stroke: #000000;
            stroke-miterlimit: 10;
        }
    </style>
    <g>
        <title>Električka</title>
        <path class="el_st0" d="m329.946227,226.939611" id="svg_1" />
        <path stroke="null" class="el_st1"
            d="m1.203367,43.813119c3.431143,-26.305428 26.877285,-45.176713 51.467141,-42.889284c21.730571,2.0015 40.029998,19.729071 42.889284,42.889284"
            id="svg_2" />
        <polygon stroke="null" class="el_st4"
            points="96.01140892505646,287.04278564453125 96.01140892505646,44.563629150390625 70.03148949146271,20.027036666870117 25.28831398487091,20.027036666870117 0.7517454624176025,44.563629150390625 0.7517454624176025,287.04278564453125 13.741705060005188,300.0327453613281 81.57808983325958,300.0327453613281 "
            id="svg_5" />
        <polygon stroke="null" class="el_st5"
            points="7.121152997016907,44.078125 23.625334858894348,27.57392692565918 73.13781273365021,27.57392692565918 89.64199364185333,44.078125 "
            id="svg_7" />
        <line stroke="null" class="el_st5" x1="48.381577" y1="27.379075" x2="48.381577" y2="43.606093" id="svg_8" />
        <path stroke="null" class="el_st6"
            d="m63.270583,231.50889l-29.778008,0c-8.580104,0 -15.393716,-6.813612 -15.393716,-15.393716l0,-125.673287c0,-8.580104 6.813612,-15.393716 15.393716,-15.393716l29.778008,0c8.580104,0 15.393716,6.813612 15.393716,15.393716l0,125.673287c0,8.580104 -6.813612,15.393716 -15.393716,15.393716z"
            id="svg_9" />
        <path stroke="null" class="el_st7"
            d="m64.061353,190.255582l-31.359562,0c-3.189108,0 -5.580939,-3.795818 -5.580939,-8.856909l0,-75.07285c0,-5.061091 2.391831,-8.856909 5.580939,-8.856909l31.359562,0c3.189108,0 5.580939,3.795818 5.580939,8.856909l0,75.07285c0,5.061091 -2.391831,8.856909 -5.580939,8.856909z"
            id="svg_10" />
        <rect stroke="null" x="31.113879" y="124.545948" class="el_st8" width="34.535399" height="44.896018"
            id="svg_11" />
        <path stroke="null" class="el_st8"
            d="m64.273687,95.803731l-31.784207,0c-1.955951,0 -3.667408,-1.711457 -3.667408,-3.667408l0,0c0,-1.955951 1.711457,-3.667408 3.667408,-3.667408l31.784207,0c1.955951,0 3.667408,1.711457 3.667408,3.667408l0,0c0,1.955951 -1.711457,3.667408 -3.667408,3.667408z"
            id="svg_14" />
        <path stroke="null" class="el_st8"
            d="m72.415199,88.107067l-48.067253,0c-2.203082,0 -4.005604,-1.802522 -4.005604,-4.005604l0,0c0,-2.203082 1.802522,-4.005604 4.005604,-4.005604l48.067253,0c2.203082,0 4.005604,1.802522 4.005604,4.005604l0,0c0,2.203082 -1.802522,4.005604 -4.005604,4.005604z"
            id="svg_15" />
        <rect stroke="null" x="36.300256" y="307.896605" class="el_st9" width="24.162651" height="4.83253"
            id="svg_30" />
        <rect stroke="null" x="39.59233" y="301.121667" class="el_st9" width="17.578511" height="5.859504"
            id="svg_31" />
        <rect stroke="null" x="36.016061" y="95.829001" class="el_st8" width="3.363538" height="73.087947"
            id="svg_42" />
        <rect stroke="null" x="57.383554" y="95.829001" class="el_st8" width="3.363538" height="73.087947"
            id="svg_55" />
        <rect stroke="null" x="39.592324" y="313.514817" class="el_st9" width="17.578511" height="5.859504"
            id="svg_56" />
        <path stroke="null" class="el_st1"
            d="m1.203367,362.165231c3.431143,-26.305427 26.877285,-45.176712 51.467141,-42.889284c21.73057,2.0015 40.029998,19.729071 42.889284,42.889284"
            id="svg_68" />
        <polygon stroke="null" class="el_st4"
            points="96.01140892505646,605.3948974609375 96.01140892505646,362.915771484375 70.03148949146271,338.3791809082031 25.28831398487091,338.3791809082031 0.7517454624176025,362.915771484375 0.7517454624176025,605.3948974609375 13.741705060005188,618.3848876953125 81.57808983325958,618.3848876953125 "
            id="svg_69" />
        <polygon stroke="null" class="el_st5"
            points="7.121152997016907,362.4302673339844 23.625334858894348,345.9260559082031 73.13781273365021,345.9260559082031 89.64199364185333,362.4302673339844 "
            id="svg_70" />
        <line stroke="null" class="el_st5" x1="48.381577" y1="345.731187" x2="48.381577" y2="361.958205" id="svg_71" />
        <path stroke="null" class="el_st6"
            d="m63.270584,549.861002l-29.778008,0c-8.580104,0 -15.393716,-6.813612 -15.393716,-15.393716l0,-125.673287c0,-8.580104 6.813612,-15.393716 15.393716,-15.393716l29.778008,0c8.580103,0 15.393715,6.813612 15.393715,15.393716l0,125.673287c0,8.580104 -6.813612,15.393716 -15.393715,15.393716z"
            id="svg_72" />
        <path stroke="null" class="el_st7"
            d="m64.061353,508.607694l-31.359561,0c-3.189108,0 -5.580939,-3.795819 -5.580939,-8.85691l0,-75.072849c0,-5.061091 2.391831,-8.85691 5.580939,-8.85691l31.359561,0c3.189108,0 5.580939,3.795819 5.580939,8.85691l0,75.072849c0,5.061091 -2.391831,8.85691 -5.580939,8.85691z"
            id="svg_73" />
        <rect stroke="null" x="31.113879" y="442.89806" class="el_st8" width="34.535399" height="44.896018"
            id="svg_74" />
        <path stroke="null" class="el_st8"
            d="m64.273687,414.155843l-31.784206,0c-1.955952,0 -3.667409,-1.711457 -3.667409,-3.667408l0,0c0,-1.955951 1.711457,-3.667409 3.667409,-3.667409l31.784206,0c1.955952,0 3.667409,1.711458 3.667409,3.667409l0,0c0,1.955951 -1.711457,3.667408 -3.667409,3.667408z"
            id="svg_75" />
        <path stroke="null" class="el_st8"
            d="m72.415199,406.459179l-48.067253,0c-2.203082,0 -4.005604,-1.802522 -4.005604,-4.005604l0,0c0,-2.203083 1.802522,-4.005605 4.005604,-4.005605l48.067253,0c2.203083,0 4.005605,1.802522 4.005605,4.005605l0,0c0,2.203082 -1.802522,4.005604 -4.005605,4.005604z"
            id="svg_76" />
        <rect stroke="null" x="36.016061" y="414.181113" class="el_st8" width="3.363538" height="73.087947"
            id="svg_77" />
        <rect stroke="null" x="57.383554" y="414.181113" class="el_st8" width="3.363538" height="73.087947"
            id="svg_78" />
    </g>
</svg>